<?xml version="1.0" encoding="utf-8"?>
<!-- Generator: Adobe Illustrator 22.0.0, SVG Export Plug-In . SVG Version: 6.00 Build 0)  -->
<svg version="1.1" id="secModernizacion" xmlns="http://www.w3.org/2000/svg" xmlns:xlink="http://www.w3.org/1999/xlink" x="0px"
	 y="0px" width="" height="50px" viewBox="0 0 228.8 44.3" style="enable-background:new 0 0 228.8 44.3;"
	 xml:space="preserve">
<style type="text/css">
	.st0{fill:#FFFFFF;}
	.st1{fill:#0094D4;}
	.st2{fill:#231F20;}
	.st3{fill:#FFC10E;}
	.st4{fill:#2DA34A;}
	.st5{fill:#EE4023;}
	.st6{fill:#FBBB80;}
</style>
<g>
	<path class="st0" d="M36.6,24.5H41c2.6,0,4.2,1.5,4.2,3.7l0,0c0,2.5-2,3.8-4.5,3.8h-2.2v3.6h-2L36.6,24.5L36.6,24.5z M40.8,30.3
		c1.5,0,2.4-0.8,2.4-2l0,0c0-1.3-0.9-2-2.4-2h-2.3v4H40.8z"/>
	<path class="st0" d="M46.8,27.3h1.9v1.9c0.5-1.3,1.5-2.1,3-2.1v2h-0.1c-1.7,0-2.9,1.1-2.9,3.3v3.2h-1.9V27.3z"/>
	<path class="st0" d="M52.8,31.5L52.8,31.5c0-2.4,1.7-4.4,4.1-4.4c2.7,0,4,2.1,4,4.5c0,0.2,0,0.4,0,0.5h-6.2
		c0.2,1.4,1.2,2.1,2.4,2.1c0.9,0,1.6-0.4,2.3-1l1.1,1c-0.8,1-1.9,1.6-3.4,1.6C54.6,35.9,52.8,34.1,52.8,31.5 M59,30.9
		c-0.1-1.2-0.9-2.2-2.1-2.2c-1.2,0-2,0.9-2.2,2.2H59z"/>
	<path class="st0" d="M62,34.6l0.9-1.3c0.9,0.7,1.9,1,2.8,1c0.8,0,1.3-0.4,1.3-0.9l0,0c0-0.7-0.9-0.9-1.9-1.2
		c-1.2-0.4-2.6-0.9-2.6-2.5l0,0c0-1.6,1.3-2.6,3-2.6c1,0,2.2,0.4,3.1,1l-0.8,1.4c-0.8-0.5-1.7-0.8-2.4-0.8c-0.7,0-1.2,0.4-1.2,0.8
		l0,0c0,0.6,0.9,0.9,1.9,1.2c1.2,0.4,2.6,0.9,2.6,2.5l0,0c0,1.8-1.4,2.6-3.1,2.6C64.4,35.8,63.1,35.4,62,34.6"/>
	<path class="st0" d="M70.5,24.2h2.1V26h-2.1V24.2z M70.6,27.3h1.9v8.4h-1.9V27.3z"/>
	<path class="st0" d="M74.4,31.5L74.4,31.5c0-2.8,1.9-4.4,3.9-4.4c1.4,0,2.3,0.7,2.9,1.5v-4.5h1.9v11.6h-1.9v-1.4
		c-0.6,0.9-1.5,1.6-2.9,1.6C76.4,35.9,74.4,34.3,74.4,31.5 M81.2,31.5L81.2,31.5c0-1.7-1.1-2.7-2.4-2.7s-2.4,1-2.4,2.7l0,0
		c0,1.6,1.1,2.7,2.4,2.7S81.2,33.1,81.2,31.5"/>
	<path class="st0" d="M84.9,31.5L84.9,31.5c0-2.4,1.7-4.4,4.1-4.4c2.7,0,4,2.1,4,4.5c0,0.2,0,0.4,0,0.5h-6.2
		c0.2,1.4,1.2,2.1,2.4,2.1c0.9,0,1.6-0.4,2.3-1l1.1,1c-0.8,1-1.9,1.6-3.4,1.6C86.8,35.9,84.9,34.1,84.9,31.5 M91.1,30.9
		c-0.1-1.2-0.9-2.2-2.1-2.2s-2,0.9-2.2,2.2H91.1z"/>
	<path class="st0" d="M94.8,27.3h1.9v1.3c0.5-0.8,1.3-1.5,2.6-1.5c1.9,0,3,1.3,3,3.2v5.3h-1.9v-4.8c0-1.3-0.7-2.1-1.8-2.1
		c-1.1,0-1.9,0.8-1.9,2.1v4.7h-1.9C94.8,35.5,94.8,27.3,94.8,27.3z"/>
	<path class="st0" d="M104.1,31.5L104.1,31.5c0-2.4,1.8-4.4,4.4-4.4c1.6,0,2.6,0.6,3.4,1.4l-1.2,1.3c-0.6-0.6-1.2-1.1-2.2-1.1
		c-1.4,0-2.4,1.2-2.4,2.7l0,0c0,1.5,1,2.7,2.5,2.7c0.9,0,1.6-0.4,2.2-1.1l1.2,1.1c-0.8,0.9-1.8,1.6-3.4,1.6
		C105.9,35.9,104.1,33.9,104.1,31.5"/>
	<path class="st0" d="M113.5,24.2h2.1V26h-2.1V24.2z M113.6,27.3h1.9v8.4h-1.9V27.3z"/>
	<path class="st0" d="M123,35.7v-1c-0.6,0.7-1.4,1.2-2.7,1.2c-1.6,0-3-0.9-3-2.6l0,0c0-1.9,1.4-2.8,3.4-2.8c1,0,1.7,0.1,2.3,0.4
		v-0.2c0-1.2-0.7-1.8-2.1-1.8c-0.9,0-1.6,0.2-2.4,0.5l-0.5-1.5c0.9-0.4,1.8-0.7,3.2-0.7c2.5,0,3.7,1.3,3.7,3.5v5
		C124.9,35.7,123,35.7,123,35.7z M123,32.2c-0.5-0.2-1.2-0.3-1.9-0.3c-1.2,0-1.9,0.5-1.9,1.3l0,0c0,0.8,0.7,1.2,1.6,1.2
		c1.3,0,2.2-0.7,2.2-1.8C123,32.6,123,32.2,123,32.2z"/>
	<path class="st0" d="M131.2,31.5L131.2,31.5c0-2.8,1.9-4.4,3.9-4.4c1.4,0,2.3,0.7,2.9,1.5v-4.5h1.9v11.6H138v-1.4
		c-0.6,0.9-1.5,1.6-2.9,1.6C133.1,35.9,131.2,34.3,131.2,31.5 M138,31.5L138,31.5c0-1.7-1.1-2.7-2.4-2.7c-1.3,0-2.4,1-2.4,2.7l0,0
		c0,1.6,1.1,2.7,2.4,2.7S138,33.1,138,31.5"/>
	<path class="st0" d="M141.7,31.5L141.7,31.5c0-2.4,1.7-4.4,4.1-4.4c2.7,0,4,2.1,4,4.5c0,0.2,0,0.4,0,0.5h-6.2
		c0.2,1.4,1.2,2.1,2.4,2.1c0.9,0,1.6-0.4,2.3-1l1.1,1c-0.8,1-1.9,1.6-3.4,1.6C143.6,35.9,141.7,34.1,141.7,31.5 M147.9,30.9
		c-0.1-1.2-0.9-2.2-2.1-2.2c-1.2,0-2,0.9-2.2,2.2H147.9z"/>
	<rect x="156.3" y="24.1" class="st0" width="1.9" height="11.6"/>
	<path class="st0" d="M165.7,35.7v-1c-0.6,0.7-1.4,1.2-2.7,1.2c-1.6,0-3-0.9-3-2.6l0,0c0-1.9,1.4-2.8,3.4-2.8c1,0,1.7,0.1,2.3,0.4
		v-0.2c0-1.2-0.7-1.8-2.1-1.8c-0.9,0-1.6,0.2-2.4,0.5l-0.5-1.5c0.9-0.4,1.8-0.7,3.2-0.7c2.5,0,3.7,1.3,3.7,3.5v5
		C167.6,35.7,165.7,35.7,165.7,35.7z M165.8,32.2c-0.5-0.2-1.2-0.3-1.9-0.3c-1.2,0-1.9,0.5-1.9,1.3l0,0c0,0.8,0.7,1.2,1.6,1.2
		c1.3,0,2.2-0.7,2.2-1.8L165.8,32.2L165.8,32.2z"/>
	<polygon class="st0" points="174.6,24.5 176.4,24.5 182.4,32.2 182.4,24.5 184.3,24.5 184.3,35.7 182.7,35.7 176.5,27.8 
		176.5,35.7 174.6,35.7 	"/>
	<path class="st0" d="M191.9,35.7v-1c-0.6,0.7-1.4,1.2-2.7,1.2c-1.6,0-3-0.9-3-2.6l0,0c0-1.9,1.4-2.8,3.4-2.8c1,0,1.7,0.1,2.3,0.4
		v-0.2c0-1.2-0.7-1.8-2.1-1.8c-0.9,0-1.6,0.2-2.4,0.5l-0.5-1.5c0.9-0.4,1.8-0.7,3.2-0.7c2.5,0,3.7,1.3,3.7,3.5v5
		C193.8,35.7,191.9,35.7,191.9,35.7z M192,32.2c-0.5-0.2-1.2-0.3-1.9-0.3c-1.2,0-1.9,0.5-1.9,1.3l0,0c0,0.8,0.7,1.2,1.6,1.2
		c1.3,0,2.2-0.7,2.2-1.8L192,32.2L192,32.2z"/>
	<path class="st0" d="M195.5,31.5L195.5,31.5c0-2.4,1.8-4.4,4.4-4.4c1.6,0,2.6,0.6,3.4,1.4l-1.2,1.3c-0.6-0.6-1.2-1.1-2.2-1.1
		c-1.4,0-2.4,1.2-2.4,2.7l0,0c0,1.5,1,2.7,2.5,2.7c0.9,0,1.6-0.4,2.2-1.1l1.2,1.1c-0.8,0.9-1.8,1.6-3.4,1.6
		C197.4,35.9,195.5,33.9,195.5,31.5"/>
	<path class="st0" d="M204.9,24.2h2.1V26h-2.1V24.2z M205,27.3h1.9v8.4H205V27.3z"/>
	<path class="st0" d="M208.8,31.5L208.8,31.5c0-2.4,1.9-4.4,4.5-4.4s4.5,2,4.5,4.4l0,0c0,2.4-1.9,4.4-4.5,4.4S208.8,33.9,208.8,31.5
		 M215.9,31.5L215.9,31.5c0-1.5-1.1-2.7-2.6-2.7s-2.5,1.2-2.5,2.7l0,0c0,1.5,1.1,2.7,2.6,2.7S215.9,33,215.9,31.5 M214.2,23.6
		l1.7,0.8l-2,1.8h-1.4L214.2,23.6z"/>
	<path class="st0" d="M219.6,27.3h1.9v1.3c0.5-0.8,1.3-1.5,2.6-1.5c1.9,0,3,1.3,3,3.2v5.3h-1.9v-4.8c0-1.3-0.7-2.1-1.8-2.1
		s-1.9,0.8-1.9,2.1v4.7h-1.9L219.6,27.3L219.6,27.3z"/>
	<path class="st1" d="M14.2,22.3h-2.3c-0.5,0-0.8-0.2-0.9-0.4c-0.1-0.2-0.2-0.3-0.2-0.6c0,0,0,0,0-0.1c0-0.2,0-0.4,0-0.7
		c0.3-1.5,0.9-2.5,1.4-3.2c-0.1,0-0.1,0-0.2-0.1c-0.3-0.2-0.5-0.6-0.4-1c0.1-0.5,0.6-1,0.6-1.1c0.8-0.9,2-1,2.1-1
		c0.2,0,1.7-0.1,2.6,1.6c1,2,1.2,3.6,1.4,4.9v0.1c0,0.2,0,0.4,0,0.6c0,0,0,0,0,0.1c-0.1,0.2-0.1,0.3-0.2,0.4
		c-0.2,0.2-0.5,0.4-0.9,0.4c-0.2,0-0.3,0-0.4,0h-0.1h-1.8v3.3h10.3c0-1.9-0.3-3.8-0.8-5.5s-1.3-3.2-2.3-4.5s-2.1-2.3-3.4-3
		s-2.7-1.1-4.1-1.1s-2.8,0.4-4.1,1.1c-1.3,0.7-2.4,1.7-3.4,3S5.3,18.3,4.8,20C4.2,21.8,4,23.6,4,25.5h10.3v-3.2H14.2z"/>
	<path class="st0" d="M3.8,25.5c0,1.5,0.2,2.9,0.5,4.2c4.6-0.5,7.4-1.1,8.2-1.6c0.6-0.4,1-0.6,1.6-0.6v-2H3.8z"/>
	<path class="st0" d="M14.9,27.6c0.4,0.1,0.7,0.2,1.1,0.4h0.1c0.6,0,1.1,0.2,1.8,0.4c0.2,0.1,0.4,0.1,0.6,0.2c0.1,0,3.4,1.1,6.2,1.2
		c0.3-1.4,0.5-2.8,0.5-4.3H14.9V27.6z"/>
	<path class="st2" d="M13.8,9.6L13.8,9.6L13.8,9.6z"/>
	<path class="st2" d="M11.7,9.9"/>
	<path class="st2" d="M11.7,9.9L11.7,9.9L11.7,9.9z"/>
	<path class="st0" d="M19.1,32.1c0,0.1-0.1,0.2-0.2,0.3c-0.2,0.2-0.4,0.3-0.7,0.3c0,0.1-0.1,0.2-0.2,0.3c-0.2,0.2-0.4,0.4-0.9,0.4
		c0,0.1-0.1,0.2-0.2,0.2c-0.2,0.2-0.5,0.3-0.9,0.3c0,0-0.2,0.1-0.3,0.1c-0.2,0.1-0.5,0.1-0.8,0.1v2.7c0,0.2-0.2,0.3-0.3,0.3
		c-0.2,0-0.3-0.2-0.3-0.3v-2.6c-0.1,0.1-0.3,0.1-0.4,0.1c-0.1,0-0.1,0-0.2,0c-0.2,0-0.4-0.1-0.5-0.3c-0.2,0-0.6,0.1-0.9-0.1
		c-0.1-0.1-0.2-0.2-0.3-0.3c-0.1,0-0.2,0-0.3-0.1c-0.3-0.1-0.5-0.3-0.6-0.5c-0.1,0-0.2,0-0.2,0c-0.3,0-0.6-0.1-0.7-0.4
		c0-0.1,0-0.1-0.1-0.2C8.5,33,6.8,33.8,6,34.1c0.3,0.5,0.6,1,1,1.4c1,1.3,2.1,2.3,3.4,3c0.6,0.3,1.2,0.6,1.8,0.8
		c0.1-0.1,0.2-0.2,0.3-0.3c0.6-0.4,1.7-0.1,2,0c0.3-0.1,1.4-0.4,2,0c0.1,0.1,0.2,0.2,0.3,0.3c0.6-0.2,1.2-0.4,1.8-0.8
		c1.3-0.7,2.4-1.7,3.4-3c0.3-0.4,0.6-0.9,0.9-1.3C22.1,33.9,20.3,33.1,19.1,32.1"/>
	<path class="st1" d="M15.5,41.5c0-0.1,0-0.2,0-0.2c0-0.1,0-0.1,0-0.2c0.3-0.1,0.9-0.2,1.2-0.6c0.2-0.2,0.3-0.5,0.2-0.8
		c0-0.3-0.2-0.5-0.4-0.6c-0.6-0.4-1.7-0.1-2,0c-0.3-0.1-1.4-0.4-2,0c-0.2,0.1-0.3,0.3-0.4,0.6c0,0.3,0,0.6,0.2,0.8
		c0.3,0.4,0.9,0.6,1.2,0.6c0,0.1,0,0.1,0,0.2c0,0.1,0,0.2,0,0.2c-0.3,0.2-1.1,1-2.3,1.1c0,0.1,0.1,0.2,0.3,0.4
		c1-0.2,1.8-0.8,2.1-1.1l0.1,0.1c-0.1,0.3-0.4,1-1.7,1.4c0.2,0.1,0.5,0.2,0.8,0.2c0.9-0.4,1.2-1,1.3-1.4c0.1,0,0.1,0,0.2,0
		c0.1,0,0.1,0,0.2,0c0.1,0.4,0.4,1,1.3,1.4c0.3,0,0.6-0.1,0.8-0.2c-1.3-0.3-1.6-1.1-1.7-1.3L15,42c0.3,0.3,1.1,0.9,2.1,1.1
		c0.2-0.2,0.3-0.4,0.3-0.4C16.5,42.5,15.7,41.8,15.5,41.5"/>
	<path class="st0" d="M16.3,39.5c0.1,0.1,0.1,0.1,0.2,0.3c0,0.2,0,0.3-0.1,0.4c-0.1,0.2-0.4,0.3-0.6,0.4c0.1-0.2,0.1-0.5,0-0.7
		s-0.2-0.4-0.4-0.5C15.8,39.3,16.1,39.3,16.3,39.5"/>
	<path class="st0" d="M13.7,40c0.2-0.5,0.8-0.5,0.8-0.5s0.2,0,0.4,0.1s0.4,0.2,0.5,0.4s-0.1,0.4-0.2,0.6c-0.2-0.2-0.4-0.2-0.6-0.2
		c-0.2,0-0.5,0.1-0.7,0.2C13.7,40.4,13.6,40.2,13.7,40"/>
	<path class="st0" d="M13.3,40.5c-0.2-0.1-0.5-0.2-0.6-0.4c-0.1-0.1-0.1-0.3-0.1-0.4c0-0.1,0.1-0.2,0.2-0.3c0.1-0.1,0.3-0.1,0.6-0.1
		c0.1,0,0.2,0,0.3,0c-0.2,0.1-0.3,0.3-0.4,0.5C13.1,40.1,13.2,40.3,13.3,40.5"/>
	<path class="st0" d="M14,41.3c0-0.3,0.2-0.5,0.5-0.5S15,41,15,41.3s-0.2,0.5-0.5,0.5S14,41.6,14,41.3"/>
	<path class="st0" d="M17.4,43c-1-0.2-1.8-0.8-2.1-1.1L15.2,42c0.1,0.3,0.4,1,1.7,1.3C17,43.3,17.2,43.2,17.4,43"/>
	<path class="st0" d="M13.8,41.9c-0.3,0.3-1.1,0.9-2.1,1.1c0.1,0.1,0.3,0.3,0.6,0.4c1.3-0.3,1.6-1.1,1.7-1.4
		C13.9,42,13.8,42,13.8,41.9"/>
	<path class="st2" d="M27.5,28.3c0-0.1,0-0.1-0.1-0.2c0,0-0.1-0.1-0.2-0.1c0-0.1,0.1-0.2,0.1-0.3c0.2-0.4,0.2-0.9,0.3-1.5
		c0-0.1,0-0.1-0.1-0.2c0,0-0.1,0-0.2,0c0-0.1,0.1-0.2,0.1-0.3c0.1-0.5,0.2-1,0.1-1.5c0-0.1-0.1-0.1-0.1-0.2c0,0-0.1,0-0.2,0
		c0-0.1,0.1-0.2,0.1-0.3c0.1-0.5,0.1-1,0-1.5c0-0.1-0.1-0.1-0.1-0.2h-0.1c0-0.1,0-0.2,0-0.2c0.1-0.5,0-1-0.1-1.5
		c0-0.1-0.1-0.1-0.1-0.2c-0.1,0-0.1,0-0.2,0l0,0c0-0.1,0-0.2,0-0.4c0-0.5-0.1-1-0.3-1.5c0-0.1-0.1-0.1-0.2-0.1s-0.1,0-0.2,0
		c0-0.1,0-0.2,0-0.3c-0.1-0.5-0.2-1-0.5-1.4c0-0.1-0.1-0.1-0.2-0.1s-0.1,0-0.2,0.1c0-0.1,0-0.2-0.1-0.3c-0.1-0.5-0.3-0.9-0.6-1.4
		c0-0.1-0.1-0.1-0.2-0.1s-0.1,0-0.2,0.1c0-0.1-0.1-0.2-0.1-0.4c-0.2-0.4-0.5-0.9-0.9-1.3c-0.1-0.1-0.1-0.1-0.2-0.1s-0.1,0-0.1,0.1
		c-0.1-0.1-0.1-0.2-0.2-0.4c-0.3-0.4-0.6-0.8-1-1.1c-0.1,0-0.1-0.1-0.2,0c-0.1,0-0.1,0.1-0.1,0.1c-0.3-0.4-0.7-0.7-1.2-0.9
		c0.1,0,0.2,0,0.3,0c0.6,0,1-0.1,1.1-0.1s0.2-0.2,0.2-0.3s-0.1-0.2-0.3-0.2c-0.7,0-0.9-0.2-1.2-0.3c-0.1,0-0.1-0.1-0.2-0.1l1.6-0.2
		c0.1,0,0.2-0.1,0.2-0.3c0-0.1-0.1-0.3-0.2-0.3l-1.6-0.2c0.2,0,0.4-0.1,0.6-0.2C20.9,8.3,21.3,8,21.3,8c0.1-0.1,0.1-0.2,0.1-0.4
		c-0.1-0.1-0.2-0.2-0.3-0.1c-0.6,0.2-0.9,0.2-1.3,0.2c-0.1,0-0.1,0-0.2,0L21,6.9c0-0.2,0.1-0.3,0-0.4s-0.2-0.2-0.3-0.2l-1.5,0.4
		c0.1-0.1,0.3-0.3,0.5-0.4c0.5-0.4,0.7-0.8,0.7-0.8c0.1-0.1,0-0.3-0.1-0.4C20.1,5,20,5,19.9,5.1c-0.5,0.5-0.8,0.5-1.1,0.6
		c-0.1,0-0.1,0-0.2,0.1l0.9-1.3c0.1-0.1,0.1-0.3,0-0.4s-0.3-0.1-0.4,0L17.8,5c0.1-0.2,0.2-0.4,0.3-0.6c0.3-0.6,0.3-1,0.3-1
		c0-0.1-0.1-0.3-0.2-0.3s-0.3,0-0.3,0.2c-0.3,0.6-0.5,0.8-0.8,1c-0.1,0-0.1,0.1-0.2,0.1L17.4,3c0-0.1,0-0.3-0.2-0.3
		c-0.1-0.1-0.3,0-0.3,0.1L16,4.1c0-0.2,0-0.4,0.1-0.6c0-0.6-0.1-1-0.1-1.1s-0.2-0.2-0.3-0.2s-0.2,0.1-0.2,0.3c0,0.7-0.2,0.9-0.3,1.2
		c0,0.1-0.1,0.1-0.1,0.2l-0.2-1.6c0-0.1-0.1-0.2-0.3-0.2l0,0c-0.1,0-0.3,0.1-0.3,0.2L14,3.9c0-0.2-0.1-0.4-0.2-0.6
		c-0.2-0.6-0.5-0.9-0.5-0.9c-0.1-0.1-0.2-0.1-0.4-0.1c-0.1,0.1-0.2,0.2-0.1,0.3C13,3.2,13,3.5,13,3.9C13,4,13,4,13,4.1l-0.8-1.4
		c-0.1-0.1-0.2-0.2-0.3-0.1c-0.1,0.1-0.2,0.2-0.2,0.3L12,4.5c-0.1-0.1-0.3-0.3-0.4-0.5c-0.4-0.5-0.8-0.7-0.8-0.7
		c-0.1-0.1-0.3,0-0.4,0.1c-0.1,0.1-0.1,0.3,0,0.4c0.5,0.5,0.5,0.8,0.6,1.1C11,5,11,5,11.1,5.1L9.9,4.2c-0.1-0.1-0.3-0.1-0.4,0
		c-0.1,0.1-0.1,0.3,0,0.4l0.9,1.3C10.2,5.8,10,5.7,9.8,5.6c-0.6-0.3-1-0.3-1-0.3c-0.1,0-0.3,0.1-0.3,0.2s0,0.3,0.2,0.3
		c0.6,0.3,0.8,0.5,1,0.8c0,0.1,0.1,0.1,0.1,0.2L8.3,6.3C8.2,6.3,8,6.3,8,6.5c0,0.1,0,0.3,0.1,0.3l1.4,0.8c-0.2,0-0.4,0-0.6-0.1
		c-0.6,0-1,0.1-1.1,0.1C7.7,7.7,7.6,7.8,7.6,8c0,0.1,0.1,0.2,0.3,0.2c0.7,0,0.9,0.2,1.2,0.3c0.1,0,0.1,0.1,0.2,0.1L7.7,8.9
		C7.6,8.9,7.5,9,7.5,9.2c0,0.1,0.1,0.3,0.2,0.3l1.6,0.2c-0.2,0-0.4,0.1-0.6,0.2c-0.6,0.2-0.9,0.5-0.9,0.5c-0.1,0.1-0.1,0.2-0.1,0.4
		C7.8,10.9,7.9,11,8,10.9c0.4-0.1,0.6-0.2,0.8-0.2c-0.3,0.3-0.6,0.5-0.7,0.7c0,0-0.1,0.1-0.1,0.2l-0.1-0.1c-0.1,0-0.1,0-0.2,0
		c-0.4,0.3-0.8,0.7-1.1,1.1c-0.1,0.1-0.1,0.2-0.2,0.4c0-0.1-0.1-0.1-0.1-0.1c-0.1,0-0.1,0-0.2,0.1c-0.4,0.4-0.7,0.8-0.9,1.3
		c0,0.1-0.1,0.2-0.1,0.3L5,14.5c-0.1,0-0.1,0-0.2,0.1C4.4,15.1,4.1,15.5,4,16c0,0.1-0.1,0.2-0.1,0.4c0-0.1-0.1-0.1-0.2-0.1
		c-0.1,0-0.1,0.1-0.2,0.1c-0.3,0.5-0.4,1-0.5,1.4c0,0.1,0,0.2,0,0.3c-0.1,0-0.1-0.1-0.2,0c-0.1,0-0.1,0.1-0.2,0.1
		c-0.2,0.5-0.3,1-0.3,1.5c0,0.1,0,0.2,0,0.3c-0.1,0-0.1,0-0.2,0C2,20,2,20.1,2,20.2c-0.1,0.5-0.2,1.1-0.1,1.5c0,0.1,0,0.2,0,0.3H1.8
		c-0.1,0-0.1,0.1-0.1,0.2c-0.1,0.5-0.1,1.1,0,1.5c0,0.1,0,0.2,0.1,0.3H1.7c-0.1,0-0.1,0.1-0.1,0.2c-0.1,0.6-0.1,1.1,0,1.5
		c0,0.1,0,0.2,0.1,0.3H1.6c-0.1,0-0.1,0.1-0.1,0.2c0,0.6,0.1,1.1,0.2,1.5c0,0.1,0.1,0.3,0.2,0.4l0,0c-0.1,0-0.1,0-0.2,0.1
		c-0.1,0-0.1,0.1-0.1,0.2c0.1,0.6,0.2,1,0.5,1.5c0,0.1,0.1,0.2,0.1,0.2s-0.1,0-0.1,0.1c-0.1,0-0.2,0.1-0.1,0.1
		c0.1,0.5,0.3,1,0.6,1.4c0.1,0.1,0.1,0.2,0.2,0.3c-0.1,0-0.1,0-0.2,0.1c0,0.1-0.1,0.1,0,0.2c0.2,0.5,0.4,1,0.7,1.3
		c0.1,0.1,0.1,0.2,0.2,0.2c-0.1,0-0.1,0.1-0.1,0.1c0,0.1,0,0.1,0,0.2C3.7,34.6,4,35,4.3,35.3c0.1,0.1,0.1,0.1,0.2,0.2l-0.1,0.1
		c0,0.1,0,0.1,0,0.2c0.3,0.5,0.6,0.9,1,1.1c0.1,0.1,0.2,0.2,0.3,0.2l0,0c-0.1,0-0.1,0.1-0.1,0.2c0,0.1,0,0.1,0.1,0.2
		c0.4,0.4,0.8,0.7,1.2,0.9c0.3,0.2,0.7,0.3,1,0.4c0.3,0.1,0.6,0.1,0.8,0l0,0c0.7,0.5,1.4,0.9,2.2,1.2c0.6,0.3,1.3,0.5,1.9,0.6
		c0.1,0,0.3,0.1,0.4,0.1c-0.3-0.1-0.6-0.3-0.7-0.5l-0.1-0.1c-0.4-0.1-0.9-0.3-1.3-0.5c-0.7-0.3-1.4-0.7-2.1-1.2l0,0
		c0-0.2,0-0.5-0.1-0.7c0.5,0.4,0.9,0.7,1.4,1c0.6,0.4,1.3,0.6,2,0.8v-0.1c0-0.1,0-0.2,0.1-0.3c-0.6-0.2-1.2-0.4-1.8-0.8
		c-1.3-0.7-2.4-1.7-3.4-3c-0.3-0.5-0.7-0.9-1-1.4c0.8-0.3,2.4-1.1,3.9-1.8c0,0.1,0,0.1,0.1,0.2c0.1,0.3,0.5,0.4,0.7,0.4
		c0.1,0,0.2,0,0.2,0c0.1,0.2,0.3,0.4,0.6,0.5c0.1,0,0.2,0.1,0.3,0.1c0.1,0.1,0.1,0.2,0.3,0.3C12.4,34,12.8,34,13,34
		c0.1,0.2,0.3,0.3,0.5,0.3c0.1,0,0.1,0,0.2,0c0.2,0,0.3,0,0.4-0.1v2.6c0,0.2,0.2,0.3,0.3,0.3c0.2,0,0.3-0.2,0.3-0.3v-2.7
		c0.4,0.1,0.6,0,0.8-0.1s0.3-0.1,0.4-0.2c0.3,0.1,0.6,0,0.9-0.3c0.1-0.1,0.1-0.2,0.2-0.2c0.5,0,0.7-0.2,0.9-0.4
		c0.1-0.1,0.1-0.2,0.2-0.3c0.3,0,0.5-0.1,0.7-0.3c0.1-0.1,0.1-0.2,0.2-0.3c1.2,0.9,3,1.7,3.9,2.1c-0.3,0.5-0.6,0.9-0.9,1.3
		c-1,1.3-2.1,2.3-3.4,3c-0.6,0.3-1.2,0.6-1.8,0.8c0,0.1,0.1,0.2,0.1,0.3v0.1c0.7-0.2,1.3-0.5,2-0.8c0.5-0.3,1-0.6,1.4-1
		c-0.1,0.2-0.1,0.5-0.1,0.7l0,0c-0.2,0.2-0.7,0.5-1.5,0.9c-0.6,0.3-1.2,0.5-1.8,0.7h-0.1c0,0,0,0.1-0.1,0.1
		c-0.2,0.2-0.5,0.4-0.8,0.5c0.3-0.1,0.7-0.1,1-0.2c0.6-0.2,1.3-0.4,1.9-0.7c0.8-0.4,1.4-0.8,1.6-1l0,0c0.2,0,0.5,0,0.8,0
		c0.3-0.1,0.6-0.2,1-0.4s0.8-0.5,1.2-0.9c0.1-0.1,0.1-0.1,0.1-0.2c0-0.1-0.1-0.1-0.1-0.2l0,0c0.1-0.1,0.2-0.2,0.4-0.2
		c0.4-0.3,0.7-0.7,1-1.1c0-0.1,0-0.1,0-0.2c0-0.1-0.1-0.1-0.1-0.1c0.1-0.1,0.2-0.1,0.2-0.2c0.3-0.3,0.6-0.7,0.9-1.2
		c0-0.1,0-0.1,0-0.2c0-0.1-0.1-0.1-0.2-0.1c0.1-0.1,0.2-0.2,0.2-0.2c0.3-0.4,0.5-0.8,0.7-1.3c0-0.1,0-0.1,0-0.2
		c0-0.1-0.1-0.1-0.2-0.1l0,0c0.1-0.1,0.1-0.2,0.2-0.3c0.3-0.4,0.5-0.9,0.6-1.4c0-0.1,0-0.1-0.1-0.2c0-0.1-0.1-0.1-0.2-0.1
		c0.1-0.1,0.1-0.2,0.2-0.3C27.2,29.3,27.4,28.9,27.5,28.3 M27.2,26.6L27.2,26.6c0,0.4-0.1,0.7-0.2,1.1c-0.1,0.3-0.3,0.6-0.5,0.8
		c-0.2,0.3-0.5,0.4-0.6,0.5l0,0l0,0c-0.3-0.4-0.5-0.9-0.4-1.5c0-0.2,0-0.4,0.1-0.6l0,0l0,0c0.3,0.3,0.4,0.8,0.4,0.8
		c0,0.1,0.1,0.1,0.1,0.1c0.1,0,0.1,0,0.2-0.1C26.6,27.1,26.9,26.7,27.2,26.6L27.2,26.6 M27.1,24.6C27.2,24.6,27.2,24.6,27.1,24.6
		C27.2,24.6,27.2,24.6,27.1,24.6c0,0.4,0,0.7-0.1,1.1c-0.1,0.3-0.2,0.6-0.4,0.9c-0.2,0.3-0.4,0.5-0.5,0.5l0,0l0,0
		c-0.5-0.6-0.6-1.5-0.6-2l0,0l0,0c0.3,0.3,0.5,0.7,0.5,0.7c0,0.1,0.1,0.1,0.2,0.1s0.1,0,0.1-0.1C26.6,25.1,26.9,24.8,27.1,24.6
		 M26.9,22.6C26.9,22.6,26.9,22.5,26.9,22.6C26.9,22.6,27,22.6,26.9,22.6c0.1,0.4,0.1,0.7,0,1.1c0,0.3-0.1,0.6-0.3,0.9
		c-0.2,0.3-0.4,0.5-0.5,0.6l0,0l0,0c-0.5-0.4-0.7-1.4-0.7-1.9l0,0l0,0c0.3,0.3,0.5,0.6,0.5,0.6c0,0.1,0.1,0.1,0.2,0.1
		s0.1-0.1,0.1-0.1C26.4,23.2,26.7,22.8,26.9,22.6 M26.6,20.6L26.6,20.6L26.6,20.6c0.1,0.4,0.1,0.7,0.1,1.1c0,0.3-0.1,0.6-0.3,0.9
		c-0.2,0.3-0.3,0.5-0.4,0.6l0,0l0,0c-0.4-0.4-0.7-0.9-0.8-1.3c0-0.2-0.1-0.4-0.1-0.6l0,0l0,0c0.3,0.3,0.6,0.6,0.6,0.6
		c0,0.1,0.1,0.1,0.2,0.1s0.1-0.1,0.1-0.1C26.2,21.3,26.4,20.9,26.6,20.6 M11.3,20.8C11.3,20.7,11.3,20.7,11.3,20.8
		c0.3-1.4,0.8-2.3,1.2-2.8c0.3-0.4,0.6-0.6,0.7-0.7l0.1-0.1c0.1-0.1,0.1-0.3,0-0.4s-0.3-0.2-0.4-0.1c0,0-0.1,0-0.1,0.1
		c-0.3,0.2-0.5,0.1-0.5,0.1c-0.1-0.1-0.1-0.2-0.1-0.3c0-0.3,0.4-0.7,0.5-0.8l0,0c0.6-0.8,1.7-0.8,1.7-0.8l0,0c0,0,0.3,0,0.7,0.1
		c0.6,0.2,1,0.6,1.3,1.1c0.4,0.8,0.7,1.6,0.9,2.4c-0.6-0.2-1-0.6-1-0.6c-0.1-0.1-0.3-0.1-0.4,0c-0.1,0.1-0.1,0.1-0.1,0.2
		s0,0.2,0.1,0.2c0,0,0.7,0.6,1.6,0.8c0.1,0.3,0.1,0.6,0.2,0.9c-0.3-0.1-0.6-0.2-0.9-0.3c-0.2,0-0.4-0.1-0.5-0.1
		c-0.6-0.2-1.1-0.6-1.1-0.6c-0.1-0.1-0.3-0.1-0.4,0.1c-0.1,0.1-0.1,0.3,0.1,0.4c0,0,0.6,0.5,1.3,0.7c0.2,0.1,0.4,0.1,0.6,0.2
		c0.7,0.2,1.1,0.3,1.1,0.7c0,0.1-0.1,0.1-0.1,0.2c-0.2,0.3-0.8,0.3-0.9,0.3l0,0H16c-0.1,0-0.9,0-1.5-0.4
		C12.9,20.2,12.2,20.4,11.3,20.8 M14,21.7h-2.1c-0.2,0-0.4-0.1-0.5-0.2c0,0,0-0.1-0.1-0.1C12.2,21,12.7,20.9,14,21.7 M14.9,25.5
		v-3.3h1.8c0,0,0,0,0.1,0s0.2,0,0.4,0c0.4-0.1,0.7-0.2,0.9-0.4c0.1-0.1,0.2-0.2,0.2-0.4c0,0,0,0,0-0.1c0-0.2,0.1-0.3,0-0.6v-0.1
		c-0.2-1.3-0.4-2.9-1.4-4.9c-0.8-1.6-2.4-1.6-2.6-1.6c-0.1,0-1.3,0.1-2.1,1c-0.1,0.1-0.6,0.6-0.6,1.1c-0.1,0.4,0.1,0.8,0.4,1
		c0.1,0,0.1,0.1,0.2,0.1C11.6,18,11,19,10.7,20.6c-0.1,0.3-0.1,0.5,0,0.7c0,0,0,0,0,0.1c0,0.2,0.1,0.4,0.2,0.6
		c0.1,0.2,0.4,0.4,0.9,0.4h2.3v3.3v2c-0.6,0-1.1,0.2-1.6,0.6c-0.8,0.5-3.6,1.1-8.2,1.6C4,28.4,3.8,27,3.8,25.5
		c0-1.9,0.3-3.8,0.8-5.5C5.2,18.3,6,16.8,7,15.5s2.1-2.3,3.4-3s2.7-1.1,4.1-1.1s2.8,0.4,4.1,1.1c1.3,0.7,2.4,1.7,3.4,3
		s1.8,2.8,2.3,4.5c0.6,1.8,0.8,3.6,0.8,5.5c0,1.5-0.2,2.9-0.5,4.3c-2.8-0.2-6.1-1.2-6.2-1.2c-0.2-0.1-0.5-0.2-0.6-0.2
		C17.1,28.1,16.6,28,16,28h-0.1c-0.3-0.2-0.6-0.3-1.1-0.4v-2.1H14.9z M19.2,10.7c-0.2,0.1-0.4,0.2-0.7,0.2C18.3,11,18.1,11,18,11
		c-0.4,0-0.8-0.1-1-0.3l0,0l0,0c0.1-0.1,0.3-0.2,0.6-0.2c0.3-0.1,0.6-0.1,0.9,0C18.7,10.5,19,10.6,19.2,10.7L19.2,10.7L19.2,10.7
		 M19.6,11.9L19.6,11.9L19.6,11.9C19.5,12,19.3,12,19.1,12H19c-0.5,0-0.9-0.2-1.4-0.5l0,0l0,0c0.2-0.1,0.4-0.1,0.6-0.1
		C18.8,11.3,19.3,11.5,19.6,11.9 M17.4,10.1c-0.2,0.1-0.5,0.2-1,0.3c-0.1,0-0.1,0.1-0.1,0.1c0,0.1,0,0.1,0.1,0.2
		c0,0,0.4,0.3,0.7,0.6l0,0l0,0c-0.5,0-1.3-0.1-1.9-0.9l0,0c0.1-0.1,0.3-0.2,0.5-0.3C16.1,9.9,16.7,9.9,17.4,10.1L17.4,10.1
		L17.4,10.1 M15.4,9.8c-0.2,0.1-0.5,0.3-0.9,0.5c-0.1,0-0.1,0.1-0.1,0.2c0,0.1,0,0.1,0.1,0.2c0,0,0.4,0.2,0.7,0.4l0,0l0,0
		c-0.1,0-0.3,0-0.4,0c-0.5,0-1.2-0.1-1.7-0.5l0,0c0.1-0.1,0.2-0.3,0.5-0.4C14,9.8,14.6,9.7,15.4,9.8L15.4,9.8L15.4,9.8 M13.2,9.8
		c-0.1,0.2-0.4,0.4-0.9,0.6c-0.1,0-0.1,0.1-0.1,0.2c0,0.1,0.1,0.1,0.1,0.1s0.4,0.1,0.8,0.3l0,0l0,0c-0.2,0.1-0.4,0.1-0.5,0.1
		c-0.2,0-0.4,0.1-0.6,0.1c-0.3,0-0.7,0-1-0.2l0,0c0.1-0.1,0.2-0.3,0.3-0.5C11.9,10.2,12.5,9.9,13.2,9.8L13.2,9.8L13.2,9.8
		 M10.5,11.1c-0.1,0-0.1,0.1,0,0.2c0,0.1,0.1,0.1,0.2,0.1l0,0c0,0,0.2,0,0.4,0s0.3,0.1,0.4,0.1l0,0l0,0c-0.2,0.1-0.3,0.2-0.5,0.2
		c-0.4,0.1-0.7,0.2-1,0.2c-0.2,0-0.4,0-0.6-0.1l0,0c0.1-0.3,0.4-1.2,1.9-1.7l0,0l0,0C11.2,10.4,10.9,10.7,10.5,11.1 M25.6,20
		c0-0.6,0.2-1,0.4-1.3l0,0l0,0c0.1,0.4,0.2,0.7,0.2,1s0,0.6-0.1,0.9s-0.3,0.6-0.3,0.6l0,0l0,0c-0.4-0.3-0.7-0.7-1-1.2
		c-0.1-0.2-0.1-0.4-0.2-0.5l0,0l0,0c0.4,0.2,0.7,0.5,0.7,0.6c0,0,0.1,0.1,0.2,0C25.5,20.1,25.6,20,25.6,20 M24.9,18.1
		c0-0.6,0.1-1,0.3-1.3l0,0l0,0c0.2,0.4,0.3,0.7,0.3,1s0,0.6,0,0.9c-0.1,0.3-0.2,0.6-0.3,0.7l0,0l0,0c-0.4-0.2-0.8-0.6-1.1-1.1
		C24,18.1,24,18,23.9,17.8l0,0l0,0c0.4,0.2,0.7,0.5,0.7,0.5c0.1,0,0.1,0.1,0.2,0C24.9,18.3,24.9,18.2,24.9,18.1 M24,16.6L24,16.6
		c0.1,0,0.1-0.1,0.1-0.2c-0.1-0.6,0-1,0.1-1.3l0,0l0,0c0.2,0.3,0.3,0.7,0.4,1s0.1,0.6,0.1,0.9s-0.1,0.6-0.2,0.7l0,0l0,0
		c-0.5-0.2-0.9-0.5-1.2-1c-0.1-0.2-0.2-0.3-0.3-0.5l0,0l0,0c0.4,0.1,0.8,0.4,0.8,0.4C23.9,16.6,24,16.6,24,16.6 M22.8,15
		c0.1,0,0.1,0,0.2,0s0.1-0.1,0.1-0.2c-0.2-0.5-0.1-1-0.1-1.3l0,0l0,0c0.2,0.3,0.4,0.6,0.6,0.9c0.1,0.3,0.2,0.6,0.2,0.9
		c0,0.3,0,0.6-0.1,0.7l0,0l0,0c-0.5-0.1-0.9-0.4-1.4-0.8c-0.1-0.1-0.3-0.3-0.4-0.5l0,0l0,0C22.4,14.7,22.8,15,22.8,15 M21.5,13.6
		c0.1,0,0.1,0,0.2,0c0-0.1,0.1-0.1,0-0.2c-0.3-0.5-0.3-1-0.3-1.3l0,0l0,0c0.3,0.2,0.5,0.5,0.7,0.8s0.3,0.6,0.4,0.9
		c0.1,0.3,0.1,0.6,0,0.7l0,0l0,0c-0.6,0-1.1-0.3-1.4-0.6c-0.2-0.1-0.3-0.3-0.5-0.4l0,0l0,0c0,0,0,0,0.1,0
		C21.1,13.4,21.5,13.6,21.5,13.6 M21,12.3c0.1,0.3,0.1,0.6,0.1,0.8l0,0H21c-0.7,0-1.5-0.5-1.9-0.7l0,0l0,0c0.4-0.1,0.8,0,0.8,0
		c0.1,0,0.1,0,0.2-0.1c0-0.1,0-0.1,0-0.2c-0.3-0.3-0.4-0.7-0.5-1l0,0l0,0C20.4,11.3,20.8,11.7,21,12.3 M8.7,10.3
		C8.7,10.3,8.8,10.2,8.7,10.3C9.2,10.1,9.6,10,9.8,10c0.4-0.1,0.8-0.3,0.8-0.3s0.1-0.1,0-0.1c0,0,0-0.1-0.1-0.1l-2-0.3l2-0.3
		c0.1,0,0.1-0.1,0.1-0.1c0-0.1,0-0.1-0.1-0.1c0,0-0.4-0.1-0.9-0.3C9.5,8.3,9.4,8.3,9.3,8.2C9.1,8.1,9,8,8.7,8h0.1
		c0.4,0,0.8,0.1,1,0.1c0.4,0.1,0.8,0,0.8,0s0.1,0,0.1-0.1c0,0,0-0.1-0.1-0.1L9,6.9l1.9,0.5c0.1,0,0.1,0,0.1-0.1s0-0.1,0-0.1
		S10.6,7,10.3,6.6c-0.1-0.1-0.2-0.2-0.2-0.3C9.9,6.1,9.8,6,9.6,5.8h0.1c0.4,0.2,0.7,0.4,0.9,0.5c0.4,0.2,0.7,0.3,0.8,0.3h0.1V6.5
		l-1.2-1.6l1.6,1.2H12V6c0,0-0.3-0.4-0.4-0.8c0-0.1-0.1-0.3-0.1-0.4c-0.1-0.2-0.1-0.4-0.2-0.6c0,0,0,0.1,0.1,0.1
		c0.3,0.3,0.5,0.6,0.6,0.8c0.3,0.4,0.5,0.6,0.6,0.6h0.1c0,0,0.1-0.1,0-0.1l-0.5-1.9l1,1.7c0,0,0.1,0.1,0.1,0c0.1,0,0.1-0.1,0.1-0.1
		s-0.1-0.4-0.1-0.9c0-0.1,0-0.3,0-0.4c0-0.2,0-0.4,0-0.6v0.1c0.1,0.4,0.2,0.8,0.3,1C13.8,4.9,14,5.2,14,5.2l0.1,0.1
		c0,0,0.1,0,0.1-0.1l0.3-1.9l0.3,1.9c0,0.1,0.1,0.1,0.1,0.1s0.1,0,0.1-0.1c0,0,0.1-0.4,0.3-0.9c0.1-0.1,0.1-0.2,0.2-0.3
		c0.1-0.2,0.2-0.3,0.3-0.6v0.1c0,0.4-0.1,0.8-0.1,1c-0.1,0.4,0,0.8,0,0.8s0,0.1,0.1,0.1c0,0,0.1,0,0.1-0.1l1-1.7l-0.5,1.9
		c0,0.1,0,0.1,0.1,0.1s0.1,0,0.1,0s0.2-0.4,0.6-0.7c0.1-0.1,0.2-0.2,0.3-0.3c0.2-0.1,0.3-0.2,0.5-0.4v0.1c-0.2,0.4-0.4,0.7-0.5,0.9
		C17.1,5.6,17,6,17,6v0.1h0.1l1.6-1.2l-1.2,1.6v0.1h0.1c0,0,0.3-0.3,0.8-0.4c0.1,0,0.2-0.1,0.4-0.1C19,6,19.2,6,19.4,5.9
		c0,0,0,0-0.1,0.1c-0.3,0.3-0.6,0.5-0.8,0.6C18.2,6.9,18,7.2,18,7.2v0.1c0,0,0.1,0.1,0.1,0L20,6.9l-1.7,1c0,0-0.1,0.1,0,0.1
		c0,0.1,0.1,0.1,0.1,0.1S18.8,8,19.3,8c0.1,0,0.3,0,0.4,0c0.2,0,0.4,0,0.6,0h-0.1c-0.4,0.1-0.8,0.2-1,0.3c-0.4,0.1-0.8,0.3-0.8,0.3
		s-0.1,0.1,0,0.1c0,0,0,0.1,0.1,0.1l2,0.3l-2,0.3c-0.1,0-0.1,0.1-0.1,0.1s0,0.1,0.1,0.1c0,0,0.4,0.1,0.9,0.3
		c0.1,0.1,0.2,0.1,0.3,0.2c0.2,0.1,0.3,0.2,0.6,0.3h-0.1c-0.4,0-0.8-0.1-1-0.1h-0.1c-0.4-0.2-0.7-0.2-1.1-0.2l0,0
		c0-0.1-0.1-0.1-0.1-0.2c-0.5-0.2-1-0.3-1.5-0.3c-0.2,0-0.3,0-0.5,0c0,0,0,0,0-0.1s-0.1-0.1-0.2-0.1c-0.6-0.1-1.1-0.1-1.5,0
		c-0.2,0-0.3,0.1-0.5,0.1c0,0,0-0.1-0.1-0.1c0-0.1-0.1-0.1-0.2-0.1c-0.6,0-1.1,0.2-1.5,0.3c-0.1,0-0.2,0.1-0.3,0.2
		c0-0.1,0-0.1-0.1-0.1s-0.1-0.1-0.2,0c-0.5,0.2-1,0.4-1.4,0.6l0,0c-0.1,0-0.2,0-0.3,0s-0.4,0-0.4,0C9.1,10.3,8.9,10.3,8.7,10.3
		 M9.2,10.8L9.2,10.8C9.3,10.8,9.3,10.8,9.2,10.8c0,0.3-0.1,0.8-0.4,1.3c0,0.1,0,0.1,0,0.2c0,0.1,0.1,0.1,0.2,0.1
		c0,0,0.4-0.1,0.9-0.1l0,0l0,0c-0.4,0.3-1.1,0.8-1.9,0.8H7.9l0,0C7.9,12.7,8,11.8,9.2,10.8 M6.5,13.7c0.1-0.3,0.2-0.6,0.4-0.9
		c0.2-0.3,0.4-0.5,0.7-0.8l0,0l0,0c0,0.3,0,0.8-0.3,1.3c0,0.1,0,0.1,0,0.2c0,0.1,0.1,0.1,0.2,0c0,0,0.4-0.1,0.8-0.2l0,0l0,0
		c-0.2,0.2-0.3,0.3-0.5,0.4C7.5,14,7,14.3,6.5,14.3c0,0,0,0-0.1,0l0,0C6.5,14.3,6.5,14,6.5,13.7 M6.1,13.5L6.1,13.5L6.1,13.5
		c0.1,0.3,0.1,0.8-0.1,1.3c0,0.1,0,0.1,0.1,0.2c0.1,0,0.1,0,0.2,0c0,0,0.4-0.2,0.8-0.3l0,0l0,0c-0.3,0.4-0.9,1.1-1.7,1.3l0,0l0,0
		C5.3,15.6,5.1,14.7,6.1,13.5 M4.4,16.1c0.1-0.3,0.3-0.6,0.5-1l0,0l0,0c0.1,0.3,0.1,0.7,0,1.3c0,0.1,0,0.1,0.1,0.2
		c0.1,0,0.1,0,0.2,0c0,0,0.3-0.3,0.8-0.4l0,0l0,0c-0.1,0.1-0.2,0.3-0.3,0.5c-0.4,0.5-0.8,0.8-1.3,0.9l0,0l0,0c0-0.1-0.1-0.3-0.2-0.7
		C4.2,16.7,4.3,16.4,4.4,16.1 M3.5,17.8c0-0.3,0.2-0.7,0.3-1l0,0l0,0c0.1,0.3,0.3,0.7,0.3,1.3c0,0.1,0,0.1,0.1,0.2
		c0.1,0,0.1,0,0.2,0c0,0,0.4-0.3,0.8-0.5l0,0l0,0c0,0.2-0.1,0.3-0.2,0.5c-0.3,0.5-0.6,0.9-1.2,1.2l0,0l0,0c-0.1-0.1-0.2-0.3-0.3-0.7
		C3.4,18.5,3.4,18.2,3.5,17.8 M2.9,18.7C2.9,18.7,3,18.7,2.9,18.7C3,18.7,3,18.7,2.9,18.7c0.2,0.2,0.4,0.7,0.4,1.3
		c0,0.1,0,0.1,0.1,0.1s0.1,0,0.2-0.1c0,0,0.3-0.4,0.7-0.6l0,0l0,0c0,0.2-0.1,0.3-0.1,0.5c-0.2,0.6-0.5,1-1,1.3l0,0l0,0
		c0,0-0.2-0.2-0.3-0.6c-0.1-0.3-0.1-0.6-0.1-0.9C2.8,19.4,2.8,19,2.9,18.7 M2.4,20.6L2.4,20.6L2.4,20.6c0.2,0.2,0.5,0.6,0.6,1.2
		c0,0.1,0.1,0.1,0.1,0.1c0.1,0,0.1,0,0.2-0.1c0,0,0.3-0.4,0.6-0.7l0,0l0,0c0,0.2,0,0.3-0.1,0.5c-0.1,0.6-0.4,1-0.8,1.4l0,0l0,0
		c-0.1-0.1-0.3-0.3-0.4-0.6c-0.1-0.3-0.2-0.6-0.3-0.9C2.3,21.3,2.3,21,2.4,20.6 M2.1,22.6L2.1,22.6C2.1,22.5,2.1,22.6,2.1,22.6
		c0.2,0.2,0.5,0.6,0.7,1.2c0,0.1,0.1,0.1,0.1,0.1c0.1,0,0.1,0,0.2-0.1c0,0,0.2-0.4,0.5-0.7l0,0l0,0c0,0.2,0,0.4,0,0.6
		c-0.1,0.6-0.3,1.1-0.7,1.4l0,0l0,0c-0.1-0.1-0.3-0.3-0.5-0.6c-0.1-0.3-0.2-0.6-0.3-0.9C2,23.3,2,22.9,2.1,22.6 M1.9,24.6L1.9,24.6
		L1.9,24.6C2,24.6,2,24.7,2,24.7c0.2,0.2,0.4,0.5,0.6,1c0,0.1,0.1,0.1,0.2,0.1c0.1,0,0.1-0.1,0.2-0.1c0,0,0.1-0.4,0.4-0.7l0,0l0,0
		c0,0.2,0.1,0.6,0,1c-0.1,0.5-0.3,0.8-0.6,1.1l0,0l0,0C2.5,26.8,1.8,26.2,1.9,24.6 M1.8,26.6C1.8,26.6,1.9,26.6,1.8,26.6
		c0.1,0,0.1,0.1,0.1,0.1c0.2,0.2,0.5,0.5,0.7,0.9c0,0.1,0.1,0.1,0.2,0.1l0,0c0.1,0,0.1,0,0.2-0.1c0,0,0.2-0.4,0.5-0.8l0,0l0,0
		C3.6,27.2,3.7,28,3,28.9l0,0l0,0C2.7,28.8,1.9,28.1,1.8,26.6L1.8,26.6 M1.9,28.7C1.9,28.6,1.9,28.6,1.9,28.7
		C2,28.6,2,28.6,1.9,28.7c0.3,0.1,0.7,0.4,1,0.9c0,0.1,0.1,0.1,0.2,0.1c0.1,0,0.1-0.1,0.1-0.1l0,0l0,0c0,0,0.1-0.5,0.3-0.9l0,0l0,0
		c0.1,0.2,0.1,0.3,0.2,0.5c0.1,0.6,0,1.1-0.3,1.6l0,0l0,0c-0.1,0-0.4-0.1-0.6-0.4c-0.2-0.2-0.4-0.4-0.6-0.7C2.1,29.4,2,29,1.9,28.7
		 M2.4,30.6L2.4,30.6L2.4,30.6c0.1,0,0.1,0,0.2,0.1c0.2,0.1,0.6,0.3,0.9,0.7c0,0.1,0.1,0.1,0.2,0.1c0.1,0,0.1-0.1,0.1-0.1
		s0.1-0.5,0.3-0.9l0,0l0,0l0,0c0.2,0.4,0.5,1.3,0.1,2.1l0,0l0,0C3.8,32.5,2.9,32.1,2.4,30.6 M3.6,33.4c-0.2-0.3-0.4-0.6-0.5-0.9l0,0
		l0,0c0.1,0,0.1,0,0.2,0.1c0.3,0.1,0.6,0.3,1,0.6c0,0,0.1,0.1,0.2,0c0.1,0,0.1-0.1,0.1-0.1s0-0.5,0.2-0.9l0,0l0,0
		C4.9,32.4,5,32.5,5,32.7c0.2,0.6,0.2,1.1,0.1,1.6l0,0l0,0c-0.1,0-0.4-0.1-0.7-0.3C4,33.9,3.8,33.7,3.6,33.4 M3.8,34.3L3.8,34.3
		C3.9,34.3,3.9,34.3,3.8,34.3c0.3,0,0.8,0.2,1.2,0.5c0.1,0,0.1,0,0.2,0s0.1-0.1,0.1-0.2c0,0,0-0.4,0-0.9l0,0l0,0
		c0.1,0.2,0.2,0.3,0.3,0.5c0.2,0.4,0.4,0.9,0.3,1.5l0,0c-0.1,0-0.4,0-0.7-0.2c-0.3-0.1-0.5-0.3-0.8-0.5C4.3,34.9,4,34.6,3.8,34.3
		 M7.7,37.6c0,0-0.2-0.4-0.2-0.8l0,0l0,0c0.4,0.3,1,1,1,1.9l0,0c0,0-0.1,0-0.3,0c-0.1,0-0.2,0-0.4,0c-0.6-0.1-1.1-0.4-1.7-1l0,0l0,0
		c0.3,0,0.8,0,1.3,0.2c0.1,0,0.1,0,0.2,0C7.7,37.8,7.7,37.7,7.7,37.6 M6.2,36.4c0.1,0,0.1,0,0.2,0s0.1-0.1,0.1-0.2
		c0,0-0.1-0.4-0.1-0.8l0,0l0,0c0.3,0.4,0.8,1.1,0.8,1.9l0,0c0,0,0,0-0.1,0s-0.4,0-0.6-0.1c-0.3-0.1-0.6-0.2-0.8-0.5
		c-0.3-0.2-0.5-0.5-0.7-0.8l0,0l0,0C5.2,36,5.7,36.1,6.2,36.4 M12.6,32.1c-0.1,0-0.1,0.1-0.2,0.1c-0.4,0.2-0.6,0.5-0.7,0.8h-0.1
		c-0.3-0.1-0.3-0.2-0.3-0.3s0.1-0.3,0.3-0.5s0.4-0.3,0.6-0.3c0.1,0,0.1,0,0.2,0C12.5,32,12.6,32,12.6,32.1L12.6,32.1 M13,33.5
		c-0.1,0-0.4,0-0.5,0c0,0-0.1-0.1-0.1-0.2c0-0.2,0.3-0.5,0.5-0.6c0.3-0.2,0.5-0.3,0.6-0.3s0.1,0,0.2,0.1c0.1,0,0.1,0.1,0.1,0.1
		c0,0.1-0.1,0.2-0.2,0.2C13.3,33,13.1,33.2,13,33.5 M14.4,33.5c-0.1,0.1-0.5,0.3-0.7,0.3c0,0-0.1,0-0.2-0.1c0.1-0.2,0.4-0.4,0.6-0.6
		c0.3-0.2,0.4-0.1,0.5-0.1c0.1,0.1,0.1,0.1,0.1,0.2C14.6,33.3,14.5,33.4,14.4,33.5L14.4,33.5 M11.4,31.7l-0.1,0.1
		c-0.2,0.2-0.3,0.3-0.4,0.6h-0.1c-0.2,0-0.3-0.1-0.3-0.1s0-0.1,0.1-0.2c0.2-0.2,0.5-0.4,0.7-0.4C11.3,31.7,11.3,31.7,11.4,31.7
		C11.3,31.7,11.3,31.7,11.4,31.7C11.3,31.7,11.4,31.7,11.4,31.7 M18.5,32c-0.1,0.1-0.2,0.1-0.4,0.1c-0.2-0.3-0.8-1-1.6-1.4
		c-0.1,0-0.1,0-0.2,0s-0.1,0.1-0.2,0.1c0,0.1,0,0.1,0,0.2s0.1,0.1,0.1,0.2c0.6,0.3,1.2,1,1.4,1.2c0,0,0,0.1-0.1,0.1
		c-0.1,0.1-0.3,0.2-0.5,0.2c-0.1-0.2-0.2-0.3-0.4-0.5c-0.2-0.3-0.7-0.6-0.7-0.6c-0.1,0-0.1-0.1-0.2,0c-0.1,0-0.1,0.1-0.2,0.1
		c0,0.1-0.1,0.1,0,0.2c0,0.1,0.1,0.1,0.1,0.2c0.1,0.1,0.5,0.3,0.6,0.5c0.2,0.2,0.3,0.3,0.3,0.4c0,0-0.1,0.1-0.1,0.2
		c-0.1,0.1-0.2,0.1-0.4,0.1c-0.1-0.2-0.2-0.4-0.5-0.8c-0.1-0.1-0.3-0.1-0.4,0c-0.1,0-0.1,0.1-0.1,0.2c0,0.1,0,0.1,0.1,0.2
		c0.2,0.2,0.3,0.4,0.4,0.6l-0.1,0.1c-0.1,0.1-0.3,0.1-0.4,0.1c0.1-0.1,0.1-0.2,0.1-0.3c0-0.2,0-0.4-0.2-0.6
		c-0.1-0.1-0.4-0.2-0.7-0.2c0-0.2-0.1-0.3-0.3-0.5c-0.3-0.2-0.5-0.3-0.9-0.2l0,0c0-0.1-0.2-0.3-0.4-0.4s-0.5-0.1-0.7-0.1
		c-0.2-0.2-0.5-0.2-0.6-0.2c-0.4,0-0.8,0.1-1.2,0.4c-1.6,0.8-3.6,1.8-4.4,2.1c-0.3-0.8-0.7-1.7-1-2.6c-0.1-0.2-0.2-0.5-0.2-0.8
		c2.3-0.3,4.2-0.5,5.5-0.8c1.4-0.3,2.3-0.6,2.8-0.9c0.5-0.4,0.9-0.6,1.4-0.5c0.1,0,0.2,0,0.3,0c-0.1,0-0.2,0.1-0.3,0.2
		c-0.2,0.2-0.4,0.3-0.5,0.4s-0.2,0.2-0.4,0.3c-0.1,0.1-0.2,0.1-0.4,0.2c-0.3,0.2-0.6,0.3-0.7,0.5c-0.1,0.2-0.1,0.4,0.1,0.7
		c0.2,0.3,0.6,0.3,1,0.3s0.8-0.2,1.1-0.3c0.1-0.1,0.2-0.1,0.3-0.2S15,30,15,30l0,0c0.3-0.1,0.6,0,1,0.1c0.3,0.1,0.7,0.3,1,0.5
		C17.7,31.1,18.3,31.7,18.5,32C18.6,31.9,18.6,32,18.5,32 M19.5,31.8c-0.2-0.2-0.4-0.3-0.5-0.4l0,0l0,0l0,0
		c-0.2-0.3-0.8-0.9-1.5-1.3c-0.5-0.3-1.5-0.9-2.4-0.7c-0.2,0-0.3,0.1-0.5,0.3c-0.1,0.1-0.2,0.1-0.3,0.2c-0.3,0.2-0.6,0.3-0.9,0.3
		c-0.3,0-0.4,0-0.5-0.1s-0.1-0.1,0-0.1c0.1-0.1,0.3-0.2,0.4-0.2c0.2-0.1,0.3-0.2,0.4-0.2c0.2-0.1,0.3-0.2,0.4-0.3
		c0.1-0.1,0.2-0.2,0.4-0.3c0.3-0.2,0.6-0.2,1-0.2l0,0c0.1,0,0.1,0,0.2,0c0.1,0,0.1,0,0.2,0c0.5,0,0.9,0.1,1.6,0.4
		c0.2,0.1,0.4,0.1,0.7,0.2c0,0,0.9,0.3,2.2,0.6c1.1,0.3,2.6,0.6,4.1,0.7c-0.1,0.2-0.1,0.5-0.2,0.7c-0.3,1-0.7,1.9-1.1,2.7
		C22.5,33.5,20.7,32.7,19.5,31.8 M22.9,37.7c-0.7,0.7-1.3,0.9-1.7,1c-0.2,0-0.3,0-0.4,0s-0.2,0-0.3,0l0,0c0-0.5,0.2-1,0.6-1.5
		c0.1-0.1,0.3-0.3,0.4-0.4l0,0l0,0c0,0.4-0.2,0.8-0.2,0.8c0,0.1,0,0.1,0,0.2c0,0,0.1,0.1,0.2,0C22.1,37.6,22.6,37.6,22.9,37.7
		L22.9,37.7L22.9,37.7 M24.2,36c-0.2,0.3-0.5,0.6-0.7,0.8c-0.3,0.2-0.5,0.4-0.8,0.5s-0.5,0.1-0.6,0.1H22l0,0c0-0.5,0.1-1,0.4-1.5
		c0.1-0.2,0.2-0.3,0.3-0.5l0,0l0,0c0,0.4,0,0.9,0,0.9c0,0.1,0,0.1,0.1,0.2c0.1,0,0.1,0,0.2,0C23.4,36.1,23.9,36,24.2,36L24.2,36
		L24.2,36 M24.6,35.2c-0.2,0.2-0.5,0.4-0.8,0.5s-0.6,0.2-0.7,0.2l0,0c-0.1-0.5,0-1,0.3-1.5c0.1-0.2,0.2-0.3,0.3-0.5l0,0l0,0
		c0.1,0.4,0,0.9,0,0.9c0,0.1,0,0.1,0.1,0.2c0.1,0,0.1,0,0.2,0c0.5-0.4,0.9-0.5,1.2-0.6l0,0l0,0C25,34.6,24.8,34.9,24.6,35.2
		 M25.5,33.4c-0.2,0.3-0.4,0.5-0.7,0.6c-0.3,0.2-0.5,0.2-0.7,0.3l0,0l0,0c-0.1-0.5-0.1-1,0.1-1.6c0.1-0.2,0.1-0.3,0.2-0.5l0,0l0,0
		c0.1,0.4,0.2,0.9,0.2,0.9c0,0.1,0,0.1,0.1,0.1s0.1,0,0.2,0c0.4-0.4,0.7-0.6,1-0.7c0.1,0,0.1,0,0.2-0.1l0,0l0,0
		C25.9,32.8,25.7,33.1,25.5,33.4 M26.2,31.5c-0.2,0.3-0.4,0.5-0.6,0.7c-0.3,0.2-0.5,0.3-0.6,0.3l0,0l0,0c-0.2-0.6-0.2-1.2-0.1-1.6
		c0-0.2,0.1-0.4,0.2-0.6l0,0l0,0l0,0c0.2,0.4,0.2,0.9,0.2,0.9c0,0.1,0.1,0.1,0.1,0.1c0.1,0,0.1,0,0.2-0.1c0.4-0.5,0.8-0.7,1.1-0.8
		l0,0l0,0C26.5,30.9,26.4,31.2,26.2,31.5 M26.7,29.6c-0.1,0.3-0.3,0.6-0.6,0.8c-0.2,0.2-0.5,0.3-0.6,0.4l0,0l0,0
		c-0.3-0.5-0.3-1-0.3-1.6c0-0.2,0.1-0.4,0.1-0.6l0,0l0,0c0.2,0.4,0.3,0.9,0.3,0.9c0,0.1,0.1,0.1,0.1,0.1c0.1,0,0.1,0,0.2-0.1
		c0.3-0.5,0.7-0.8,1-0.9l0,0l0,0C26.9,28.9,26.8,29.3,26.7,29.6"/>
	<path class="st3" d="M18.1,10c0.4,0,0.7,0.1,1.1,0.2h0.1c0.2,0,0.6,0.1,1,0.1h0.1c-0.2-0.1-0.4-0.2-0.6-0.3
		c-0.1-0.1-0.2-0.1-0.3-0.2c-0.4-0.2-0.8-0.3-0.9-0.3s-0.1-0.1-0.1-0.1c0-0.1,0-0.1,0.1-0.1l2-0.3l-2-0.3c0,0-0.1,0-0.1-0.1
		c0,0,0-0.1,0.1-0.1c0,0,0.3-0.2,0.8-0.3c0.2,0,0.6-0.1,1-0.3h0.1c-0.2,0-0.4,0-0.6,0c-0.1,0-0.2,0-0.4,0C19,7.9,18.6,8,18.6,8
		c-0.1,0-0.1,0-0.1-0.1s0-0.1,0-0.1l1.7-1l-1.9,0.5h-0.1V7.2c0,0,0.2-0.3,0.6-0.6C19,6.5,19.3,6.3,19.6,6c0,0,0.1,0,0.1-0.1
		c-0.2,0.1-0.4,0.2-0.6,0.2c-0.1,0-0.2,0.1-0.4,0.1c-0.5,0.2-0.8,0.4-0.8,0.4h-0.1V6.5L19,4.9l-1.6,1.2h-0.1c0,0-0.1-0.1,0-0.1
		c0,0,0.1-0.4,0.3-0.8c0.1-0.2,0.3-0.5,0.5-0.9V4.2c-0.1,0.2-0.3,0.3-0.4,0.4s-0.2,0.2-0.3,0.3c-0.3,0.3-0.6,0.7-0.6,0.7
		s-0.1,0.1-0.1,0c-0.1,0-0.1-0.1-0.1-0.1l0.5-1.9l-1,1.7L16,5.4c0,0-0.1,0-0.1-0.1c0,0-0.1-0.4,0-0.8c0-0.2,0.1-0.6,0.1-1V3.4
		c-0.1,0.2-0.2,0.4-0.3,0.6c-0.1,0.1-0.1,0.2-0.2,0.3C15.1,4.7,15,5.1,15,5.1c0,0.1-0.1,0.1-0.1,0.1c-0.1,0-0.1,0-0.1-0.1l-0.3-1.9
		l-0.3,1.9c0,0,0,0.1-0.1,0.1c0,0-0.1,0-0.1-0.1c0,0-0.2-0.3-0.3-0.8c0-0.2-0.1-0.6-0.3-1V3.2c0,0.2,0,0.4,0,0.6c0,0.1,0,0.2,0,0.4
		c0,0.5,0.1,0.9,0.1,0.9c0,0.1,0,0.1-0.1,0.1s-0.1,0-0.1,0l-1-1.7l0.5,1.9v0.1h-0.1c0,0-0.3-0.2-0.6-0.6c-0.1-0.2-0.3-0.5-0.6-0.8
		c0,0,0-0.1-0.1-0.1c0.1,0.2,0.2,0.4,0.2,0.6c0,0.1,0.1,0.2,0.1,0.4C11.8,5.6,12,5.9,12,6v0.1h-0.1l-1.6-1.2l1.2,1.6v0.1
		c0,0-0.1,0.1-0.1,0c0,0-0.4-0.1-0.8-0.3C10.4,6.2,10.1,6,9.7,5.8H9.6C9.8,6,9.9,6.1,10.1,6.3c0.1,0.1,0.2,0.2,0.3,0.3
		C10.6,6.9,11,7.2,11,7.2s0.1,0.1,0,0.1c0,0.1-0.1,0.1-0.1,0.1L9,6.9l1.7,1L10.8,8c0,0,0,0.1-0.1,0.1c0,0-0.4,0.1-0.8,0
		C9.6,8.1,9.3,8,8.8,8H8.7C9,8,9.1,8.1,9.3,8.2c0.1,0.1,0.2,0.1,0.3,0.2c0.4,0.2,0.9,0.3,0.9,0.3c0.1,0,0.1,0.1,0.1,0.1
		s0,0.1-0.1,0.1l-2,0.3l2,0.3c0,0,0.1,0,0.1,0.1v0.1c0,0-0.3,0.2-0.8,0.3c-0.2,0-0.6,0.1-1,0.3H8.7c0.2,0,0.4,0,0.6,0
		c0,0,0.3,0,0.4,0c0.1,0,0.2,0,0.3,0l0,0c0.4-0.3,0.9-0.5,1.4-0.6c0.1,0,0.1,0,0.2,0l0.1,0.1c0.1-0.1,0.2-0.1,0.3-0.2
		c0.4-0.2,0.9-0.3,1.5-0.3c0.1,0,0.1,0,0.2,0.1l0.1,0.1c0.2-0.1,0.3-0.1,0.5-0.1c0.4-0.1,1-0.1,1.5,0c0.1,0,0.1,0.1,0.2,0.1
		c0,0,0,0,0,0.1c0.2,0,0.3,0,0.5,0c0.5,0,1,0.1,1.5,0.3C18,9.9,18,9.9,18.1,10L18.1,10"/>
	<path class="st2" d="M15.2,7.5c1.9-0.3,2.1,0.2,2.1,0.2s0.1,0.1,0.2,0.1c0,0,0.1,0,0.1-0.2c0,0-0.2-0.6-1.2-0.7c0,0-0.5-0.1-1.1,0
		c-0.2,0-0.2,0.4-0.2,0.4C15,7.6,15.2,7.5,15.2,7.5"/>
	<path class="st2" d="M13.6,7.9c-0.2-0.1-0.8-0.1-0.8-0.1c-0.9,0-1.1,0.6-1.1,0.6c-0.1,0.2,0.1,0.2,0.1,0.2C12,8.6,12,8.5,12,8.5
		s0-0.2,0.4-0.2c0,0.1,0,0.1,0,0.2c0,0.2,0.2,0.4,0.4,0.4s0.4-0.2,0.4-0.4c0-0.1,0-0.1,0-0.2c0.1,0,0.2,0.1,0.3,0.3
		c0,0.1,0.1,0.1,0.3,0.1C14,8.6,14,8.5,14,8.5C13.9,8,13.6,7.9,13.6,7.9"/>
	<path class="st2" d="M15.2,8.6c0.2,0,0.2,0,0.3-0.1c0.1-0.2,0.2-0.2,0.3-0.3c0,0.1,0,0.1,0,0.2c0,0.2,0.2,0.4,0.4,0.4
		s0.4-0.2,0.4-0.4c0-0.1,0-0.1,0-0.2C16.9,8.3,17,8.5,17,8.5s0.1,0.1,0.2,0.1c0,0,0.2,0,0.1-0.2c0,0-0.2-0.5-1.1-0.6
		c0,0-0.5,0-0.8,0.1c0,0-0.3,0.1-0.4,0.6C15,8.5,15,8.6,15.2,8.6"/>
	<path class="st2" d="M11.5,7.9c0.2,0,0.2-0.1,0.2-0.1s0.2-0.5,2.1-0.2c0,0,0.2,0,0.1-0.1c0,0,0-0.4-0.2-0.4c-0.6-0.1-1.1,0-1.1,0
		c-1,0.1-1.2,0.7-1.2,0.7C11.4,7.9,11.5,7.9,11.5,7.9"/>
	<path class="st4" d="M22.9,37.7c-0.3,0-0.8,0-1.3,0.2c-0.1,0-0.1,0-0.2,0c0,0-0.1-0.1,0-0.2c0,0,0.2-0.4,0.2-0.8l0,0l0,0
		c-0.2,0.1-0.3,0.3-0.4,0.4c-0.4,0.5-0.6,1-0.6,1.5l0,0c0.1,0,0.1,0,0.3,0c0.1,0,0.2,0,0.4,0C21.6,38.6,22.2,38.4,22.9,37.7
		L22.9,37.7L22.9,37.7"/>
	<path class="st4" d="M7.5,36.8L7.5,36.8L7.5,36.8c0,0.4,0.2,0.8,0.2,0.8c0,0.1,0,0.1,0,0.2c0,0-0.1,0.1-0.2,0
		c-0.6-0.2-1-0.2-1.3-0.2l0,0l0,0c0.6,0.5,1.1,0.9,1.7,1c0.2,0,0.3,0,0.4,0c0.1,0,0.2,0,0.3,0l0,0C8.5,37.8,7.9,37.1,7.5,36.8"/>
	<path class="st4" d="M24.2,36c-0.3,0-0.8,0.1-1.3,0.4c-0.1,0-0.1,0-0.2,0s-0.1-0.1-0.1-0.2c0,0,0.1-0.4,0-0.9l0,0l0,0
		c-0.1,0.1-0.2,0.3-0.3,0.5c-0.3,0.5-0.5,1-0.4,1.5l0,0c0,0,0,0,0.1,0s0.4,0,0.6-0.1c0.3-0.1,0.6-0.2,0.8-0.5
		C23.7,36.6,24,36.3,24.2,36L24.2,36L24.2,36"/>
	<path class="st4" d="M25.2,34.3c-0.3,0.1-0.8,0.2-1.2,0.6c-0.1,0-0.1,0-0.2,0s-0.1-0.1-0.1-0.2c0,0,0-0.4,0-0.9l0,0l0,0
		c-0.1,0.2-0.2,0.3-0.3,0.5c-0.3,0.5-0.4,1.1-0.3,1.5l0,0c0.1,0,0.4,0,0.7-0.2c0.3-0.1,0.5-0.3,0.8-0.5C24.8,34.9,25,34.6,25.2,34.3
		L25.2,34.3L25.2,34.3"/>
	<path class="st4" d="M26,32.4c-0.1,0-0.1,0-0.2,0.1c-0.2,0.1-0.6,0.3-1,0.7c0,0-0.1,0.1-0.2,0c-0.1,0-0.1-0.1-0.1-0.1
		s0-0.4-0.2-0.9l0,0l0,0c-0.1,0.2-0.2,0.3-0.2,0.5c-0.2,0.6-0.2,1.1-0.1,1.6l0,0l0,0c0.1,0,0.4-0.1,0.7-0.3c0.3-0.2,0.5-0.4,0.7-0.6
		C25.7,33.1,25.9,32.8,26,32.4L26,32.4L26,32.4"/>
	<path class="st4" d="M26.6,30.5c-0.3,0.1-0.7,0.3-1.1,0.8c0,0.1-0.1,0.1-0.2,0.1s-0.1-0.1-0.1-0.1s-0.1-0.5-0.2-0.9l0,0l0,0
		c-0.1,0.2-0.1,0.4-0.2,0.6c-0.1,0.4-0.2,1,0.1,1.6l0,0l0,0c0.1,0,0.4-0.1,0.6-0.3s0.5-0.4,0.6-0.7C26.4,31.2,26.5,30.9,26.6,30.5
		C26.6,30.6,26.6,30.5,26.6,30.5L26.6,30.5"/>
	<path class="st4" d="M27,28.6c-0.3,0.1-0.7,0.4-1,0.9c0,0.1-0.1,0.1-0.2,0.1s-0.1-0.1-0.1-0.1s-0.1-0.5-0.3-0.9l0,0l0,0
		c-0.1,0.2-0.1,0.4-0.1,0.6c-0.1,0.6,0,1.1,0.3,1.6l0,0l0,0c0.1,0,0.4-0.2,0.6-0.4c0.2-0.2,0.4-0.5,0.6-0.8
		C26.8,29.3,26.9,28.9,27,28.6L27,28.6L27,28.6"/>
	<path class="st4" d="M26.3,27.6c0,0.1-0.1,0.1-0.2,0.1s-0.1,0-0.1-0.1c0,0-0.2-0.4-0.4-0.8l0,0l0,0c0,0.2-0.1,0.4-0.1,0.6
		c0,0.6,0.1,1.1,0.4,1.5l0,0l0,0c0.1,0,0.3-0.2,0.6-0.5c0.2-0.2,0.3-0.5,0.5-0.8c0.1-0.3,0.2-0.7,0.2-1l0,0l0,0
		C26.9,26.7,26.6,27.1,26.3,27.6"/>
	<path class="st4" d="M26.3,25.8c-0.1,0-0.1,0-0.2-0.1c0,0-0.2-0.4-0.5-0.7l0,0l0,0c0,0.5,0,1.4,0.6,2l0,0l0,0
		c0.1-0.1,0.3-0.2,0.5-0.5c0.2-0.2,0.3-0.5,0.4-0.9c0.1-0.3,0.1-0.7,0.1-1.1l0,0l0,0c-0.2,0.2-0.5,0.6-0.7,1.1
		C26.4,25.7,26.3,25.8,26.3,25.8"/>
	<path class="st4" d="M26.2,23.8c-0.1,0-0.1,0-0.2-0.1c0,0-0.2-0.4-0.5-0.6l0,0l0,0c0,0.5,0.2,1.5,0.7,1.9l0,0l0,0
		c0.1-0.1,0.3-0.3,0.5-0.6c0.1-0.3,0.2-0.6,0.3-0.9c0-0.3,0-0.7,0-1.1l0,0l0,0c-0.2,0.2-0.5,0.6-0.6,1.2
		C26.3,23.8,26.2,23.8,26.2,23.8"/>
	<path class="st4" d="M25.9,22c-0.1,0-0.1,0-0.2-0.1c0,0-0.3-0.4-0.6-0.6l0,0l0,0c0,0.2,0.1,0.4,0.1,0.6c0.1,0.4,0.3,1,0.8,1.3l0,0
		l0,0c0.1-0.1,0.3-0.3,0.4-0.6c0.1-0.3,0.2-0.6,0.3-0.9c0-0.3,0-0.7,0-1.1l0,0l0,0c-0.2,0.2-0.5,0.6-0.6,1.2
		C26,21.9,26,21.9,25.9,22"/>
	<path class="st4" d="M25.5,20.1c-0.1,0-0.1,0-0.2,0c0,0-0.3-0.3-0.7-0.6l0,0l0,0c0,0.2,0.1,0.4,0.2,0.5c0.2,0.6,0.5,1,1,1.2l0,0
		l0,0c0.1-0.1,0.2-0.3,0.3-0.6c0.1-0.3,0.1-0.6,0.1-0.9s-0.1-0.7-0.2-1l0,0l0,0c-0.2,0.3-0.4,0.7-0.4,1.3
		C25.6,20,25.5,20.1,25.5,20.1"/>
	<path class="st4" d="M24.7,18.3c0,0-0.3-0.3-0.7-0.5l0,0l0,0c0.1,0.2,0.1,0.4,0.2,0.5c0.3,0.5,0.6,0.9,1.1,1.1l0,0l0,0
		c0.1-0.1,0.2-0.3,0.3-0.7c0.1-0.3,0.1-0.6,0-0.9c0-0.3-0.1-0.7-0.3-1l0,0l0,0c-0.1,0.3-0.3,0.7-0.3,1.3c0,0.1,0,0.1-0.1,0.2
		C24.8,18.3,24.7,18.3,24.7,18.3"/>
	<path class="st4" d="M23,16.1C23,16.2,23,16.2,23,16.1c0.1,0.2,0.2,0.4,0.3,0.5c0.3,0.5,0.7,0.8,1.2,1l0,0l0,0
		c0-0.1,0.2-0.3,0.2-0.7c0-0.3,0-0.6-0.1-0.9c-0.1-0.3-0.2-0.6-0.4-1l0,0l0,0c-0.1,0.3-0.2,0.7-0.1,1.3c0,0.1,0,0.1-0.1,0.2
		c-0.1,0-0.1,0-0.2,0C23.8,16.6,23.5,16.3,23,16.1L23,16.1"/>
	<path class="st4" d="M21.9,14.7L21.9,14.7c0.1,0.2,0.2,0.3,0.4,0.5c0.4,0.4,0.9,0.7,1.4,0.8l0,0l0,0c0-0.1,0.1-0.4,0.1-0.7
		s-0.1-0.6-0.2-0.9c-0.1-0.3-0.3-0.6-0.6-0.9l0,0l0,0c-0.1,0.3-0.1,0.8,0.1,1.3c0,0.1,0,0.1-0.1,0.2c-0.1,0-0.1,0-0.2,0
		C22.8,15,22.4,14.7,21.9,14.7L21.9,14.7"/>
	<path class="st4" d="M21.7,13.5c0,0.1-0.1,0.1-0.2,0c0,0-0.4-0.1-0.8-0.1c0,0,0,0-0.1,0l0,0l0,0c0.2,0.2,0.3,0.3,0.5,0.4
		c0.3,0.3,0.8,0.6,1.4,0.6l0,0l0,0c0-0.1,0-0.4,0-0.7c-0.1-0.3-0.2-0.6-0.4-0.9c-0.2-0.3-0.4-0.5-0.7-0.8l0,0l0,0
		c0,0.3,0,0.8,0.3,1.3C21.8,13.4,21.8,13.5,21.7,13.5"/>
	<path class="st4" d="M7.1,37.4L7.1,37.4C7.2,37.4,7.2,37.3,7.1,37.4c0.1-0.8-0.4-1.6-0.7-2l0,0l0,0c0,0.4,0.1,0.8,0.1,0.8
		c0,0.1,0,0.1-0.1,0.2c-0.1,0-0.1,0-0.2,0c-0.5-0.3-1-0.4-1.3-0.4l0,0l0,0c0.2,0.3,0.5,0.6,0.7,0.8c0.3,0.2,0.5,0.4,0.8,0.5
		C6.7,37.3,6.9,37.4,7.1,37.4"/>
	<path class="st4" d="M6,35.9L6,35.9L6,35.9c0.1-0.6-0.1-1.2-0.3-1.5c-0.1-0.2-0.2-0.3-0.3-0.5l0,0l0,0c-0.1,0.4,0,0.8,0,0.9
		c0,0.1,0,0.1-0.1,0.2c-0.1,0-0.1,0-0.2,0c-0.5-0.4-0.9-0.5-1.2-0.6l0,0l0,0c0.2,0.3,0.4,0.6,0.6,0.8c0.2,0.2,0.5,0.4,0.8,0.5
		C5.6,35.8,5.8,35.9,6,35.9"/>
	<path class="st4" d="M4.9,34.3L4.9,34.3C5,34.3,5,34.3,4.9,34.3c0.2-0.5,0.1-1-0.1-1.6c-0.1-0.2-0.1-0.3-0.2-0.5l0,0l0,0
		c-0.1,0.4-0.2,0.9-0.2,0.9c0,0.1,0,0.1-0.1,0.1s-0.1,0-0.2,0c-0.4-0.4-0.7-0.5-1-0.6c-0.1,0-0.1,0-0.2-0.1l0,0l0,0
		c0.2,0.4,0.3,0.7,0.5,0.9C3.8,33.7,4,33.9,4.3,34C4.6,34.2,4.8,34.3,4.9,34.3"/>
	<path class="st4" d="M4.1,32.6L4.1,32.6L4.1,32.6c0.4-0.9,0.1-1.7-0.1-2.1l0,0l0,0c-0.2,0.4-0.3,0.8-0.3,0.9s-0.1,0.1-0.1,0.1
		c-0.1,0-0.1,0-0.2-0.1c-0.3-0.4-0.7-0.6-0.9-0.7c-0.1,0-0.1-0.1-0.2-0.1l0,0l0,0C2.9,32.1,3.8,32.5,4.1,32.6"/>
	<path class="st4" d="M2.9,30.4c0.3,0.2,0.5,0.3,0.6,0.4l0,0l0,0c0.3-0.5,0.4-1.1,0.3-1.6c0-0.2-0.1-0.4-0.2-0.5l0,0l0,0
		c-0.2,0.4-0.3,0.8-0.3,0.9l0,0l0,0c0,0.1-0.1,0.1-0.1,0.1c-0.1,0-0.1,0-0.2-0.1c-0.3-0.5-0.7-0.8-1-0.9l0,0l0,0
		c0.1,0.4,0.2,0.7,0.4,1C2.5,29.9,2.7,30.2,2.9,30.4"/>
	<path class="st4" d="M3,28.9L3,28.9L3,28.9c0.6-0.8,0.6-1.7,0.5-2.1l0,0l0,0C3.2,27.2,3,27.6,3,27.6c0,0.1-0.1,0.1-0.2,0.1l0,0
		c-0.1,0-0.1,0-0.2-0.1c-0.2-0.5-0.5-0.8-0.7-0.9l-0.1-0.1l0,0l0,0C1.9,28.1,2.7,28.8,3,28.9"/>
	<path class="st4" d="M2.8,27.1L2.8,27.1L2.8,27.1c0.3-0.3,0.5-0.7,0.6-1.1c0.1-0.4,0-0.7,0-1l0,0l0,0C3,25.3,3,25.7,3,25.7
		c0,0.1-0.1,0.1-0.2,0.1c-0.1,0-0.1,0-0.2-0.1c-0.2-0.5-0.4-0.8-0.6-1l-0.1-0.1l0,0l0,0C1.8,26.2,2.5,26.8,2.8,27.1"/>
	<path class="st4" d="M2.4,24.5c0.2,0.3,0.4,0.5,0.5,0.6l0,0l0,0c0.4-0.3,0.6-0.8,0.7-1.4c0-0.2,0-0.4,0-0.6l0,0l0,0
		C3.2,23.4,3,23.8,3,23.8c0,0.1-0.1,0.1-0.2,0.1c-0.1,0-0.1-0.1-0.1-0.1c-0.1-0.6-0.4-1-0.6-1.2l0,0l0,0c0,0.4,0,0.7,0,1.1
		C2.1,23.9,2.2,24.2,2.4,24.5"/>
	<path class="st4" d="M2.6,22.6c0.1,0.3,0.3,0.5,0.4,0.6l0,0l0,0c0.4-0.4,0.7-0.8,0.8-1.4c0-0.2,0.1-0.3,0.1-0.5l0,0l0,0
		c-0.3,0.3-0.6,0.6-0.6,0.7s-0.1,0.1-0.2,0.1C3,21.9,3,21.9,3,21.8c-0.1-0.6-0.4-1-0.6-1.2l0,0l0,0c-0.1,0.4-0.1,0.7,0,1.1
		C2.4,22,2.4,22.3,2.6,22.6"/>
	<path class="st4" d="M3.3,21.3L3.3,21.3L3.3,21.3c0.5-0.3,0.9-0.7,1-1.3c0.1-0.2,0.1-0.3,0.1-0.5l0,0l0,0C4,19.7,3.7,20,3.7,20
		c0,0.1-0.1,0.1-0.2,0.1c-0.1,0-0.1-0.1-0.1-0.1c0-0.6-0.3-1-0.4-1.3l0,0l0,0c-0.1,0.4-0.2,0.7-0.2,1s0,0.6,0.1,0.9
		C3,21,3.2,21.2,3.3,21.3"/>
	<path class="st4" d="M3.7,19.4L3.7,19.4C3.7,19.4,3.8,19.4,3.7,19.4c0.5-0.3,0.9-0.7,1.2-1.2C5,18,5,17.9,5.1,17.7l0,0l0,0
		c-0.4,0.2-0.8,0.5-0.8,0.5s-0.1,0.1-0.2,0C4,18.2,4,18.1,4,18c0-0.6-0.1-1-0.3-1.3l0,0l0,0c-0.2,0.3-0.3,0.7-0.3,1s0,0.6,0,0.9
		C3.5,19.1,3.7,19.3,3.7,19.4"/>
	<path class="st4" d="M4.4,17.7L4.4,17.7L4.4,17.7c0.5-0.1,0.9-0.5,1.3-0.9C5.9,16.5,6,16.3,6,16.2l0,0l0,0
		c-0.5,0.1-0.8,0.4-0.8,0.4c-0.1,0.1-0.1,0.1-0.2,0c-0.1,0-0.1-0.1-0.1-0.2c0.1-0.6,0-1-0.1-1.3l0,0l0,0c-0.2,0.3-0.4,0.6-0.5,1
		c-0.1,0.3-0.1,0.6-0.1,0.9C4.3,17.3,4.4,17.6,4.4,17.7"/>
	<path class="st4" d="M5.4,16L5.4,16c0.8-0.1,1.4-0.9,1.7-1.3l0,0l0,0c-0.5,0-0.8,0.3-0.8,0.3c-0.1,0-0.1,0-0.2,0
		C6,14.9,6,14.9,6,14.8c0.2-0.6,0.2-1,0.1-1.3l0,0l0,0C5.1,14.7,5.3,15.6,5.4,16L5.4,16"/>
	<path class="st4" d="M6.5,14.4C6.5,14.4,6.6,14.4,6.5,14.4c0.5,0,1-0.3,1.4-0.6c0.2-0.1,0.3-0.3,0.5-0.4l0,0l0,0
		c-0.4,0-0.8,0.1-0.8,0.2c-0.1,0-0.1,0-0.2,0c0-0.1-0.1-0.1,0-0.2c0.3-0.5,0.3-1,0.3-1.3l0,0l0,0c-0.3,0.3-0.5,0.5-0.7,0.8
		s-0.3,0.6-0.4,0.9C6.5,14,6.5,14.3,6.5,14.4L6.5,14.4"/>
	<path class="st4" d="M9.9,12.3c-0.4,0-0.8,0.1-0.9,0.1c-0.1,0-0.1,0-0.2-0.1c0-0.1,0-0.1,0-0.2c0.3-0.5,0.4-1,0.4-1.3l0,0l0,0
		c-1.3,0.9-1.4,1.9-1.3,2.3l0,0H8C8.8,13.1,9.5,12.6,9.9,12.3L9.9,12.3L9.9,12.3"/>
	<path class="st4" d="M11.5,11.5c-0.1,0-0.3-0.1-0.4-0.1c-0.2,0-0.4,0-0.4,0l0,0c-0.1,0-0.1,0-0.2-0.1c0-0.1,0-0.1,0-0.2
		c0.4-0.4,0.7-0.7,0.7-1l0,0l0,0c-1.5,0.5-1.8,1.4-1.9,1.7l0,0c0.2,0,0.3,0.1,0.6,0.1s0.6,0,1-0.2C11.1,11.7,11.3,11.6,11.5,11.5
		L11.5,11.5L11.5,11.5"/>
	<path class="st4" d="M13.3,11c-0.4-0.2-0.8-0.3-0.8-0.3c-0.1,0-0.1-0.1-0.1-0.1c0-0.1,0-0.1,0.1-0.2c0.5-0.2,0.7-0.5,0.9-0.6l0,0
		l0,0c-0.8,0.1-1.4,0.4-1.7,0.7c-0.2,0.2-0.3,0.4-0.3,0.5l0,0c0.3,0.2,0.7,0.2,1,0.2c0.2,0,0.4,0,0.6-0.1
		C12.9,11.2,13.1,11.1,13.3,11C13.3,11.1,13.3,11.1,13.3,11C13.3,11.1,13.3,11,13.3,11"/>
	<path class="st4" d="M14.4,10.5c-0.1,0-0.1-0.1-0.1-0.2c0-0.1,0-0.1,0.1-0.2c0.5-0.1,0.8-0.3,0.9-0.5l0,0l0,0
		c-0.7,0-1.4,0.1-1.8,0.4c-0.2,0.1-0.4,0.3-0.5,0.4l0,0c0.5,0.4,1.2,0.5,1.7,0.5c0.2,0,0.3,0,0.4,0l0,0l0,0
		C14.8,10.7,14.4,10.5,14.4,10.5"/>
	<path class="st4" d="M16.3,10.7c-0.1,0-0.1-0.1-0.1-0.2c0-0.1,0.1-0.1,0.1-0.1c0.5-0.1,0.8-0.2,1-0.3l0,0l0,0
		c-0.7-0.2-1.3-0.2-1.8,0c-0.3,0.1-0.4,0.2-0.5,0.3l0,0c0.6,0.7,1.5,0.9,1.9,0.9l0,0l0,0C16.7,10.9,16.4,10.7,16.3,10.7"/>
	<path class="st4" d="M21.2,13.1L21.2,13.1c0-0.2,0-0.5-0.1-0.8c-0.2-0.6-0.7-1-1.3-1.2l0,0l0,0c0.1,0.3,0.3,0.7,0.5,1
		c0,0.1,0,0.1,0,0.2c0,0.1-0.1,0.1-0.2,0.1c0,0-0.4-0.1-0.8,0l0,0l0,0C19.6,12.6,20.4,13.1,21.2,13.1C21.1,13.1,21.1,13.1,21.2,13.1
		"/>
	<path class="st4" d="M19.6,11.9L19.6,11.9c-0.4-0.4-0.8-0.6-1.4-0.5c-0.2,0-0.4,0.1-0.6,0.1l0,0l0,0C18,11.8,18.5,12,19,12h0.1
		C19.3,12,19.5,11.9,19.6,11.9L19.6,11.9"/>
	<path class="st4" d="M16.9,10.7L16.9,10.7c0.3,0.2,0.6,0.3,1,0.3c0.2,0,0.3,0,0.5-0.1c0.3-0.1,0.6-0.1,0.7-0.2l0,0l0,0
		c-0.3-0.2-0.5-0.3-0.8-0.3s-0.6,0-0.9,0C17.3,10.5,17.1,10.6,16.9,10.7L16.9,10.7"/>
	<path class="st5" d="M11.4,21.5c0.1,0.1,0.2,0.2,0.5,0.2H14C12.7,20.9,12.2,21,11.4,21.5L11.4,21.5"/>
	<path class="st5" d="M16.6,20.5c-0.2-0.1-0.4-0.1-0.6-0.2c-0.7-0.3-1.2-0.7-1.3-0.7c-0.1-0.1-0.2-0.3-0.1-0.4
		c0.1-0.1,0.3-0.2,0.4-0.1c0,0,0.5,0.4,1.1,0.6c0.1,0.1,0.3,0.1,0.5,0.1c0.3,0.1,0.6,0.2,0.9,0.3c-0.1-0.4-0.1-0.7-0.2-0.9
		c-0.9-0.2-1.6-0.8-1.6-0.8c-0.1-0.1-0.1-0.1-0.1-0.2s0-0.2,0.1-0.2c0.1-0.1,0.3-0.2,0.4,0c0,0,0.5,0.4,1,0.6
		c-0.2-0.9-0.5-1.7-0.9-2.4c-0.3-0.6-0.7-0.9-1.3-1.1C14.5,15,14.2,15,14.2,15l0,0c0,0-1,0-1.7,0.8l0,0c-0.1,0.1-0.4,0.5-0.5,0.8
		c0,0.2,0,0.3,0.1,0.3c0,0,0.2,0.1,0.5-0.1c0.1-0.1,0.1-0.1,0.1-0.1c0.1-0.1,0.3-0.1,0.4,0.1c0.1,0.1,0.1,0.3,0,0.4L13,17.3
		c-0.1,0.1-0.4,0.4-0.7,0.7c-0.4,0.5-0.9,1.4-1.2,2.7v0.1c0.9-0.4,1.6-0.5,3.2,0.5c0.6,0.4,1.3,0.4,1.5,0.4h0.7l0,0
		c0.2,0,0.7,0,0.9-0.3c0,0,0.1-0.1,0.1-0.2C17.7,20.9,17.4,20.7,16.6,20.5"/>
	<path class="st6" d="M13.5,32.8c0.1-0.1,0.2-0.2,0.2-0.2s0-0.1-0.1-0.1c-0.1-0.1-0.1-0.1-0.2-0.1c-0.2,0-0.3,0.1-0.6,0.3
		c-0.2,0.1-0.5,0.4-0.5,0.6c0,0.1,0,0.1,0.1,0.2c0.1,0.1,0.4,0.1,0.5,0C13.1,33.2,13.3,33,13.5,32.8"/>
	<path class="st6" d="M14.6,33.2c0,0,0-0.1-0.1-0.2c0,0-0.1-0.1-0.5,0.1c-0.2,0.1-0.5,0.3-0.6,0.6c0.1,0.1,0.1,0.1,0.2,0.1
		c0.3,0.1,0.6-0.2,0.7-0.3l0,0C14.5,33.4,14.6,33.3,14.6,33.2"/>
	<path class="st6" d="M11.3,31.7L11.3,31.7c-0.3,0-0.6,0.2-0.8,0.4c-0.1,0.1-0.1,0.2-0.1,0.2s0.1,0.1,0.3,0.1h0.1
		c0.1-0.3,0.2-0.4,0.4-0.6L11.3,31.7C11.4,31.7,11.3,31.7,11.3,31.7L11.3,31.7"/>
	<path class="st6" d="M11.4,32.7c0,0.1,0,0.2,0.3,0.3h0.1c0.1-0.3,0.3-0.5,0.7-0.8c0,0,0.1-0.1,0.2-0.1c0,0,0,0,0-0.1
		c0,0-0.1-0.1-0.2-0.1c-0.1,0-0.1,0-0.2,0c-0.2,0-0.4,0.1-0.6,0.3C11.5,32.4,11.4,32.5,11.4,32.7"/>
	<path class="st6" d="M18.2,32.2c0.2,0,0.3,0,0.4-0.1s0.1-0.2,0.1-0.3c-0.2-0.2-0.7-0.8-1.4-1.3c-0.3-0.2-0.6-0.4-1-0.5
		s-0.7-0.2-1-0.1l0,0c-0.1,0-0.2,0.1-0.3,0.2s-0.2,0.1-0.3,0.2c-0.3,0.2-0.8,0.3-1.1,0.3s-0.7,0-1-0.3c-0.2-0.2-0.2-0.4-0.1-0.7
		c0.1-0.2,0.3-0.3,0.7-0.5c0.1-0.1,0.3-0.1,0.4-0.2c0.2-0.1,0.2-0.2,0.4-0.3c0.1-0.1,0.3-0.2,0.5-0.4c0.1-0.1,0.2-0.1,0.3-0.2
		c-0.1,0-0.2,0-0.3,0c-0.5,0-0.9,0.1-1.4,0.5c-0.5,0.3-1.4,0.6-2.8,0.9s-3.2,0.5-5.5,0.8C4.9,30.5,4.9,30.7,5,31
		c0,1,0.4,1.9,0.8,2.7c0.8-0.4,2.8-1.3,4.4-2.1c0.3-0.3,0.8-0.5,1.2-0.4c0.1,0,0.4,0,0.6,0.2c0.3-0.1,0.5-0.1,0.7,0.1
		c0.3,0.1,0.4,0.3,0.4,0.4c0.3-0.1,0.6,0,0.9,0.2c0.2,0.1,0.2,0.3,0.3,0.5c0.3,0,0.5,0.1,0.7,0.2c0.2,0.2,0.3,0.5,0.2,0.6
		c0,0.1-0.1,0.2-0.1,0.3c0.2,0,0.3,0,0.4-0.1c0,0,0.1,0,0.1-0.1c-0.1-0.1-0.2-0.3-0.4-0.6c0-0.1-0.1-0.1-0.1-0.2
		c0-0.1,0-0.1,0.1-0.2c0.1-0.1,0.3-0.1,0.4,0c0.3,0.3,0.4,0.6,0.5,0.8c0.1,0,0.3,0,0.4-0.1s0.1-0.1,0.1-0.2c0-0.1-0.1-0.2-0.3-0.4
		c-0.2-0.2-0.5-0.4-0.6-0.5c-0.1,0-0.1-0.1-0.1-0.2c0-0.1,0-0.1,0-0.2s0.1-0.1,0.2-0.1c0.1,0,0.1,0,0.2,0c0,0,0.5,0.3,0.7,0.6
		c0.2,0.2,0.3,0.4,0.4,0.5c0.2,0,0.3-0.1,0.5-0.2l0.1-0.1c-0.2-0.3-0.7-0.9-1.4-1.2c-0.1,0-0.1-0.1-0.1-0.2s0-0.1,0-0.2
		s0.1-0.1,0.2-0.1s0.1,0,0.2,0C17.3,31.1,17.9,31.8,18.2,32.2"/>
	<path class="st6" d="M14.6,29.6c0.2-0.1,0.3-0.2,0.5-0.3c0.9-0.2,1.9,0.4,2.4,0.7c0.7,0.5,1.2,1,1.5,1.3l0,0l0,0l0,0
		c0.1,0.1,0.2,0.3,0.5,0.4c1.2,0.9,2.9,1.6,3.7,1.9c0.5-0.8,0.8-1.7,1.1-2.7c0.1-0.2,0.1-0.5,0.2-0.7c-1.5-0.1-3-0.4-4.1-0.7
		c-1.2-0.3-2.1-0.6-2.2-0.6c-0.2-0.1-0.5-0.2-0.7-0.2c-0.7-0.2-1.1-0.4-1.6-0.4c-0.1,0-0.1,0-0.2,0c-0.1,0-0.1,0-0.2,0l0,0
		c-0.5,0-0.8,0-1,0.2c-0.2,0.1-0.3,0.2-0.4,0.3c-0.1,0.1-0.2,0.2-0.4,0.3c-0.1,0.1-0.3,0.2-0.4,0.2c-0.1,0.1-0.3,0.2-0.4,0.2v0.1
		c0.1,0.1,0.2,0.1,0.5,0.1c0.2,0,0.6-0.1,0.9-0.3C14.5,29.7,14.5,29.6,14.6,29.6"/>
	<path class="st0" d="M36.7,19.3l0.9-1c0.8,0.7,1.6,1.1,2.6,1.1c0.9,0,1.4-0.4,1.4-1l0,0c0-0.6-0.3-0.9-1.8-1.2
		C38,16.7,37,16.1,37,14.6l0,0c0-1.4,1.2-2.4,2.8-2.4c1.2,0,2.1,0.4,3,1L42,14.4c-0.7-0.5-1.5-0.8-2.2-0.8c-0.8,0-1.3,0.4-1.3,1l0,0
		c0,0.6,0.4,0.9,1.9,1.3c1.7,0.4,2.6,1,2.6,2.4l0,0c0,1.5-1.2,2.4-2.9,2.4C38.8,20.6,37.7,20.2,36.7,19.3"/>
	<path class="st0" d="M44.1,17.5L44.1,17.5c0-1.8,1.2-3.2,3-3.2c2,0,2.9,1.5,2.9,3.3c0,0.1,0,0.3,0,0.4h-4.5c0.2,1,0.9,1.6,1.8,1.6
		c0.7,0,1.2-0.3,1.7-0.7l0.8,0.7c-0.6,0.7-1.4,1.2-2.5,1.2C45.4,20.7,44.1,19.4,44.1,17.5 M48.6,17c-0.1-0.9-0.6-1.6-1.6-1.6
		c-0.9,0-1.5,0.7-1.6,1.6H48.6z"/>
	<path class="st0" d="M51,17.5L51,17.5c0-1.8,1.4-3.2,3.2-3.2c1.2,0,1.9,0.4,2.5,1.1l-0.9,0.9c-0.4-0.5-0.9-0.8-1.6-0.8
		c-1,0-1.8,0.9-1.8,2l0,0c0,1.1,0.8,2,1.8,2c0.7,0,1.2-0.3,1.6-0.8l0.9,0.8c-0.6,0.7-1.3,1.2-2.5,1.2C52.3,20.7,51,19.2,51,17.5"/>
	<path class="st0" d="M57.9,14.4h1.4v1.4c0.4-0.9,1.1-1.6,2.2-1.5v1.5h-0.1c-1.2,0-2.1,0.8-2.1,2.4v2.3h-1.4
		C57.9,20.5,57.9,14.4,57.9,14.4z"/>
	<path class="st0" d="M62,17.5L62,17.5c0-1.8,1.2-3.2,3-3.2c2,0,2.9,1.5,2.9,3.3c0,0.1,0,0.3,0,0.4h-4.5c0.2,1,0.9,1.6,1.8,1.6
		c0.7,0,1.2-0.3,1.7-0.7l0.8,0.7c-0.6,0.7-1.4,1.2-2.5,1.2C63.4,20.7,62,19.4,62,17.5 M66.6,17c-0.1-0.9-0.6-1.6-1.6-1.6
		c-0.9,0-1.5,0.7-1.6,1.6H66.6z"/>
	<path class="st0" d="M69.6,18.8v-3.2h-0.8v-1.2h0.8v-1.7H71v1.7h1.7v1.2H71v3c0,0.5,0.3,0.8,0.8,0.8c0.3,0,0.6-0.1,0.9-0.2v1.2
		c-0.4,0.2-0.7,0.3-1.3,0.3C70.3,20.6,69.6,20.2,69.6,18.8"/>
	<path class="st0" d="M77.7,20.5v-0.8c-0.4,0.5-1.1,0.9-2,0.9c-1.2,0-2.2-0.7-2.2-1.9l0,0c0-1.4,1.1-2,2.5-2c0.7,0,1.2,0.1,1.7,0.3
		v-0.1c0-0.9-0.5-1.3-1.5-1.3c-0.7,0-1.2,0.2-1.8,0.4L74,14.9c0.7-0.3,1.3-0.5,2.3-0.5c1.8,0,2.7,1,2.7,2.6v3.6L77.7,20.5L77.7,20.5
		z M77.7,17.9c-0.4-0.1-0.9-0.2-1.4-0.2c-0.9,0-1.4,0.4-1.4,1l0,0c0,0.6,0.5,0.9,1.2,0.9c0.9,0,1.6-0.5,1.6-1.3
		C77.7,18.3,77.7,17.9,77.7,17.9z"/>
	<path class="st0" d="M80.7,14.4h1.4v1.4c0.4-0.9,1.1-1.6,2.2-1.5v1.5h-0.1c-1.2,0-2.1,0.8-2.1,2.4v2.3h-1.4V14.4z"/>
	<path class="st0" d="M85.5,14.4h1.4v6.2h-1.4V14.4z M86.8,11.7l1.3,0.6l-1.4,1.3h-1.1L86.8,11.7z"/>
	<path class="st0" d="M92.4,20.5v-0.8c-0.4,0.5-1.1,0.9-2,0.9c-1.2,0-2.2-0.7-2.2-1.9l0,0c0-1.4,1.1-2,2.5-2c0.7,0,1.2,0.1,1.7,0.3
		v-0.1c0-0.9-0.5-1.3-1.5-1.3c-0.7,0-1.2,0.2-1.8,0.4l-0.4-1.1c0.7-0.3,1.3-0.5,2.3-0.5c1.8,0,2.7,1,2.7,2.6v3.6L92.4,20.5
		L92.4,20.5z M92.4,17.9c-0.4-0.1-0.9-0.2-1.4-0.2c-0.9,0-1.4,0.4-1.4,1l0,0c0,0.6,0.5,0.9,1.2,0.9c0.9,0,1.6-0.5,1.6-1.3
		C92.4,18.3,92.4,17.9,92.4,17.9z"/>
	<path class="st0" d="M98.4,17.5L98.4,17.5c0-2.1,1.4-3.2,2.9-3.2c1,0,1.7,0.5,2.1,1.1V12h1.4v8.5h-1.4v-1c-0.5,0.6-1.1,1.2-2.1,1.2
		C99.8,20.7,98.4,19.5,98.4,17.5 M103.4,17.5L103.4,17.5c0-1.2-0.8-2-1.8-2s-1.8,0.7-1.8,2l0,0c0,1.2,0.8,2,1.8,2
		C102.5,19.4,103.4,18.6,103.4,17.5"/>
	<path class="st0" d="M106.1,17.5L106.1,17.5c0-1.8,1.2-3.2,3-3.2c2,0,2.9,1.5,2.9,3.3c0,0.1,0,0.3,0,0.4h-4.5
		c0.2,1,0.9,1.6,1.8,1.6c0.7,0,1.2-0.3,1.7-0.7l0.8,0.7c-0.6,0.7-1.4,1.2-2.5,1.2C107.4,20.7,106.1,19.4,106.1,17.5 M110.6,17
		c-0.1-0.9-0.6-1.6-1.6-1.6c-0.9,0-1.5,0.7-1.6,1.6H110.6z"/>
	<polygon class="st0" points="116.9,12.4 118.4,12.4 120.9,16.2 123.4,12.4 124.9,12.4 124.9,20.5 123.4,20.5 123.4,14.7 
		120.9,18.5 120.8,18.5 118.3,14.7 118.3,20.5 116.9,20.5 	"/>
	<path class="st0" d="M126.4,17.5L126.4,17.5c0-1.8,1.4-3.2,3.3-3.2s3.3,1.4,3.3,3.2l0,0c0,1.7-1.4,3.2-3.3,3.2
		C127.8,20.7,126.4,19.2,126.4,17.5 M131.5,17.5L131.5,17.5c0-1.1-0.8-2-1.9-2c-1.1,0-1.9,0.9-1.9,2l0,0c0,1.1,0.8,2,1.9,2
		C130.8,19.4,131.5,18.5,131.5,17.5"/>
	<path class="st0" d="M133.9,17.5L133.9,17.5c0-2.1,1.4-3.2,2.9-3.2c1,0,1.7,0.5,2.1,1.1V12h1.4v8.5h-1.4v-1
		c-0.5,0.6-1.1,1.2-2.1,1.2C135.3,20.7,133.9,19.5,133.9,17.5 M138.9,17.5L138.9,17.5c0-1.2-0.8-2-1.8-2s-1.8,0.7-1.8,2l0,0
		c0,1.2,0.8,2,1.8,2C138.1,19.4,138.9,18.6,138.9,17.5"/>
	<path class="st0" d="M141.6,17.5L141.6,17.5c0-1.8,1.2-3.2,3-3.2c2,0,2.9,1.5,2.9,3.3c0,0.1,0,0.3,0,0.4H143c0.2,1,0.9,1.6,1.8,1.6
		c0.7,0,1.2-0.3,1.7-0.7l0.8,0.7c-0.6,0.7-1.4,1.2-2.5,1.2C143,20.7,141.6,19.4,141.6,17.5 M146.2,17c-0.1-0.9-0.6-1.6-1.6-1.6
		c-0.9,0-1.5,0.7-1.6,1.6H146.2z"/>
	<path class="st0" d="M148.9,14.4h1.4v1.4c0.4-0.9,1.1-1.6,2.2-1.5v1.5h-0.1c-1.2,0-2.1,0.8-2.1,2.4v2.3h-1.4L148.9,14.4L148.9,14.4
		z"/>
	<path class="st0" d="M153.6,14.4h1.4v1c0.4-0.6,1-1.1,1.9-1.1c1.4,0,2.2,0.9,2.2,2.4v3.9h-1.4V17c0-1-0.5-1.5-1.3-1.5
		S155,16.1,155,17v3.5h-1.4V14.4z"/>
	<path class="st0" d="M160.7,12.1h1.5v1.3h-1.5V12.1z M160.8,14.4h1.4v6.2h-1.4V14.4z"/>
	<polygon class="st0" points="163.6,19.6 167.2,15.5 163.7,15.5 163.7,14.4 169,14.4 169,15.3 165.4,19.4 169,19.4 169,20.5 
		163.6,20.5 	"/>
	<path class="st0" d="M174.1,20.5v-0.8c-0.4,0.5-1.1,0.9-2,0.9c-1.2,0-2.2-0.7-2.2-1.9l0,0c0-1.4,1.1-2,2.5-2c0.7,0,1.2,0.1,1.7,0.3
		v-0.1c0-0.9-0.5-1.3-1.5-1.3c-0.7,0-1.2,0.2-1.8,0.4l-0.4-1.1c0.7-0.3,1.3-0.5,2.3-0.5c1.8,0,2.7,1,2.7,2.6v3.6L174.1,20.5
		L174.1,20.5z M174.1,17.9c-0.4-0.1-0.9-0.2-1.4-0.2c-0.9,0-1.4,0.4-1.4,1l0,0c0,0.6,0.5,0.9,1.2,0.9c0.9,0,1.6-0.5,1.6-1.3
		L174.1,17.9L174.1,17.9z"/>
	<path class="st0" d="M176.7,17.5L176.7,17.5c0-1.8,1.4-3.2,3.2-3.2c1.2,0,1.9,0.4,2.5,1.1l-0.9,0.9c-0.4-0.5-0.9-0.8-1.6-0.8
		c-1,0-1.8,0.9-1.8,2l0,0c0,1.1,0.8,2,1.8,2c0.7,0,1.2-0.3,1.6-0.8l0.9,0.8c-0.6,0.7-1.3,1.2-2.5,1.2
		C178,20.7,176.7,19.2,176.7,17.5"/>
	<path class="st0" d="M183.6,12.1h1.5v1.3h-1.5V12.1z M183.7,14.4h1.4v6.2h-1.4V14.4z"/>
	<path class="st0" d="M186.4,17.5L186.4,17.5c0-1.8,1.4-3.2,3.3-3.2c1.9,0,3.3,1.4,3.3,3.2l0,0c0,1.7-1.4,3.2-3.3,3.2
		C187.8,20.7,186.4,19.2,186.4,17.5 M191.6,17.5L191.6,17.5c0-1.1-0.8-2-1.9-2c-1.1,0-1.9,0.9-1.9,2l0,0c0,1.1,0.8,2,1.9,2
		C190.9,19.4,191.6,18.5,191.6,17.5 M190.4,11.7l1.3,0.6l-1.4,1.3h-1.1L190.4,11.7z"/>
	<path class="st0" d="M194.3,14.4h1.4v1c0.4-0.6,1-1.1,1.9-1.1c1.4,0,2.2,0.9,2.2,2.4v3.9h-1.4V17c0-1-0.5-1.5-1.3-1.5
		s-1.4,0.6-1.4,1.5v3.5h-1.4V14.4z"/>
</g>
</svg>
