<?xml version="1.0" encoding="utf-8"?>
<!-- Generator: Adobe Illustrator 15.1.0, SVG Export Plug-In . SVG Version: 6.00 Build 0)  -->
<!DOCTYPE svg PUBLIC "-//W3C//DTD SVG 1.1//EN" "http://www.w3.org/Graphics/SVG/1.1/DTD/svg11.dtd">
<svg version="1.1" id="Layer_1" xmlns="http://www.w3.org/2000/svg" xmlns:xlink="http://www.w3.org/1999/xlink" x="0px" y="0px"
	 width="96.963px" height="96.964px" viewBox="0 0 96.963 96.964" enable-background="new 0 0 96.963 96.964" xml:space="preserve">
<g>
	<path fill="#0085C9" d="M96.963,48.482c0,26.774-21.709,48.481-48.482,48.481C21.705,96.964,0,75.257,0,48.482
		C0,21.707,21.705,0,48.481,0C75.254,0,96.963,21.707,96.963,48.482"/>
	<path fill="#0085C9" d="M93.428,48.482c0,24.823-20.123,44.947-44.947,44.947c-24.823,0-44.946-20.124-44.946-44.947
		c0-24.822,20.123-44.948,44.946-44.948C73.305,3.534,93.428,23.66,93.428,48.482"/>
	<path fill="#FFFFFF" d="M48.481,5.626c23.63,0,42.855,19.228,42.855,42.856c0,23.632-19.226,42.854-42.855,42.854
		S5.626,72.114,5.626,48.482C5.626,24.854,24.851,5.626,48.481,5.626 M48.481,3.534c-24.823,0-44.946,20.126-44.946,44.948
		S23.658,93.43,48.481,93.43c24.824,0,44.947-20.125,44.947-44.947S73.305,3.534,48.481,3.534"/>
	<path fill="#FFFFFF" d="M28.331,43.299h-3.962v7.749h-4.021V30.459h7.983c4.25,0,6.796,2.92,6.796,6.419
		S32.581,43.299,28.331,43.299 M28.127,34.046h-3.759v5.637h3.759c1.821,0,2.977-1.127,2.977-2.805
		C31.104,35.201,29.948,34.046,28.127,34.046"/>
	<path fill="#FFFFFF" d="M48.771,51.048l-1.213-3.644h-7.315l-1.245,3.644h-4.192l7.488-20.589h3.154l7.519,20.589H48.771z
		 M43.972,36.53l-2.602,7.491h5.118L43.972,36.53z"/>
	<rect x="55.508" y="30.459" fill="#FFFFFF" width="4.02" height="20.589"/>
	<path fill="#FFFFFF" d="M69.995,51.223c-3.123,0-5.494-0.666-7.52-2.721l2.604-2.602c1.302,1.303,3.066,1.736,4.975,1.736
		c2.371,0,3.643-0.897,3.643-2.544c0-0.724-0.201-1.33-0.638-1.735c-0.403-0.377-0.866-0.578-1.819-0.725l-2.488-0.348
		c-1.762-0.26-3.063-0.809-3.989-1.705c-0.981-0.984-1.476-2.313-1.476-4.05c0-3.67,2.719-6.244,7.172-6.244
		c2.834,0,4.887,0.693,6.65,2.401l-2.545,2.514c-1.3-1.244-2.863-1.415-4.221-1.415c-2.141,0-3.182,1.185-3.182,2.602
		c0,0.521,0.174,1.07,0.606,1.474c0.405,0.377,1.069,0.694,1.909,0.811l2.428,0.348c1.881,0.259,3.068,0.78,3.934,1.589
		c1.101,1.042,1.59,2.546,1.59,4.366C77.627,48.967,74.303,51.223,69.995,51.223"/>
	<path fill="#FFFFFF" d="M27.552,65.675c-0.739,0.737-1.807,1.102-3.022,1.102h-4.107V55.082h4.107c1.215,0,2.283,0.359,3.022,1.1
		c1.264,1.265,1.182,2.972,1.182,4.664C28.734,62.537,28.816,64.41,27.552,65.675 M26.337,57.459
		c-0.491-0.538-1.151-0.787-1.987-0.787h-2.154v8.511h2.154c0.836,0,1.496-0.247,1.987-0.79c0.608-0.674,0.625-1.937,0.625-3.547
		C26.962,59.234,26.945,58.135,26.337,57.459"/>
	<rect x="31.363" y="55.082" fill="#FFFFFF" width="1.774" height="11.694"/>
	<path fill="#FFFFFF" d="M43.191,65.543c-0.886,0.936-1.988,1.331-3.22,1.331c-1.215,0-2.264-0.444-3.071-1.249
		c-1.15-1.147-1.134-2.447-1.134-4.697S35.75,57.38,36.9,56.229c0.807-0.804,1.824-1.247,3.071-1.247
		c2.481,0,3.929,1.624,4.254,3.629h-1.79c-0.294-1.281-1.15-2.035-2.464-2.035c-0.691,0-1.313,0.28-1.724,0.724
		c-0.575,0.622-0.707,1.278-0.707,3.629c0,2.349,0.132,3.021,0.707,3.647c0.411,0.443,1.033,0.705,1.724,0.705
		c0.773,0,1.445-0.297,1.906-0.822c0.428-0.493,0.59-1.083,0.59-1.84v-0.655h-2.496v-1.512h4.271v1.79
		C44.242,63.753,43.963,64.721,43.191,65.543"/>
	<rect x="46.855" y="55.082" fill="#FFFFFF" width="1.774" height="11.694"/>
	<polygon fill="#FFFFFF" points="55.641,56.672 55.641,66.775 53.868,66.775 53.868,56.672 50.648,56.672 50.648,55.082 
		58.862,55.082 58.862,56.672 	"/>
	<path fill="#FFFFFF" d="M66.616,66.776l-0.805-2.351h-4.617l-0.803,2.351h-1.887l4.285-11.694h1.428l4.287,11.694H66.616z
		 M63.545,57.723l-1.823,5.191h3.597L63.545,57.723z"/>
	<polygon fill="#FFFFFF" points="70.166,66.776 70.166,55.082 71.938,55.082 71.938,65.183 77.573,65.183 77.573,66.776 	"/>
</g>
</svg>
