<?xml version="1.0" encoding="utf-8"?>
<!-- Generator: Adobe Illustrator 16.0.0, SVG Export Plug-In . SVG Version: 6.00 Build 0)  -->
<!DOCTYPE svg PUBLIC "-//W3C//DTD SVG 1.1//EN" "http://www.w3.org/Graphics/SVG/1.1/DTD/svg11.dtd">
<svg version="1.1" id="Layer_1" xmlns="http://www.w3.org/2000/svg" xmlns:xlink="http://www.w3.org/1999/xlink" x="0px" y="0px"
	 width="596.613px" height="109.689px" viewBox="-1.058 236.88 596.613 109.689"
	 enable-background="new -1.058 236.88 596.613 109.689" xml:space="preserve">
<g>
	<path fill="#0095D5" d="M91.809,280.615h11.609c6.856,0,11.188,3.911,11.188,9.843v0.084c0,6.604-5.3,10.053-11.777,10.053h-5.847
		v9.463h-5.173V280.615z M102.998,295.925c3.912,0,6.351-2.187,6.351-5.257v-0.084c0-3.449-2.481-5.258-6.351-5.258h-6.015v10.599
		H102.998z"/>
	<path fill="#0095D5" d="M118.896,287.85h5.089v5.005c1.388-3.323,3.954-5.595,7.866-5.426v5.384h-0.295
		c-4.458,0-7.571,2.902-7.571,8.791v8.452h-5.089V287.85z"/>
	<path fill="#0095D5" d="M134.626,299.037v-0.083c0-6.351,4.5-11.567,10.852-11.567c7.066,0,10.641,5.552,10.641,11.945
		c0,0.463-0.042,0.926-0.085,1.43h-16.32c0.547,3.618,3.113,5.636,6.393,5.636c2.482,0,4.249-0.925,6.015-2.649l2.986,2.649
		c-2.103,2.524-5.005,4.164-9.085,4.164C139.59,310.563,134.626,305.893,134.626,299.037 M151.072,297.397
		c-0.337-3.28-2.271-5.845-5.636-5.845c-3.112,0-5.299,2.396-5.762,5.845H151.072z"/>
	<path fill="#0095D5" d="M159.021,307.156l2.271-3.45c2.397,1.81,5.005,2.734,7.276,2.734c2.187,0,3.449-0.926,3.449-2.398v-0.084
		c0-1.724-2.354-2.313-4.963-3.111c-3.28-0.926-6.94-2.271-6.94-6.521v-0.083c0-4.206,3.491-6.771,7.907-6.771
		c2.777,0,5.805,0.967,8.16,2.522l-2.02,3.616c-2.145-1.302-4.416-2.104-6.267-2.104c-1.977,0-3.113,0.926-3.113,2.229v0.085
		c0,1.599,2.397,2.271,5.005,3.112c3.239,1.009,6.898,2.481,6.898,6.478v0.084c0,4.668-3.618,6.982-8.244,6.982
		C165.288,310.478,161.797,309.343,159.021,307.156"/>
	<path fill="#0095D5" d="M181.522,279.606h5.468v4.837h-5.468V279.606z M181.733,287.85h5.09v22.206h-5.09V287.85z"/>
	<path fill="#0095D5" d="M191.911,298.996v-0.085c0-7.359,5.005-11.524,10.305-11.524c3.659,0,5.973,1.851,7.57,3.911v-11.943h5.09
		v30.703h-5.09v-3.7c-1.64,2.313-3.953,4.163-7.57,4.163C197,310.52,191.911,306.357,191.911,298.996 M209.871,298.996v-0.085
		c0-4.289-3.028-7.107-6.435-7.107c-3.491,0-6.393,2.692-6.393,7.107v0.085c0,4.29,2.943,7.108,6.393,7.108
		C206.842,306.105,209.871,303.245,209.871,298.996"/>
	<path fill="#0095D5" d="M219.586,299.037v-0.083c0-6.351,4.501-11.567,10.852-11.567c7.066,0,10.642,5.552,10.642,11.945
		c0,0.463-0.042,0.926-0.084,1.43h-16.321c0.548,3.618,3.113,5.636,6.394,5.636c2.481,0,4.248-0.925,6.015-2.649l2.986,2.649
		c-2.103,2.524-5.005,4.164-9.085,4.164C224.549,310.563,219.586,305.893,219.586,299.037 M236.032,297.397
		c-0.336-3.28-2.271-5.845-5.636-5.845c-3.112,0-5.299,2.396-5.762,5.845H236.032z"/>
	<path fill="#0095D5" d="M245.789,287.85h5.089v3.449c1.43-2.104,3.491-3.912,6.941-3.912c5.005,0,7.907,3.365,7.907,8.538v14.131
		h-5.09V297.44c0-3.45-1.725-5.427-4.752-5.427c-2.944,0-5.006,2.061-5.006,5.511v12.532h-5.089V287.85z"/>
	<path fill="#0095D5" d="M270.225,299.08v-0.084c0-6.309,4.879-11.609,11.524-11.609c4.207,0,6.814,1.557,8.875,3.828l-3.155,3.407
		c-1.556-1.64-3.197-2.777-5.762-2.777c-3.702,0-6.394,3.197-6.394,7.066v0.085c0,3.954,2.733,7.149,6.646,7.149
		c2.397,0,4.164-1.135,5.762-2.776l3.071,3.029c-2.188,2.439-4.753,4.163-9.085,4.163
		C275.104,310.563,270.225,305.389,270.225,299.08"/>
	<path fill="#0095D5" d="M295.125,279.606h5.468v4.837h-5.468V279.606z M295.335,287.85h5.089v22.206h-5.089V287.85z"/>
	<path fill="#0095D5" d="M320.235,310.057v-2.733c-1.514,1.808-3.828,3.196-7.191,3.196c-4.206,0-7.908-2.397-7.908-6.856v-0.084
		c0-4.921,3.828-7.276,9-7.276c2.693,0,4.417,0.379,6.141,0.926v-0.42c0-3.071-1.935-4.753-5.468-4.753
		c-2.481,0-4.332,0.547-6.351,1.388l-1.388-4.08c2.44-1.093,4.837-1.851,8.455-1.851c6.562,0,9.757,3.449,9.757,9.38v13.164H320.235
		L320.235,310.057z M320.361,300.761c-1.304-0.504-3.113-0.883-5.089-0.883c-3.197,0-5.09,1.304-5.09,3.449v0.084
		c0,2.104,1.893,3.281,4.29,3.281c3.365,0,5.889-1.893,5.889-4.669V300.761L320.361,300.761z"/>
	<path fill="#0095D5" d="M341.979,298.996v-0.085c0-7.359,5.004-11.524,10.305-11.524c3.659,0,5.972,1.851,7.57,3.911v-11.943h5.09
		v30.703h-5.09v-3.7c-1.64,2.313-3.954,4.163-7.57,4.163C347.068,310.52,341.979,306.357,341.979,298.996 M359.939,298.996v-0.085
		c0-4.289-3.028-7.107-6.437-7.107c-3.491,0-6.393,2.692-6.393,7.107v0.085c0,4.29,2.944,7.108,6.393,7.108
		C356.91,306.105,359.939,303.245,359.939,298.996"/>
	<path fill="#0095D5" d="M369.653,299.037v-0.083c0-6.351,4.501-11.567,10.852-11.567c7.067,0,10.642,5.552,10.642,11.945
		c0,0.463-0.042,0.926-0.084,1.43h-16.319c0.547,3.618,3.113,5.636,6.393,5.636c2.481,0,4.249-0.925,6.016-2.649l2.985,2.649
		c-2.104,2.524-5.006,4.164-9.084,4.164C374.616,310.563,369.653,305.893,369.653,299.037 M386.098,297.397
		c-0.335-3.28-2.27-5.845-5.634-5.845c-3.113,0-5.299,2.396-5.763,5.845H386.098z"/>
	<rect x="408.347" y="279.354" fill="#0095D5" width="5.09" height="30.703"/>
	<path fill="#0095D5" d="M433.248,310.057v-2.733c-1.517,1.808-3.829,3.196-7.192,3.196c-4.206,0-7.908-2.397-7.908-6.856v-0.084
		c0-4.921,3.828-7.276,9.001-7.276c2.692,0,4.417,0.379,6.14,0.926v-0.42c0-3.071-1.935-4.753-5.468-4.753
		c-2.481,0-4.332,0.547-6.351,1.388l-1.388-4.08c2.44-1.093,4.837-1.851,8.455-1.851c6.562,0,9.758,3.449,9.758,9.38v13.164H433.248
		L433.248,310.057z M433.373,300.761c-1.303-0.504-3.111-0.883-5.089-0.883c-3.197,0-5.09,1.304-5.09,3.449v0.084
		c0,2.104,1.893,3.281,4.29,3.281c3.366,0,5.889-1.893,5.889-4.669V300.761L433.373,300.761z"/>
	<polygon fill="#0095D5" points="456.714,280.615 461.51,280.615 477.283,300.973 477.283,280.615 482.373,280.615 482.373,310.057 
		478.041,310.057 461.804,289.111 461.804,310.057 456.714,310.057 	"/>
	<path fill="#0095D5" d="M502.519,310.057v-2.733c-1.516,1.808-3.828,3.196-7.193,3.196c-4.206,0-7.906-2.397-7.906-6.856v-0.084
		c0-4.921,3.826-7.276,9.001-7.276c2.692,0,4.417,0.379,6.14,0.926v-0.42c0-3.071-1.935-4.753-5.468-4.753
		c-2.481,0-4.332,0.547-6.352,1.388l-1.388-4.08c2.439-1.093,4.837-1.851,8.453-1.851c6.563,0,9.759,3.449,9.759,9.38v13.164
		H502.519L502.519,310.057z M502.643,300.761c-1.303-0.504-3.111-0.883-5.089-0.883c-3.197,0-5.089,1.304-5.089,3.449v0.084
		c0,2.104,1.892,3.281,4.29,3.281c3.365,0,5.888-1.893,5.888-4.669V300.761L502.643,300.761z"/>
	<path fill="#0095D5" d="M511.981,299.08v-0.084c0-6.309,4.879-11.609,11.524-11.609c4.206,0,6.813,1.557,8.876,3.828l-3.155,3.407
		c-1.556-1.64-3.196-2.777-5.764-2.777c-3.7,0-6.393,3.197-6.393,7.066v0.085c0,3.954,2.733,7.149,6.645,7.149
		c2.4,0,4.165-1.135,5.765-2.776l3.071,3.029c-2.188,2.439-4.753,4.163-9.086,4.163C516.86,310.563,511.981,305.389,511.981,299.08"
		/>
	<path fill="#0095D5" d="M536.88,279.606h5.47v4.837h-5.47V279.606z M537.09,287.85h5.089v22.206h-5.089V287.85z"/>
	<path fill="#0095D5" d="M547.186,299.08v-0.084c0-6.352,5.047-11.608,11.86-11.608s11.819,5.173,11.819,11.523v0.085
		c0,6.308-5.047,11.567-11.903,11.567C552.19,310.563,547.186,305.389,547.186,299.08 M565.777,299.08v-0.084
		c0-3.911-2.819-7.15-6.814-7.15c-4.08,0-6.688,3.196-6.688,7.065v0.085c0,3.869,2.817,7.15,6.771,7.15
		C563.168,306.146,565.777,302.908,565.777,299.08 M561.36,278.134l4.626,2.061l-5.173,4.837h-3.828L561.36,278.134z"/>
	<path fill="#0095D5" d="M575.618,287.85h5.09v3.449c1.43-2.104,3.49-3.912,6.939-3.912c5.006,0,7.908,3.365,7.908,8.538v14.131
		h-5.089V297.44c0-3.45-1.726-5.427-4.754-5.427c-2.944,0-5.005,2.061-5.005,5.511v12.532h-5.09V287.85L575.618,287.85z"/>
	<path fill="#0095D5" d="M32.575,290.124h-6.123c-1.334,0-2.069-0.553-2.451-1.018c-0.33-0.402-0.544-0.915-0.64-1.511
		c-0.011-0.044-0.017-0.091-0.019-0.137c-0.072-0.557-0.045-1.181,0.089-1.851c0.797-4.003,2.402-6.708,3.725-8.359
		c-0.146-0.047-0.288-0.108-0.424-0.185c-0.845-0.48-1.255-1.455-1.069-2.544c0.228-1.33,1.485-2.678,1.709-2.908
		c2.108-2.467,5.241-2.599,5.63-2.606c0.465-0.035,4.59-0.213,6.816,4.119c2.658,5.174,3.288,9.443,3.793,12.875l0.024,0.164
		c0.088,0.598,0.049,1.098-0.061,1.513c-0.009,0.048-0.022,0.093-0.04,0.136c-0.149,0.478-0.39,0.831-0.62,1.081
		c-0.551,0.597-1.361,0.983-2.409,1.152c-0.44,0.069-0.831,0.085-1.081,0.085c-0.12,0-0.207-0.004-0.25-0.007h-1.762
		c-0.007,0-0.016,0-0.031,0c-0.011,0-0.024,0-0.039,0h-2.931v8.659h27.332c0-5.069-0.752-9.984-2.237-14.609
		c-1.432-4.462-3.48-8.467-6.087-11.902c-2.6-3.426-5.622-6.112-8.984-7.986c-3.468-1.933-7.148-2.913-10.941-2.913
		c-3.792,0-7.474,0.98-10.94,2.913c-3.363,1.874-6.385,4.561-8.985,7.986c-2.607,3.436-4.655,7.44-6.087,11.902
		c-1.485,4.625-2.238,9.54-2.238,14.609h27.329L32.575,290.124L32.575,290.124z"/>
	<path fill="#FFFFFF" d="M5.246,298.783c0,3.847,0.435,7.605,1.294,11.218c12.223-1.392,19.518-2.83,21.684-4.277
		c1.522-1.073,2.749-1.696,4.352-1.648v-5.292H5.246z"/>
	<path fill="#FFFFFF" d="M34.414,304.285c1.099,0.199,1.891,0.501,2.792,0.942c0.089-0.004,0.179-0.007,0.271-0.012
		c1.566-0.07,2.898,0.409,4.741,1.073c0.504,0.183,1.075,0.39,1.699,0.601c0.267,0.085,9.06,2.842,16.499,3.27
		c0.884-3.661,1.331-7.474,1.331-11.378H34.414V304.285z"/>
	<polyline points="31.687,256.597 31.689,256.595 31.687,256.597 	"/>
	<path d="M25.989,257.433L25.989,257.433z"/>
	<polyline points="25.989,257.436 25.989,257.436 25.989,257.437 25.989,257.436 	"/>
	<path fill="#FFFFFF" d="M45.548,316.225c-0.113,0.239-0.273,0.484-0.503,0.706c-0.46,0.445-1.076,0.683-1.836,0.715
		c-0.097,0.217-0.242,0.471-0.456,0.717c-0.415,0.475-1.154,0.99-2.392,0.933c-0.112,0.198-0.27,0.43-0.485,0.648
		c-0.612,0.619-1.426,0.865-2.324,0.706c-0.211,0.17-0.527,0.383-0.945,0.548c-0.516,0.203-1.264,0.361-2.191,0.176v7.249
		c0,0.508-0.412,0.918-0.919,0.918c-0.508,0-0.92-0.41-0.92-0.918v-6.942c-0.361,0.134-0.766,0.229-1.181,0.229
		c-0.16,0-0.32-0.014-0.481-0.047c-0.511-0.101-0.952-0.371-1.296-0.792c-0.612,0.099-1.683,0.168-2.445-0.352
		c-0.313-0.214-0.544-0.505-0.683-0.856c-0.244-0.029-0.549-0.082-0.865-0.183c-0.802-0.255-1.354-0.723-1.604-1.348
		c-0.187-0.008-0.405-0.024-0.631-0.059c-0.662-0.102-1.521-0.385-1.858-1.157c-0.072-0.166-0.119-0.336-0.141-0.507
		c-3.894,2.002-8.341,4.006-10.337,4.889c0.77,1.332,1.61,2.598,2.518,3.795c2.6,3.425,5.622,6.111,8.985,7.985
		c1.569,0.875,3.183,1.553,4.831,2.035c0.167-0.313,0.405-0.576,0.716-0.78c1.567-1.022,4.55-0.277,5.393-0.035
		c0.842-0.242,3.824-0.987,5.392,0.035c0.312,0.204,0.551,0.469,0.716,0.78c1.649-0.481,3.263-1.159,4.834-2.035
		c3.362-1.874,6.385-4.561,8.984-7.985c0.854-1.128,1.649-2.315,2.382-3.561C53.588,320.822,48.695,318.663,45.548,316.225"/>
	<path fill="#0095D5" d="M36.004,341.035c0.05-0.2,0.078-0.41,0.078-0.627c0-0.199-0.023-0.391-0.066-0.576
		c0.922-0.185,2.413-0.627,3.241-1.639c0.484-0.589,0.685-1.28,0.597-2.058c-0.077-0.685-0.411-1.236-0.967-1.6
		c-1.567-1.023-4.549-0.277-5.392-0.036c-0.843-0.241-3.825-0.987-5.393,0.036c-0.556,0.363-0.89,0.915-0.967,1.6
		c-0.087,0.777,0.113,1.469,0.597,2.058c0.834,1.019,2.341,1.462,3.261,1.643c-0.042,0.185-0.065,0.374-0.065,0.572
		c0,0.209,0.027,0.414,0.075,0.609c-0.665,0.659-2.827,2.555-5.952,2.901l0.001,0.001c0.09,0.161,0.366,0.606,0.909,1.091
		c2.775-0.521,4.74-2.046,5.636-2.874c0.088,0.098,0.185,0.188,0.288,0.271c-0.198,0.763-1.026,2.729-4.406,3.58
		c0.56,0.256,1.232,0.466,2.034,0.581c2.351-1.065,3.188-2.69,3.485-3.636c0.164,0.033,0.334,0.049,0.507,0.049
		c0.167,0,0.33-0.016,0.488-0.046c0.297,0.945,1.135,2.567,3.484,3.633c0.802-0.116,1.475-0.326,2.035-0.581
		c-3.366-0.848-4.202-2.786-4.404-3.564c0.105-0.086,0.205-0.177,0.296-0.277c0.9,0.831,2.86,2.347,5.624,2.864
		c0.543-0.486,0.819-0.931,0.909-1.092C38.84,343.576,36.687,341.708,36.004,341.035"/>
	<path fill="#FFFFFF" d="M38.223,335.554c0.252,0.164,0.386,0.393,0.423,0.717c0.05,0.443-0.057,0.82-0.328,1.151
		c-0.36,0.439-0.966,0.748-1.569,0.956c0.294-0.613,0.337-1.232,0.12-1.815c-0.215-0.58-0.571-0.995-0.974-1.292
		C36.818,335.181,37.719,335.225,38.223,335.554"/>
	<path fill="#FFFFFF" d="M31.261,336.985c0.454-1.223,2.164-1.242,2.233-1.24h0c0.004,0,0.462-0.003,0.979,0.162
		c0.644,0.205,1.066,0.568,1.256,1.078c0.205,0.555-0.184,1.129-0.519,1.493c-0.454-0.402-1.052-0.647-1.705-0.647
		c-0.66,0-1.262,0.249-1.718,0.658C31.45,338.13,31.052,337.55,31.261,336.985"/>
	<path fill="#FFFFFF" d="M30.244,338.382c-0.603-0.207-1.208-0.517-1.571-0.958c-0.271-0.331-0.379-0.709-0.329-1.152
		c0.036-0.324,0.17-0.552,0.423-0.717c0.357-0.234,0.916-0.323,1.54-0.323c0.254,0,0.52,0.015,0.788,0.041
		c-0.402,0.296-0.758,0.711-0.973,1.291C29.872,337.237,29.992,337.862,30.244,338.382"/>
	<path fill="#FFFFFF" d="M32.145,340.408c0-0.751,0.61-1.36,1.36-1.36s1.36,0.609,1.36,1.36c0,0.749-0.61,1.359-1.36,1.359
		S32.145,341.157,32.145,340.408"/>
	<path fill="#FFFFFF" d="M41.029,345.01c-2.764-0.518-4.725-2.033-5.625-2.864c-0.091,0.101-0.19,0.191-0.296,0.277
		c0.202,0.778,1.037,2.718,4.404,3.565C40.16,345.695,40.657,345.344,41.029,345.01"/>
	<path fill="#FFFFFF" d="M31.597,342.137c-0.896,0.827-2.861,2.353-5.637,2.873c0.373,0.333,0.87,0.686,1.519,0.979
		c3.38-0.852,4.209-2.816,4.407-3.579C31.782,342.326,31.686,342.234,31.597,342.137"/>
	<path d="M67.694,306.063c0.025-0.199-0.051-0.392-0.203-0.521c-0.115-0.097-0.263-0.145-0.408-0.137
		c0.118-0.247,0.227-0.504,0.323-0.768c0.426-1.161,0.651-2.498,0.665-3.976c0.002-0.199-0.094-0.383-0.259-0.493
		c-0.12-0.081-0.264-0.113-0.403-0.095c0.087-0.244,0.165-0.498,0.23-0.752c0.31-1.198,0.4-2.551,0.268-4.023
		c-0.017-0.196-0.132-0.37-0.306-0.464c-0.129-0.07-0.277-0.089-0.417-0.054c0.077-0.289,0.139-0.586,0.186-0.887
		c0.191-1.224,0.149-2.579-0.125-4.03c-0.037-0.196-0.168-0.357-0.351-0.433c-0.099-0.042-0.207-0.054-0.312-0.039
		c0.037-0.206,0.067-0.415,0.09-0.623c0.133-1.23,0.027-2.583-0.315-4.021c-0.046-0.192-0.185-0.348-0.371-0.416
		c-0.186-0.067-0.392-0.036-0.55,0.081c-0.001,0-0.001,0.001-0.001,0.001c0.026-0.318,0.034-0.646,0.024-0.975
		c-0.037-1.237-0.329-2.563-0.866-3.94c-0.072-0.184-0.23-0.318-0.424-0.36c-0.158-0.034-0.321,0-0.452,0.089
		c-0.009-0.298-0.033-0.599-0.074-0.899c-0.167-1.226-0.593-2.515-1.271-3.83c-0.091-0.176-0.261-0.293-0.458-0.314
		c-0.16-0.018-0.319,0.031-0.439,0.134c-0.043-0.275-0.101-0.554-0.172-0.83c-0.308-1.198-0.884-2.431-1.711-3.662
		c-0.11-0.164-0.3-0.26-0.493-0.26c-0.192,0.003-0.369,0.098-0.477,0.255c-0.099-0.321-0.219-0.646-0.359-0.964
		c-0.498-1.134-1.266-2.257-2.282-3.341c-0.14-0.148-0.351-0.214-0.55-0.172c-0.144,0.031-0.27,0.115-0.354,0.231
		c-0.155-0.32-0.333-0.638-0.529-0.943c-0.667-1.038-1.585-2.016-2.73-2.907c-0.157-0.122-0.363-0.156-0.55-0.094
		c-0.15,0.052-0.271,0.16-0.339,0.3c-0.761-1.021-1.842-1.782-3.211-2.274c0.239,0.022,0.484,0.044,0.737,0.059
		c1.624,0.099,2.767-0.244,2.815-0.259c0.345-0.104,0.564-0.443,0.52-0.802c-0.044-0.357-0.34-0.631-0.7-0.648
		c-1.773-0.086-2.439-0.448-3.283-0.909c-0.161-0.087-0.326-0.178-0.502-0.269l4.158-0.621c0.365-0.056,0.634-0.368,0.632-0.735
		c-0.001-0.369-0.272-0.681-0.637-0.732l-4.126-0.592c0.478-0.129,1.035-0.292,1.607-0.49c1.537-0.531,2.462-1.286,2.5-1.318
		c0.278-0.229,0.351-0.626,0.173-0.938c-0.179-0.313-0.557-0.454-0.896-0.331c-1.671,0.601-2.425,0.521-3.38,0.419
		c-0.181-0.019-0.365-0.039-0.56-0.054l3.597-2.159c0.316-0.189,0.444-0.581,0.303-0.921c-0.141-0.34-0.511-0.524-0.868-0.434
		l-4.053,1.032c0.395-0.303,0.85-0.671,1.307-1.076c1.215-1.079,1.78-2.131,1.804-2.176c0.168-0.318,0.084-0.713-0.201-0.933
		c-0.285-0.222-0.687-0.206-0.954,0.037c-1.312,1.195-2.039,1.411-2.96,1.684c-0.173,0.05-0.347,0.102-0.531,0.161l2.495-3.361
		c0.219-0.296,0.188-0.708-0.073-0.967c-0.261-0.26-0.672-0.29-0.967-0.069l-3.361,2.51c0.25-0.433,0.532-0.95,0.8-1.504
		c0.708-1.464,0.827-2.651,0.832-2.702c0.033-0.358-0.196-0.689-0.544-0.784c-0.348-0.096-0.713,0.074-0.866,0.4
		c-0.753,1.606-1.343,2.085-2.089,2.689c-0.137,0.11-0.276,0.225-0.421,0.348l1.02-4.051c0.09-0.358-0.096-0.728-0.436-0.867
		c-0.34-0.141-0.732-0.011-0.921,0.305l-2.155,3.618c0.065-0.498,0.128-1.088,0.164-1.708c0.093-1.624-0.252-2.767-0.268-2.814
		c-0.106-0.344-0.445-0.563-0.803-0.518c-0.358,0.047-0.631,0.343-0.647,0.703c-0.08,1.773-0.441,2.439-0.898,3.285
		c-0.083,0.152-0.168,0.309-0.253,0.475l-0.603-4.124c-0.053-0.365-0.366-0.635-0.733-0.635H33.49c-0.37,0-0.681,0.272-0.733,0.638
		l-0.579,4.104c-0.127-0.474-0.288-1.021-0.482-1.586c-0.531-1.536-1.285-2.462-1.317-2.501c-0.23-0.278-0.626-0.352-0.939-0.173
		c-0.313,0.179-0.454,0.557-0.332,0.896c0.601,1.671,0.52,2.425,0.417,3.38c-0.02,0.186-0.041,0.373-0.057,0.573l-2.175-3.611
		c-0.19-0.315-0.583-0.443-0.922-0.302c-0.34,0.143-0.523,0.513-0.432,0.869l1.037,4.03c-0.3-0.39-0.662-0.839-1.06-1.289
		c-1.08-1.216-2.132-1.781-2.175-1.805c-0.319-0.169-0.713-0.085-0.934,0.199c-0.221,0.285-0.206,0.688,0.037,0.954
		c1.195,1.314,1.41,2.041,1.682,2.963c0.052,0.175,0.104,0.353,0.165,0.542l-3.384-2.503c-0.296-0.22-0.707-0.188-0.967,0.073
		c-0.26,0.262-0.288,0.674-0.067,0.969l2.508,3.343c-0.429-0.247-0.939-0.525-1.485-0.79c-1.463-0.709-2.651-0.829-2.701-0.834
		c-0.359-0.034-0.691,0.194-0.786,0.543c-0.096,0.348,0.074,0.713,0.4,0.867c1.607,0.754,2.083,1.344,2.688,2.091
		c0.112,0.14,0.228,0.282,0.353,0.43l-4.073-1.021c-0.357-0.09-0.726,0.097-0.866,0.437c-0.14,0.341-0.01,0.732,0.307,0.921
		l3.61,2.145c-0.494-0.065-1.078-0.128-1.689-0.163c-1.623-0.096-2.767,0.25-2.814,0.265c-0.344,0.106-0.563,0.445-0.517,0.803
		c0.045,0.357,0.341,0.631,0.702,0.647c1.773,0.08,2.44,0.443,3.284,0.9c0.155,0.085,0.313,0.17,0.482,0.257l-4.144,0.608
		c-0.364,0.055-0.634,0.367-0.634,0.734c0.001,0.369,0.271,0.682,0.635,0.734l4.174,0.606c-0.485,0.131-1.053,0.297-1.637,0.501
		c-1.536,0.535-2.459,1.293-2.498,1.324c-0.278,0.23-0.35,0.627-0.171,0.939c0.18,0.313,0.558,0.452,0.897,0.329
		c0.969-0.351,1.628-0.47,2.198-0.49c-0.894,0.781-1.535,1.405-1.853,1.807c-0.167,0.21-0.324,0.427-0.468,0.647
		c-0.07-0.115-0.179-0.203-0.31-0.248c-0.188-0.063-0.392-0.03-0.549,0.092c-1.176,0.909-2.113,1.899-2.787,2.941
		c-0.197,0.303-0.372,0.615-0.524,0.931c-0.088-0.135-0.229-0.229-0.392-0.257c-0.195-0.033-0.392,0.032-0.527,0.178
		c-1.016,1.082-1.784,2.206-2.282,3.34c-0.133,0.302-0.248,0.608-0.343,0.915c-0.101-0.096-0.234-0.155-0.377-0.163
		c-0.194-0.009-0.384,0.08-0.502,0.238c-0.878,1.193-1.505,2.398-1.863,3.583c-0.094,0.311-0.17,0.626-0.228,0.938
		c-0.125-0.142-0.307-0.215-0.497-0.195c-0.196,0.02-0.369,0.136-0.461,0.31c-0.69,1.309-1.129,2.594-1.305,3.818
		c-0.043,0.305-0.071,0.61-0.083,0.911c-0.139-0.114-0.323-0.157-0.5-0.117c-0.193,0.045-0.349,0.182-0.418,0.367
		c-0.519,1.386-0.791,2.716-0.811,3.951c-0.005,0.303,0.005,0.603,0.031,0.896c-0.15-0.087-0.331-0.104-0.495-0.045
		c-0.187,0.067-0.325,0.224-0.371,0.415c-0.342,1.439-0.449,2.792-0.315,4.021c0.025,0.229,0.059,0.46,0.102,0.686
		c-0.087-0.006-0.177,0.01-0.258,0.044c-0.183,0.075-0.313,0.236-0.351,0.432c-0.275,1.452-0.317,2.808-0.125,4.031
		c0.048,0.311,0.113,0.621,0.193,0.918c-0.081,0.003-0.161,0.022-0.235,0.06c-0.178,0.087-0.299,0.257-0.323,0.453
		c-0.183,1.468-0.14,2.823,0.128,4.031c0.058,0.262,0.127,0.52,0.208,0.773c-0.132-0.018-0.27,0.011-0.386,0.085
		c-0.167,0.106-0.27,0.287-0.273,0.485c-0.026,1.478,0.16,2.821,0.554,3.995c0.114,0.339,0.248,0.672,0.399,0.986
		c-0.039-0.011-0.064-0.018-0.073-0.02c-0.191-0.051-0.395,0-0.542,0.134c-0.148,0.132-0.217,0.329-0.186,0.524
		c0.231,1.459,0.65,2.751,1.243,3.84c0.114,0.209,0.236,0.413,0.364,0.609c-0.103,0.028-0.198,0.083-0.272,0.161
		c-0.138,0.146-0.192,0.347-0.146,0.541c0.34,1.438,0.854,2.695,1.528,3.737c0.159,0.247,0.33,0.484,0.509,0.709
		c-0.158,0.019-0.303,0.101-0.4,0.23c-0.12,0.159-0.151,0.365-0.083,0.552c0.505,1.391,1.162,2.582,1.951,3.54
		c0.172,0.21,0.354,0.411,0.542,0.603c-0.142,0.041-0.263,0.135-0.339,0.265c-0.101,0.174-0.107,0.383-0.018,0.561
		c0.666,1.323,1.458,2.431,2.355,3.292c0.189,0.182,0.386,0.354,0.588,0.517c-0.131,0.058-0.238,0.161-0.3,0.296
		c-0.082,0.183-0.066,0.392,0.042,0.559c0.802,1.246,1.707,2.266,2.689,3.03c0.296,0.229,0.603,0.439,0.917,0.624
		c-0.069,0.021-0.112,0.036-0.125,0.041c-0.188,0.066-0.329,0.224-0.374,0.417c-0.046,0.195,0.009,0.397,0.147,0.541
		c1.021,1.063,2.073,1.905,3.129,2.503c0.862,0.488,1.729,0.816,2.577,0.976c0.737,0.139,1.479,0.145,2.08,0.024
		c0.041-0.005,0.08-0.014,0.117-0.026c1.826,1.284,3.759,2.362,5.749,3.202c1.669,0.706,3.383,1.247,5.094,1.61
		c0.358,0.076,0.701,0.142,1.027,0.197c-0.713-0.263-1.455-0.666-1.955-1.277c-0.088-0.106-0.164-0.218-0.232-0.332
		c-1.179-0.319-2.353-0.724-3.506-1.211c-1.904-0.804-3.753-1.833-5.503-3.059c0.009-0.033,0.014-0.058,0.015-0.065
		c0.028-0.595-0.039-1.192-0.196-1.782c1.265,1.02,2.385,1.848,3.62,2.537c1.679,0.934,3.412,1.654,5.187,2.163
		c0.001-0.103,0.007-0.204,0.019-0.309c0.033-0.303,0.12-0.576,0.25-0.821c-1.647-0.481-3.261-1.159-4.831-2.035
		c-3.363-1.873-6.386-4.56-8.985-7.985c-0.909-1.195-1.748-2.462-2.518-3.793c1.996-0.883,6.443-2.888,10.337-4.891
		c0.022,0.172,0.069,0.341,0.141,0.507c0.337,0.772,1.196,1.056,1.858,1.157c0.226,0.036,0.444,0.052,0.631,0.059
		c0.249,0.625,0.802,1.095,1.604,1.349c0.314,0.1,0.621,0.154,0.865,0.182c0.138,0.353,0.369,0.644,0.683,0.857
		c0.763,0.519,1.833,0.45,2.444,0.351c0.344,0.421,0.786,0.691,1.296,0.794c0.161,0.031,0.322,0.045,0.481,0.045
		c0.415,0,0.82-0.096,1.181-0.229v6.942c0,0.508,0.412,0.918,0.92,0.918c0.507,0,0.918-0.41,0.918-0.918v-7.249
		c0.929,0.185,1.677,0.027,2.192-0.176c0.418-0.165,0.734-0.378,0.945-0.548c0.898,0.159,1.712-0.087,2.324-0.706
		c0.215-0.219,0.373-0.45,0.485-0.648c1.238,0.058,1.978-0.458,2.392-0.933c0.215-0.246,0.359-0.5,0.457-0.717
		c0.76-0.033,1.376-0.271,1.836-0.715c0.23-0.222,0.391-0.467,0.503-0.706c3.147,2.438,8.041,4.597,10.256,5.51
		c-0.732,1.244-1.527,2.432-2.382,3.56c-2.599,3.425-5.622,6.111-8.984,7.986c-1.571,0.875-3.185,1.553-4.834,2.034
		c0.131,0.245,0.217,0.519,0.25,0.82c0.012,0.104,0.018,0.206,0.019,0.309c1.776-0.508,3.51-1.229,5.189-2.163
		c1.316-0.734,2.532-1.655,3.658-2.564c-0.167,0.596-0.236,1.201-0.208,1.8c-0.001,0.03,0.006,0.058,0.009,0.087
		c-0.538,0.413-1.961,1.438-4.037,2.452c-1.563,0.764-3.185,1.372-4.819,1.808c-0.068,0.018-0.137,0.033-0.206,0.051
		c-0.062,0.096-0.126,0.19-0.202,0.281c-0.51,0.622-1.271,1.028-1.997,1.292c0.905-0.14,1.811-0.327,2.71-0.568
		c1.707-0.456,3.399-1.092,5.028-1.892c2.19-1.073,3.66-2.139,4.219-2.571c0.03,0.012,0.061,0.022,0.087,0.03
		c0.617,0.122,1.354,0.117,2.093-0.022c0.849-0.159,1.716-0.487,2.577-0.975c1.057-0.599,2.109-1.44,3.129-2.503
		c0.138-0.144,0.194-0.347,0.148-0.542c-0.046-0.194-0.186-0.351-0.375-0.417c-0.015-0.005-0.045-0.015-0.092-0.03
		c0.319-0.188,0.632-0.4,0.934-0.634c0.983-0.766,1.887-1.785,2.688-3.03c0.108-0.168,0.124-0.377,0.042-0.559
		c-0.062-0.135-0.168-0.239-0.3-0.296c0.202-0.162,0.398-0.336,0.588-0.518c0.897-0.86,1.689-1.969,2.355-3.291
		c0.089-0.177,0.083-0.387-0.019-0.56c-0.09-0.155-0.247-0.26-0.422-0.283c0.205-0.206,0.404-0.424,0.592-0.651
		c0.79-0.96,1.446-2.15,1.951-3.54c0.064-0.176,0.04-0.374-0.064-0.529c-0.104-0.153-0.278-0.25-0.464-0.257c0,0-0.002,0-0.002,0
		c0.172-0.213,0.338-0.439,0.493-0.67c0.69-1.033,1.223-2.281,1.587-3.715c0.048-0.193-0.002-0.396-0.137-0.543
		c-0.123-0.131-0.297-0.2-0.474-0.187c0.162-0.253,0.313-0.519,0.45-0.792C67.14,308.835,67.513,307.53,67.694,306.063
		 M66.999,301.467c0.011,0.007,0.016,0.017,0.016,0.029c-0.072,1.007-0.259,1.932-0.554,2.749c-0.298,0.825-0.708,1.547-1.22,2.148
		c-0.602,0.707-1.223,1.084-1.461,1.212c-0.005,0.003-0.01,0.004-0.015,0.004c-0.009,0-0.019-0.004-0.025-0.012
		c-0.812-1.101-1.209-2.453-1.181-4.02c0.01-0.498,0.063-1.006,0.161-1.508c0.002-0.011,0.011-0.021,0.022-0.023
		c0.012-0.003,0.024,0.001,0.032,0.01c0.724,0.892,1.125,2.063,1.129,2.075c0.057,0.168,0.209,0.284,0.388,0.296
		c0.177,0.013,0.343-0.087,0.42-0.248c0.67-1.398,1.597-2.245,2.255-2.71C66.976,301.461,66.989,301.461,66.999,301.467
		 M66.888,296.21c0.009-0.008,0.021-0.01,0.032-0.004c0.011,0.004,0.018,0.014,0.018,0.026c0.028,1.01-0.065,1.948-0.278,2.791
		c-0.215,0.849-0.552,1.607-1.001,2.256c-0.528,0.761-1.108,1.195-1.333,1.347c-0.005,0.004-0.011,0.007-0.018,0.007
		c-0.008,0-0.017-0.004-0.023-0.012c-1.431-1.618-1.565-4.02-1.518-5.307c0-0.013,0.008-0.024,0.02-0.028
		c0.011-0.004,0.024-0.001,0.033,0.008c0.774,0.842,1.285,1.865,1.291,1.874c0.078,0.158,0.237,0.254,0.416,0.243
		c0.175-0.01,0.327-0.123,0.387-0.288C65.442,297.668,66.28,296.734,66.888,296.21 M66.32,290.87
		c0.008-0.008,0.021-0.012,0.032-0.008c0.012,0.004,0.02,0.014,0.021,0.025c0.125,1.002,0.125,1.946-0.005,2.805
		c-0.13,0.867-0.392,1.655-0.775,2.346c-0.459,0.824-1.003,1.316-1.215,1.49c-0.005,0.004-0.013,0.006-0.02,0.006
		c-0.006,0-0.013-0.002-0.02-0.006c-1.412-1.173-1.84-3.706-1.969-5.111c-0.001-0.013,0.005-0.024,0.017-0.03
		c0.01-0.007,0.024-0.004,0.034,0.005c0.827,0.749,1.42,1.69,1.425,1.699c0.093,0.149,0.265,0.228,0.438,0.201
		c0.173-0.026,0.313-0.153,0.356-0.324C65.022,292.467,65.764,291.456,66.32,290.87 M65.479,285.799
		c0.008-0.009,0.021-0.013,0.032-0.009c0.011,0.002,0.02,0.012,0.022,0.023c0.173,0.996,0.217,1.938,0.128,2.803
		c-0.091,0.873-0.313,1.673-0.665,2.378c-0.412,0.83-0.923,1.345-1.124,1.527c-0.006,0.005-0.013,0.007-0.021,0.007
		c-0.006,0-0.013-0.002-0.019-0.007c-1.188-1.006-1.754-2.485-2.019-3.55c-0.118-0.478-0.205-0.979-0.258-1.489
		c-0.001-0.011,0.005-0.023,0.016-0.028c0.011-0.007,0.024-0.006,0.034,0.002c0.885,0.716,1.548,1.664,1.555,1.673
		c0.1,0.146,0.275,0.216,0.446,0.181c0.172-0.034,0.306-0.168,0.341-0.341C64.259,287.452,64.953,286.408,65.479,285.799
		 M24.953,286.126c0.011-0.068,0.023-0.136,0.037-0.207c0.695-3.49,2.064-5.873,3.09-7.257c0.77-1.037,1.469-1.687,1.813-1.976
		c0.11-0.081,0.221-0.168,0.328-0.26c0.337-0.288,0.389-0.79,0.118-1.142c-0.271-0.35-0.768-0.428-1.133-0.175
		c-0.034,0.023-0.159,0.113-0.351,0.273c-0.776,0.542-1.219,0.365-1.337,0.299c-0.251-0.143-0.358-0.477-0.288-0.894
		c0.129-0.755,0.98-1.76,1.297-2.083c0.014-0.015,0.027-0.029,0.04-0.045c1.714-2.021,4.447-2.065,4.473-2.065
		s0.052-0.001,0.079-0.004c0.008,0,0.859-0.069,1.925,0.281c1.462,0.481,2.594,1.482,3.361,2.979
		c1.077,2.094,1.894,4.21,2.498,6.465c-1.521-0.547-2.731-1.53-2.744-1.54c-0.354-0.293-0.879-0.242-1.171,0.11
		c-0.142,0.171-0.208,0.388-0.187,0.608c0.02,0.222,0.126,0.422,0.298,0.563c0.08,0.065,1.962,1.607,4.25,2.117
		c0.162,0.764,0.307,1.564,0.457,2.502c-0.73-0.373-1.591-0.602-2.295-0.788c-0.483-0.127-0.938-0.248-1.29-0.389
		c-1.561-0.625-2.887-1.665-2.9-1.676c-0.36-0.284-0.883-0.223-1.169,0.137c-0.285,0.358-0.224,0.884,0.136,1.169
		c0.062,0.048,1.531,1.2,3.314,1.914c0.448,0.181,0.953,0.313,1.486,0.455c1.977,0.522,2.87,0.925,2.913,1.904
		c-0.057,0.152-0.141,0.29-0.249,0.408c-0.629,0.686-2.019,0.756-2.497,0.725c-0.019-0.001-0.037-0.001-0.057-0.001h-1.859
		c-0.365-0.006-2.266-0.085-3.907-1.143C29.227,284.679,27.315,285.104,24.953,286.126 M32.126,288.534h-5.672
		c-0.581,0-0.98-0.143-1.222-0.437c-0.051-0.063-0.097-0.134-0.137-0.215C27.469,286.804,28.721,286.423,32.126,288.534
		 M34.413,298.783v-8.659h2.931c0.015,0,0.028,0,0.039,0c0.015,0,0.024,0,0.031,0h1.762c0.043,0.004,0.13,0.007,0.25,0.007
		c0.25,0,0.64-0.016,1.081-0.086c1.048-0.168,1.858-0.555,2.409-1.151c0.23-0.25,0.471-0.604,0.62-1.081
		c0.018-0.041,0.031-0.088,0.04-0.136c0.109-0.413,0.149-0.913,0.061-1.513l-0.024-0.163c-0.506-3.433-1.135-7.702-3.793-12.875
		c-2.226-4.333-6.351-4.154-6.816-4.119c-0.388,0.007-3.521,0.141-5.629,2.606c-0.224,0.23-1.482,1.578-1.709,2.909
		c-0.187,1.088,0.224,2.063,1.069,2.542c0.136,0.078,0.277,0.14,0.423,0.185c-1.323,1.653-2.927,4.356-3.725,8.36
		c-0.134,0.67-0.161,1.294-0.089,1.851c0.002,0.045,0.007,0.092,0.019,0.138c0.095,0.594,0.311,1.106,0.64,1.509
		c0.382,0.465,1.117,1.018,2.451,1.018h6.123v8.66v5.291c-1.603-0.048-2.83,0.576-4.353,1.648c-2.166,1.448-9.46,2.887-21.684,4.277
		c-0.858-3.611-1.294-7.37-1.294-11.217c0-5.068,0.753-9.984,2.239-14.61c1.432-4.461,3.479-8.465,6.087-11.901
		c2.599-3.425,5.622-6.112,8.985-7.986c3.467-1.934,7.148-2.914,10.94-2.914c3.793,0,7.474,0.98,10.941,2.914
		c3.362,1.874,6.385,4.562,8.984,7.986c2.607,3.437,4.656,7.44,6.088,11.901c1.484,4.626,2.237,9.542,2.237,14.61
		c0,3.902-0.447,7.716-1.331,11.376c-7.439-0.427-16.232-3.185-16.499-3.269c-0.624-0.212-1.195-0.417-1.699-0.6
		c-1.842-0.665-3.174-1.146-4.741-1.075c-0.092,0.004-0.183,0.008-0.271,0.012c-0.901-0.44-1.694-0.743-2.793-0.943L34.413,298.783
		L34.413,298.783z M45.968,259.657c-0.45,0.178-1.152,0.419-1.944,0.566c-0.501,0.094-0.977,0.14-1.426,0.14
		c-1.069,0-1.984-0.265-2.733-0.791c-0.009-0.006-0.014-0.017-0.013-0.026c0-0.011,0.006-0.02,0.016-0.025
		c0.341-0.196,0.899-0.466,1.609-0.633c0.763-0.181,1.543-0.204,2.319-0.072c0.727,0.125,1.459,0.39,2.176,0.787
		c0.01,0.005,0.017,0.017,0.016,0.028C45.986,259.642,45.979,259.653,45.968,259.657 M47.037,262.671
		c0.007,0.008,0.01,0.018,0.007,0.028c-0.002,0.01-0.01,0.019-0.02,0.022c-0.308,0.105-0.802,0.238-1.406,0.264
		c-0.07,0.002-0.139,0.003-0.209,0.003c-1.266,0-2.505-0.465-3.687-1.383c-0.009-0.006-0.014-0.018-0.012-0.029
		c0.002-0.011,0.011-0.02,0.021-0.023c0.53-0.168,1.065-0.27,1.589-0.301C44.813,261.161,46.061,261.638,47.037,262.671
		 M41.189,257.982c-0.499,0.233-1.363,0.543-2.655,0.699c-0.18,0.022-0.329,0.155-0.373,0.332c-0.042,0.175,0.028,0.361,0.178,0.465
		c0.01,0.006,1.013,0.697,1.74,1.614c0.007,0.009,0.008,0.022,0.003,0.033c-0.005,0.01-0.016,0.016-0.028,0.016h0
		c-1.218-0.036-3.505-0.393-5.14-2.344c-0.01-0.013-0.009-0.03,0.003-0.042c0.257-0.246,0.711-0.596,1.404-0.857
		c1.303-0.491,2.985-0.482,4.863,0.027c0.013,0.003,0.021,0.015,0.023,0.026C41.208,257.965,41.199,257.977,41.189,257.982
		 M35.726,257.089c-0.433,0.339-1.217,0.823-2.493,1.211c-0.18,0.055-0.304,0.217-0.31,0.404c-0.005,0.188,0.108,0.358,0.285,0.424
		c0.011,0.004,1.094,0.414,1.971,1.153c0.01,0.008,0.014,0.021,0.01,0.032c-0.003,0.013-0.014,0.02-0.026,0.021
		c-0.307,0.03-0.678,0.053-1.088,0.053c-1.316,0-3.041-0.235-4.374-1.248c-0.013-0.01-0.016-0.028-0.007-0.042
		c0.202-0.292,0.572-0.723,1.196-1.117c1.186-0.75,2.853-1.077,4.819-0.946c0.013,0.001,0.024,0.009,0.028,0.021
		C35.74,257.067,35.736,257.081,35.726,257.089 M30.113,257.181c-0.32,0.435-0.97,1.086-2.252,1.717
		c-0.169,0.085-0.266,0.266-0.24,0.452s0.167,0.337,0.353,0.37c0.012,0.003,1.155,0.219,2.178,0.731
		c0.011,0.005,0.018,0.018,0.017,0.03c0,0.012-0.009,0.022-0.021,0.026c-0.479,0.157-0.966,0.28-1.448,0.365
		c-0.434,0.076-0.952,0.137-1.509,0.137c-0.829,0-1.747-0.132-2.616-0.535c-0.015-0.006-0.022-0.023-0.016-0.039
		c0.132-0.329,0.4-0.827,0.92-1.343c1.012-1.003,2.604-1.681,4.604-1.961c0.012-0.002,0.024,0.004,0.03,0.014
		C30.121,257.158,30.12,257.17,30.113,257.181 M22.887,260.626c-0.139,0.118-0.189,0.313-0.125,0.484
		c0.064,0.17,0.229,0.283,0.411,0.283h0.003c0.003,0,0.482-0.003,1.117,0.08c0.429,0.057,0.824,0.139,1.176,0.245
		c0.011,0.004,0.02,0.014,0.021,0.026c0.001,0.013-0.005,0.024-0.017,0.03c-0.456,0.23-0.923,0.43-1.392,0.591
		c-1.026,0.354-1.908,0.477-2.636,0.477c-0.638,0-1.158-0.094-1.554-0.207c-0.015-0.005-0.024-0.02-0.021-0.036
		c0.187-0.921,1.041-3.205,4.953-4.53c0.011-0.003,0.024-0.001,0.032,0.008c0.008,0.009,0.01,0.022,0.005,0.033
		C24.606,258.703,24.056,259.62,22.887,260.626 M62.788,284.009c0.1-1.546,0.644-2.675,1.082-3.349
		c0.006-0.01,0.019-0.015,0.029-0.014c0.011,0.003,0.021,0.01,0.025,0.021c0.309,0.962,0.481,1.892,0.512,2.76
		c0.031,0.876-0.08,1.698-0.331,2.445c-0.294,0.878-0.729,1.456-0.902,1.664c-0.006,0.007-0.015,0.011-0.024,0.011
		c-0.006,0-0.011-0.001-0.016-0.005c-1.104-0.691-1.958-1.791-2.539-3.269c-0.177-0.455-0.324-0.935-0.435-1.426
		c-0.002-0.013,0.002-0.024,0.011-0.032c0.011-0.007,0.024-0.007,0.035-0.001c0.984,0.589,1.785,1.451,1.793,1.46
		c0.119,0.13,0.303,0.175,0.468,0.117C62.662,284.335,62.776,284.183,62.788,284.009 M61.044,279.166
		c-0.061-1.547,0.362-2.725,0.728-3.438c0.005-0.012,0.013-0.019,0.028-0.017c0.011,0,0.023,0.007,0.027,0.018
		c0.407,0.928,0.676,1.833,0.796,2.693c0.122,0.868,0.097,1.698-0.075,2.467c-0.202,0.901-0.575,1.521-0.726,1.745
		c-0.004,0.009-0.015,0.013-0.025,0.013c-0.004,0-0.009,0-0.014-0.002c-1.169-0.576-2.134-1.584-2.864-2.994
		c-0.225-0.433-0.42-0.895-0.582-1.372c-0.003-0.012,0-0.023,0.008-0.033c0.01-0.009,0.023-0.01,0.034-0.005
		c1.036,0.482,1.926,1.263,1.936,1.271c0.131,0.116,0.318,0.144,0.477,0.067C60.953,279.503,61.052,279.342,61.044,279.166
		 M58.608,275.057L58.608,275.057c0.155-0.091,0.24-0.27,0.213-0.447c-0.242-1.529,0.038-2.743,0.317-3.494
		c0.004-0.012,0.014-0.02,0.026-0.021c0.012,0,0.023,0.005,0.029,0.016c0.515,0.876,0.888,1.747,1.109,2.588
		c0.224,0.85,0.296,1.677,0.216,2.459c-0.094,0.918-0.391,1.573-0.515,1.814c-0.005,0.01-0.016,0.016-0.027,0.016
		c-0.003,0-0.006,0-0.01-0.001c-1.319-0.46-2.425-1.359-3.285-2.674c-0.276-0.422-0.518-0.876-0.718-1.349
		c-0.004-0.01-0.003-0.023,0.005-0.031c0.007-0.009,0.02-0.014,0.031-0.009c1.13,0.32,2.105,1.087,2.115,1.095
		C58.255,275.133,58.452,275.146,58.608,275.057 M55.328,270.859c0.153,0.106,0.357,0.104,0.508-0.006
		c0.151-0.11,0.215-0.305,0.16-0.483c-0.423-1.365-0.354-2.637-0.22-3.463c0.002-0.011,0.01-0.021,0.022-0.023
		c0.011-0.004,0.024,0,0.031,0.009c0.633,0.77,1.131,1.556,1.479,2.337c0.358,0.802,0.563,1.606,0.611,2.392
		c0.053,0.886-0.111,1.552-0.213,1.869c-0.004,0.014-0.017,0.021-0.029,0.021c0,0-0.004,0-0.006,0
		c-1.286-0.24-2.493-0.949-3.587-2.111c-0.362-0.385-0.699-0.808-1.002-1.257c-0.007-0.01-0.007-0.022-0.002-0.033
		c0.006-0.01,0.018-0.016,0.03-0.015C54.343,270.183,55.319,270.851,55.328,270.859 M52.055,267.115
		c0.168,0.065,0.364,0.021,0.485-0.114c0.122-0.135,0.146-0.334,0.063-0.494c-0.713-1.372-0.833-2.611-0.809-3.41
		c0-0.011,0.007-0.021,0.018-0.026c0.011-0.005,0.023-0.002,0.032,0.005c0.741,0.655,1.353,1.354,1.821,2.075
		c0.477,0.734,0.811,1.5,0.992,2.276c0.214,0.917,0.157,1.649,0.122,1.922c-0.002,0.016-0.015,0.026-0.03,0.026
		c-0.024,0.001-0.049,0.001-0.074,0.001c-1.458,0-2.801-0.795-3.677-1.469c-0.435-0.333-0.859-0.715-1.26-1.132
		c-0.008-0.011-0.011-0.022-0.006-0.034c0.004-0.01,0.015-0.018,0.027-0.019c0.055-0.002,0.109-0.003,0.164-0.003
		C51.023,266.72,52.044,267.111,52.055,267.115 M50.757,263.711c0.346,0.884,0.386,1.715,0.379,2.134
		c0,0.016-0.013,0.028-0.029,0.028c-0.076,0.005-0.154,0.008-0.232,0.008c-1.798,0-3.888-1.207-5.002-1.947
		c-0.01-0.007-0.015-0.02-0.012-0.031c0.001-0.013,0.011-0.021,0.024-0.024c1.138-0.219,2.223,0.031,2.233,0.034
		c0.182,0.043,0.371-0.034,0.47-0.191c0.101-0.157,0.089-0.361-0.027-0.508c-0.71-0.888-1.149-1.913-1.393-2.616
		c-0.003-0.012-0.001-0.024,0.007-0.033c0.008-0.007,0.021-0.01,0.032-0.006C48.976,261.147,50.17,262.208,50.757,263.711
		 M18.155,258.403c0.085-0.034,0.171-0.065,0.257-0.094c1.057-0.369,2.064-0.614,2.57-0.729c1.168-0.261,1.989-0.774,2.023-0.796
		c0.106-0.068,0.159-0.194,0.133-0.315c-0.025-0.122-0.125-0.217-0.249-0.234l-5.182-0.754l5.18-0.761
		c0.146-0.021,0.255-0.147,0.255-0.295c0.001-0.147-0.109-0.274-0.255-0.296c-0.011-0.003-1.127-0.174-2.289-0.698
		c-0.343-0.155-0.644-0.318-0.911-0.464c-0.458-0.248-0.899-0.486-1.484-0.672c0.092,0.002,0.183,0.006,0.275,0.011
		c1.124,0.065,2.144,0.226,2.653,0.313c1.18,0.208,2.134,0.047,2.173,0.039c0.123-0.02,0.221-0.117,0.245-0.239
		c0.022-0.122-0.035-0.248-0.143-0.313l-4.498-2.671l5.079,1.273c0.144,0.036,0.292-0.039,0.349-0.177
		c0.057-0.138,0.006-0.294-0.123-0.37c-0.009-0.007-0.971-0.59-1.847-1.521c-0.252-0.269-0.459-0.524-0.663-0.776
		c-0.328-0.404-0.644-0.796-1.114-1.191c0.084,0.038,0.168,0.075,0.25,0.116c1.01,0.491,1.894,1.028,2.329,1.306
		c1.014,0.646,1.954,0.861,1.994,0.87c0.122,0.028,0.249-0.023,0.317-0.128c0.067-0.106,0.063-0.243-0.012-0.344l-3.136-4.183
		l4.21,3.115c0.118,0.087,0.285,0.074,0.388-0.03c0.104-0.102,0.117-0.271,0.029-0.388c-0.069-0.097-0.69-0.969-1.122-2.113
		c-0.131-0.35-0.225-0.664-0.315-0.973c-0.148-0.5-0.29-0.98-0.571-1.527c0.063,0.068,0.125,0.135,0.186,0.204
		c0.745,0.841,1.354,1.676,1.651,2.101c0.666,0.949,1.422,1.506,1.507,1.566c0.102,0.072,0.239,0.073,0.343,0.002
		c0.103-0.071,0.151-0.199,0.12-0.32l-1.301-5.061l2.702,4.486c0.075,0.126,0.234,0.179,0.371,0.122
		c0.137-0.057,0.211-0.204,0.176-0.348c-0.011-0.046-0.268-1.126-0.227-2.384c0.012-0.371,0.047-0.699,0.081-1.017
		c0.055-0.519,0.109-1.018,0.058-1.63c0.033,0.086,0.064,0.172,0.094,0.259c0.366,1.058,0.608,2.065,0.72,2.572
		c0.25,1.134,0.736,1.937,0.792,2.025c0.066,0.105,0.193,0.157,0.315,0.134c0.124-0.025,0.217-0.128,0.235-0.251l0.725-5.133
		l0.75,5.134c0.021,0.146,0.148,0.257,0.297,0.257c0.146,0,0.274-0.11,0.295-0.256c0.007-0.045,0.176-1.134,0.696-2.29
		c0.152-0.339,0.308-0.628,0.461-0.909c0.248-0.458,0.487-0.9,0.673-1.486c-0.002,0.092-0.006,0.183-0.012,0.274
		c-0.064,1.119-0.223,2.143-0.311,2.653c-0.205,1.178-0.044,2.134-0.038,2.174c0.021,0.122,0.117,0.221,0.241,0.244
		c0.121,0.021,0.248-0.035,0.311-0.142l2.676-4.491l-1.276,5.07c-0.036,0.143,0.039,0.292,0.175,0.349
		c0.135,0.057,0.296,0.005,0.372-0.123c0.062-0.1,0.629-1.008,1.521-1.847c0.266-0.252,0.518-0.456,0.775-0.664
		c0.405-0.327,0.794-0.644,1.19-1.114c-0.037,0.084-0.076,0.167-0.116,0.249c-0.487,1.009-1.027,1.894-1.304,2.331
		c-0.638,1.004-0.859,1.954-0.868,1.994c-0.028,0.121,0.024,0.248,0.129,0.316c0.105,0.068,0.242,0.063,0.34-0.012l4.187-3.126
		l-3.116,4.198c-0.089,0.12-0.077,0.283,0.028,0.39c0.104,0.104,0.271,0.117,0.391,0.028c0.008-0.006,0.921-0.672,2.112-1.123
		c0.345-0.131,0.659-0.225,0.971-0.315c0.5-0.148,0.98-0.291,1.526-0.573c-0.066,0.063-0.134,0.125-0.202,0.187
		c-0.837,0.743-1.674,1.354-2.099,1.651c-0.977,0.685-1.543,1.476-1.566,1.51c-0.073,0.102-0.074,0.239-0.002,0.343
		c0.071,0.103,0.201,0.15,0.32,0.119l5.063-1.29l-4.485,2.69c-0.126,0.076-0.179,0.234-0.123,0.371
		c0.058,0.139,0.206,0.213,0.35,0.176c0.116-0.027,1.167-0.267,2.381-0.228c0.374,0.013,0.701,0.047,1.017,0.08
		c0.518,0.055,1.018,0.108,1.629,0.057c-0.085,0.033-0.171,0.064-0.257,0.095c-1.064,0.368-2.068,0.609-2.572,0.721
		c-1.175,0.261-1.991,0.771-2.024,0.794c-0.106,0.065-0.159,0.192-0.133,0.314c0.025,0.121,0.125,0.217,0.25,0.234l5.169,0.742
		l-5.174,0.773c-0.146,0.021-0.256,0.148-0.256,0.295c0,0.146,0.109,0.274,0.255,0.296c0.117,0.019,1.173,0.197,2.288,0.702
		c0.336,0.152,0.624,0.311,0.912,0.468c0.457,0.248,0.896,0.487,1.48,0.674c-0.091-0.003-0.184-0.006-0.275-0.013
		c-1.12-0.066-2.142-0.228-2.652-0.318l-0.138-0.022c-0.937-0.408-1.897-0.621-2.857-0.63c-0.002-0.009-0.004-0.018-0.006-0.026
		c-0.045-0.201-0.188-0.36-0.383-0.429c-1.406-0.487-2.726-0.739-3.923-0.748c-0.44-0.002-0.859,0.026-1.262,0.088
		c-0.009-0.056-0.026-0.108-0.051-0.157c-0.087-0.178-0.257-0.299-0.453-0.325c-1.479-0.195-2.823-0.176-3.995,0.056
		c-0.467,0.092-0.911,0.221-1.324,0.379c-0.013-0.127-0.066-0.245-0.155-0.343c-0.125-0.133-0.298-0.202-0.483-0.187
		c-1.486,0.122-2.793,0.426-3.888,0.901c-0.293,0.127-0.573,0.27-0.837,0.422c-0.017-0.154-0.092-0.296-0.213-0.396
		c-0.148-0.122-0.347-0.165-0.532-0.115c-1.449,0.398-2.694,0.954-3.701,1.651l-0.061,0.043c-0.276,0.018-0.546,0.021-0.805,0.014
		c-0.217-0.006-0.94-0.07-1.016-0.078C19.267,258.402,18.768,258.35,18.155,258.403 M19.55,259.905
		c0.009-0.007,0.022-0.007,0.033-0.002c0.01,0.006,0.016,0.019,0.015,0.029c-0.05,0.793-0.289,2.012-1.139,3.323
		c-0.096,0.147-0.094,0.338,0.005,0.483c0.1,0.146,0.276,0.217,0.448,0.182c0.011-0.001,1.125-0.223,2.255-0.136
		c0.012,0.001,0.023,0.01,0.026,0.022c0.004,0.011,0,0.023-0.011,0.032c-0.974,0.776-2.884,2.049-4.93,2.049
		c-0.073,0-0.146-0.003-0.219-0.007c-0.016,0-0.028-0.013-0.029-0.028C15.95,264.872,16.187,262.325,19.55,259.905 M12.43,267.45
		c0.172-0.767,0.503-1.53,0.985-2.266c0.478-0.732,1.11-1.442,1.879-2.115c0.009-0.009,0.021-0.01,0.033-0.006
		c0.011,0.006,0.018,0.016,0.018,0.027c0.027,0.794-0.092,2.031-0.812,3.416c-0.083,0.16-0.061,0.351,0.056,0.486
		c0.116,0.136,0.301,0.188,0.472,0.129c0.011-0.003,1.069-0.36,2.193-0.397c0.011,0.001,0.024,0.007,0.029,0.018
		c0.005,0.013,0.002,0.025-0.006,0.034c-0.423,0.418-0.858,0.801-1.293,1.137c-0.89,0.684-2.2,1.482-3.459,1.482
		c-0.051,0-0.1-0.002-0.15-0.004c-0.015,0-0.027-0.012-0.028-0.025C12.302,269.097,12.222,268.374,12.43,267.45 M11.277,266.846
		c0.008-0.009,0.021-0.014,0.031-0.01c0.011,0.003,0.021,0.012,0.022,0.024c0.154,0.779,0.235,2.02-0.255,3.501
		c-0.06,0.18,0.002,0.374,0.152,0.486c0.15,0.113,0.355,0.119,0.51,0.012c0.009-0.008,0.968-0.657,2.185-0.76
		c0.013,0,0.024,0.005,0.03,0.016c0.006,0.011,0.005,0.023-0.002,0.033c-0.79,1.106-2.431,3.015-4.55,3.371
		c-0.001,0-0.003,0-0.004,0c-0.014,0-0.025-0.009-0.03-0.021C9.058,272.562,8.628,270.035,11.277,266.846 M6.714,273.684
		c0.257-0.832,0.667-1.687,1.217-2.54c0.008-0.009,0.019-0.015,0.03-0.012c0.013,0.001,0.022,0.009,0.025,0.02
		c0.249,0.759,0.479,1.982,0.171,3.511c-0.038,0.19,0.051,0.379,0.222,0.471c0.169,0.093,0.377,0.063,0.515-0.074
		c0.008-0.009,0.901-0.871,2.133-1.041c0.011-0.002,0.022,0.002,0.029,0.013c0.007,0.009,0.008,0.02,0.003,0.031
		c-0.17,0.348-0.456,0.878-0.858,1.43c-0.938,1.286-2.057,2.125-3.327,2.495c-0.003,0.001-0.006,0.001-0.008,0.001
		c-0.012,0-0.023-0.006-0.028-0.018c-0.115-0.245-0.385-0.915-0.441-1.84C6.347,275.344,6.455,274.522,6.714,273.684 M4.249,278.403
		c0.128-0.859,0.405-1.764,0.822-2.689c0.004-0.01,0.015-0.017,0.027-0.017h0c0.011,0,0.022,0.007,0.028,0.017
		c0.358,0.714,0.771,1.892,0.695,3.45c-0.008,0.175,0.088,0.337,0.246,0.414s0.346,0.051,0.478-0.064
		c0.039-0.033,0.967-0.831,2.049-1.297c0.011-0.005,0.023-0.003,0.032,0.005s0.013,0.019,0.01,0.031
		c-0.113,0.438-0.271,0.869-0.474,1.281c-0.662,1.351-1.711,2.391-3.119,3.091c-0.004,0.003-0.009,0.004-0.014,0.004
		c-0.01,0-0.02-0.005-0.026-0.014c-0.183-0.279-0.519-0.881-0.704-1.746C4.138,280.1,4.12,279.27,4.249,278.403 M2.916,280.616
		c0.003-0.012,0.013-0.019,0.025-0.021c0.012-0.001,0.022,0.004,0.03,0.013c0.445,0.664,1.003,1.781,1.127,3.336
		c0.013,0.177,0.133,0.328,0.303,0.383c0.169,0.054,0.354,0,0.468-0.138c0.008-0.009,0.789-0.934,1.867-1.548
		c0.01-0.005,0.022-0.005,0.032,0.001c0.009,0.007,0.015,0.018,0.014,0.029c-0.052,0.462-0.153,0.923-0.3,1.372
		c-0.48,1.462-1.391,2.619-2.709,3.442c-0.006,0.004-0.011,0.005-0.016,0.005c-0.008,0-0.018-0.004-0.023-0.01
		c-0.176-0.207-0.621-0.779-0.927-1.651c-0.261-0.743-0.383-1.564-0.365-2.441C2.46,282.518,2.62,281.586,2.916,280.616
		 M1.406,285.745c0.002-0.011,0.01-0.021,0.021-0.023c0.011-0.004,0.023,0,0.032,0.009c0.526,0.609,1.22,1.652,1.532,3.171
		c0.035,0.171,0.169,0.305,0.34,0.34s0.348-0.037,0.447-0.181c0.029-0.04,0.708-1.01,1.617-1.723
		c0.009-0.009,0.022-0.01,0.033-0.004c0.011,0.006,0.017,0.017,0.017,0.029c-0.022,0.457-0.086,0.917-0.188,1.362
		c-0.34,1.492-1.067,2.741-2.162,3.718c-0.005,0.005-0.013,0.007-0.02,0.007c-0.007,0-0.015-0.003-0.021-0.009
		c-0.247-0.227-0.72-0.724-1.112-1.517c-0.352-0.705-0.575-1.505-0.665-2.378C1.189,287.684,1.233,286.742,1.406,285.745
		 M0.633,290.888c0.001-0.013,0.01-0.021,0.021-0.025c0.011-0.004,0.023-0.001,0.032,0.008c0.554,0.585,1.296,1.596,1.679,3.097
		c0.046,0.179,0.199,0.31,0.381,0.328c0.184,0.018,0.359-0.082,0.438-0.249c0.004-0.011,0.487-1.012,1.362-1.793
		c0.009-0.009,0.022-0.011,0.033-0.005c0.011,0.005,0.018,0.016,0.018,0.027c-0.001,0.524-0.044,1.044-0.126,1.544
		c-0.259,1.569-0.873,2.812-1.823,3.69c-0.006,0.005-0.015,0.009-0.021,0.009s-0.014-0.003-0.02-0.009
		c-0.209-0.173-0.743-0.661-1.194-1.472c-0.384-0.688-0.645-1.479-0.775-2.345C0.509,292.834,0.507,291.891,0.633,290.888
		 M0.205,296.291c0.001-0.013,0.008-0.022,0.02-0.026c0.011-0.004,0.023-0.002,0.032,0.007c0.111,0.103,0.221,0.213,0.327,0.326
		c0.478,0.513,1.133,1.391,1.544,2.664c0.063,0.192,0.247,0.314,0.448,0.302c0.202-0.015,0.367-0.164,0.399-0.363
		c0.002-0.012,0.197-1.103,1.117-1.944c0.009-0.007,0.021-0.011,0.032-0.006c0.01,0.004,0.018,0.013,0.02,0.023
		c0.097,0.608,0.176,1.546,0.007,2.55c-0.204,1.202-0.71,2.199-1.504,2.966c-0.006,0.005-0.014,0.007-0.021,0.007
		c-0.006,0-0.013-0.001-0.018-0.005C1.799,302.209-0.052,300.412,0.205,296.291 M-0.005,301.535c0.01-0.005,0.023-0.004,0.033,0.003
		c0.122,0.092,0.242,0.188,0.359,0.291c0.529,0.459,1.273,1.266,1.818,2.49c0.071,0.158,0.227,0.258,0.398,0.258
		c0.002,0,0.005,0,0.008,0c0.175-0.002,0.332-0.108,0.398-0.271c0.004-0.012,0.479-1.158,1.248-2.067
		c0.008-0.009,0.02-0.013,0.031-0.01c0.011,0.002,0.02,0.011,0.022,0.023c0.24,1.105,0.397,3.289-1.24,5.501
		c-0.005,0.009-0.014,0.013-0.024,0.013c-0.005,0-0.01-0.001-0.016-0.004c-0.858-0.498-2.873-2.101-3.053-6.199
		C-0.022,301.552-0.015,301.54-0.005,301.535 M0.267,306.992c-0.002-0.012,0.001-0.022,0.012-0.03
		c0.009-0.008,0.021-0.009,0.032-0.004c0.717,0.363,1.755,1.069,2.631,2.367c0.097,0.145,0.271,0.218,0.444,0.185
		c0.173-0.032,0.308-0.163,0.345-0.336l0.03,0.008l-0.03-0.008c0.011-0.052,0.292-1.277,0.891-2.287
		c0.005-0.011,0.018-0.016,0.028-0.015c0.012,0,0.021,0.007,0.026,0.017c0.212,0.444,0.371,0.913,0.473,1.392
		c0.315,1.483,0.069,2.927-0.731,4.292c-0.006,0.009-0.016,0.014-0.026,0.014c-0.004,0-0.007,0-0.011-0.001
		c-0.257-0.093-0.931-0.378-1.637-0.998c-0.595-0.522-1.108-1.18-1.524-1.955C0.807,308.866,0.486,307.978,0.267,306.992
		 M1.504,312.057c-0.004-0.013,0-0.024,0.008-0.033c0.009-0.008,0.022-0.01,0.033-0.005c0.14,0.058,0.28,0.123,0.418,0.192
		c0.628,0.319,1.55,0.922,2.382,1.977c0.109,0.138,0.289,0.196,0.457,0.151c0.169-0.046,0.295-0.188,0.319-0.361
		c0.001-0.012,0.177-1.214,0.673-2.259c0.005-0.012,0.016-0.018,0.028-0.018c0.012,0,0.023,0.008,0.027,0.018
		c0.513,1.123,1.222,3.343,0.206,5.593c-0.006,0.013-0.017,0.019-0.028,0.019c-0.003,0-0.006,0-0.008-0.001
		C5.058,317.059,2.7,315.999,1.504,312.057 M4.554,319.558c-0.55-0.676-1.034-1.488-1.437-2.414
		c-0.004-0.011-0.002-0.023,0.005-0.032c0.008-0.01,0.021-0.013,0.032-0.01c0.144,0.042,0.29,0.092,0.437,0.146
		c0.66,0.244,1.646,0.737,2.595,1.691c0.124,0.124,0.31,0.163,0.472,0.098c0.163-0.065,0.271-0.221,0.275-0.396
		c0-0.013,0.033-1.197,0.397-2.29c0.003-0.012,0.013-0.02,0.026-0.02c0.012-0.001,0.023,0.004,0.029,0.015
		c0.249,0.435,0.46,0.887,0.63,1.344c0.546,1.474,0.624,2.872,0.229,4.159c-0.004,0.013-0.017,0.021-0.029,0.021
		c0,0-0.004,0-0.005,0c-0.269-0.045-0.981-0.203-1.786-0.675C5.74,320.793,5.11,320.241,4.554,319.558 M5.297,321.961
		c-0.006-0.011-0.006-0.024,0.001-0.033c0.007-0.01,0.018-0.015,0.029-0.014c0.795,0.135,1.999,0.5,3.228,1.477
		c0.139,0.109,0.329,0.126,0.485,0.04c0.154-0.087,0.242-0.257,0.221-0.434c-0.005-0.045-0.124-1.121,0.115-2.266
		c0.002-0.013,0.012-0.021,0.024-0.024c0.011-0.002,0.024,0.004,0.031,0.014c0.292,0.424,0.551,0.862,0.77,1.306
		c0.484,0.979,1.005,2.47,0.74,4.017c-0.002,0.016-0.015,0.025-0.03,0.025H10.91c-0.337-0.018-1.028-0.101-1.851-0.465
		c-0.727-0.321-1.417-0.798-2.05-1.412C6.383,323.584,5.806,322.833,5.297,321.961 M15.365,330.721
		c-0.004-0.012-0.439-1.063-0.537-2.217c-0.001-0.015,0.005-0.025,0.017-0.03c0.011-0.007,0.024-0.006,0.034,0.003
		c1.02,0.854,2.714,2.638,2.607,4.988c0,0.016-0.011,0.026-0.025,0.029c-0.124,0.021-0.361,0.055-0.683,0.055
		c-0.287,0-0.639-0.025-1.04-0.106c-1.465-0.293-2.971-1.157-4.477-2.565c-0.008-0.008-0.011-0.021-0.008-0.032
		c0.004-0.012,0.013-0.02,0.026-0.021c0.799-0.104,2.058-0.105,3.523,0.472c0.163,0.063,0.349,0.022,0.472-0.102
		C15.397,331.069,15.433,330.884,15.365,330.721 M11.396,327.571c0.152,0.097,0.345,0.091,0.492-0.016
		c0.146-0.105,0.211-0.286,0.167-0.461c-0.002-0.011-0.27-1.088-0.143-2.244c0.002-0.015,0.01-0.023,0.021-0.027
		c0.013-0.003,0.024,0,0.032,0.011c0.834,1.005,2.214,3.009,2.084,5.131c0,0.015-0.013,0.027-0.029,0.027
		c-0.059,0.004-0.128,0.005-0.207,0.005c-0.377,0-0.975-0.048-1.682-0.277c-0.758-0.244-1.495-0.646-2.19-1.192
		c-0.686-0.541-1.338-1.226-1.937-2.042c-0.007-0.01-0.007-0.022-0.001-0.034c0.005-0.01,0.012-0.017,0.029-0.014
		C8.836,326.487,10.073,326.727,11.396,327.571 M28.495,316.1c-0.141,0.095-0.276,0.188-0.401,0.277
		c-0.934,0.655-1.516,1.351-1.73,2.067c-0.121-0.024-0.237-0.055-0.342-0.089c-0.716-0.236-0.75-0.598-0.764-0.731
		c-0.021-0.37,0.173-0.702,0.715-1.224c0.638-0.613,1.17-0.912,1.633-0.912c0.165,0,0.321,0.039,0.47,0.114
		c0.226,0.113,0.372,0.241,0.41,0.362C28.5,316.005,28.502,316.05,28.495,316.1 M29.393,319.706
		c-0.286,0.044-1.059,0.132-1.443-0.13c-0.091-0.063-0.189-0.161-0.218-0.415c-0.063-0.608,0.724-1.257,1.199-1.591
		c0.743-0.521,1.251-0.814,1.668-0.814c0.209,0,0.396,0.074,0.576,0.23c0.15,0.131,0.227,0.249,0.222,0.347
		c-0.012,0.193-0.258,0.485-0.482,0.661C30.179,318.503,29.683,319.063,29.393,319.706 M33.103,319.83
		c-0.281,0.22-1.237,0.813-1.918,0.678c-0.111-0.022-0.274-0.071-0.441-0.248c0.317-0.656,1.011-1.099,1.639-1.464
		c0.823-0.475,1.181-0.198,1.19-0.191c0.241,0.234,0.228,0.369,0.223,0.416c-0.03,0.292-0.446,0.648-0.638,0.77
		C33.14,319.802,33.123,319.812,33.103,319.83 M25.303,315.039c-0.109,0.093-0.219,0.195-0.341,0.31
		c-0.428,0.412-0.889,0.921-1.078,1.591c-0.107-0.008-0.21-0.019-0.304-0.035c-0.47-0.075-0.73-0.225-0.78-0.34
		c-0.031-0.069-0.124-0.282,0.152-0.643c0.396-0.52,1.261-0.942,1.878-0.942c0.058,0,0.114,0.004,0.167,0.013
		c0.023,0.004,0.039,0.005,0.062,0.006C25.115,315.002,25.203,315.015,25.303,315.039 M44.075,315.942
		c-0.214,0.202-0.54,0.311-0.969,0.32c-0.61-0.818-2.192-2.752-4.204-3.735c-0.175-0.086-0.373-0.099-0.557-0.034
		c-0.185,0.063-0.333,0.193-0.418,0.369c-0.086,0.175-0.098,0.371-0.035,0.557c0.064,0.184,0.195,0.334,0.37,0.418
		c1.701,0.831,3.11,2.547,3.663,3.284c-0.059,0.123-0.132,0.234-0.216,0.331c-0.273,0.313-0.68,0.466-1.195,0.464
		c-0.185-0.398-0.512-0.871-0.973-1.404c-0.619-0.717-1.872-1.599-1.925-1.637c-0.16-0.112-0.352-0.153-0.544-0.121
		c-0.192,0.033-0.359,0.14-0.471,0.299c-0.112,0.16-0.155,0.353-0.122,0.544c0.034,0.192,0.139,0.36,0.299,0.473
		c0.322,0.226,1.246,0.917,1.659,1.396c0.488,0.563,0.682,0.906,0.76,1.073c-0.066,0.13-0.174,0.305-0.331,0.458
		c-0.262,0.253-0.578,0.354-0.97,0.307c-0.185-0.41-0.592-1.186-1.33-2.016c-0.267-0.301-0.729-0.327-1.029-0.061
		c-0.146,0.13-0.232,0.308-0.244,0.503c-0.012,0.194,0.053,0.382,0.183,0.525c0.506,0.57,0.821,1.101,1.002,1.463
		c-0.12,0.075-0.248,0.14-0.38,0.192c-0.367,0.145-0.762,0.194-1.176,0.145c0.182-0.284,0.292-0.58,0.324-0.88
		c0.042-0.403-0.036-1.01-0.649-1.61c-0.315-0.318-0.935-0.604-1.757-0.474c-0.062-0.447-0.3-0.853-0.708-1.205
		c-0.664-0.576-1.435-0.734-2.292-0.472h0c-0.133-0.335-0.434-0.777-1.107-1.115c-0.605-0.304-1.278-0.351-1.95-0.138
		c-0.599-0.503-1.375-0.599-1.598-0.616c-0.965-0.13-2.217,0.328-3.046,1.112c-4.163,2.226-9.513,4.637-11.689,5.6
		c-1.141-2.145-2.114-4.461-2.893-6.887c-0.212-0.661-0.413-1.342-0.597-2.024c6.117-0.7,11.038-1.42,14.625-2.135
		c3.763-0.752,6.19-1.52,7.432-2.354c1.433-1.009,2.412-1.5,3.778-1.384c0.322,0.027,0.616,0.059,0.89,0.096
		c-0.261,0.11-0.507,0.248-0.748,0.418c-0.575,0.404-0.929,0.69-1.24,0.944c-0.315,0.255-0.563,0.459-0.962,0.717
		c-0.272,0.178-0.646,0.36-1.007,0.537c-0.851,0.417-1.523,0.745-1.741,1.326c-0.229,0.625-0.141,1.17,0.288,1.772
		c0.654,0.914,1.714,0.856,2.563,0.808c0.952-0.054,2.116-0.403,2.966-0.893c0.305-0.176,0.573-0.354,0.811-0.511
		c0.367-0.242,0.683-0.451,0.905-0.499c0.013-0.003,0.028-0.005,0.042-0.009c0.735-0.204,1.568-0.12,2.548,0.26
		c0.886,0.341,1.751,0.872,2.555,1.395c1.907,1.24,3.322,2.914,3.741,3.438C44.371,315.475,44.286,315.744,44.075,315.942
		 M46.72,315.378c-0.627-0.441-1.063-0.898-1.267-1.133c-0.002-0.003-0.006-0.005-0.009-0.008l-0.023-0.027
		c-0.057-0.068-0.092-0.112-0.105-0.129c-0.655-0.785-2.028-2.279-3.856-3.469c-1.343-0.874-3.843-2.499-6.263-1.846
		c-0.484,0.108-0.902,0.386-1.385,0.704c-0.229,0.152-0.467,0.311-0.735,0.465c-0.757,0.438-1.71,0.665-2.318,0.701
		c-0.689,0.037-1.121,0.042-1.294-0.199c-0.157-0.221-0.148-0.298-0.126-0.367c0.156-0.146,0.725-0.423,1.034-0.575
		c0.4-0.195,0.813-0.398,1.161-0.624c0.462-0.3,0.765-0.546,1.087-0.809c0.292-0.237,0.623-0.507,1.157-0.884
		c0.727-0.511,1.522-0.525,2.726-0.55l0.022-0.001c0.183-0.005,0.37-0.009,0.567-0.014c0.146-0.004,0.295-0.009,0.45-0.017
		c1.288-0.058,2.451,0.36,4.209,0.993c0.511,0.185,1.09,0.394,1.745,0.615c0.099,0.032,2.468,0.777,5.688,1.546
		c2.795,0.665,6.929,1.509,10.806,1.768c-0.173,0.627-0.358,1.249-0.551,1.849c-0.807,2.516-1.823,4.912-3.019,7.122
		C54.483,319.697,49.802,317.663,46.72,315.378 M55.756,330.88c-1.867,1.751-3.464,2.361-4.474,2.563
		c-0.401,0.081-0.752,0.107-1.041,0.107c-0.302,0-0.535-0.029-0.684-0.056c-0.014-0.003-0.025-0.014-0.025-0.029
		c-0.061-1.331,0.448-2.635,1.513-3.87c0.33-0.384,0.706-0.75,1.119-1.089c0.01-0.009,0.022-0.01,0.035-0.002
		c0.01,0.005,0.017,0.016,0.015,0.029c-0.12,1.112-0.555,2.176-0.56,2.188c-0.067,0.162-0.032,0.349,0.091,0.474
		c0.123,0.124,0.308,0.165,0.473,0.102c1.454-0.573,2.718-0.571,3.521-0.47c0.012,0.001,0.021,0.009,0.025,0.021
		C55.769,330.858,55.764,330.873,55.756,330.88 M59.061,326.487c-0.598,0.815-1.249,1.499-1.935,2.038
		c-0.695,0.549-1.432,0.949-2.189,1.194c-0.708,0.229-1.305,0.277-1.682,0.277c-0.08,0-0.149-0.003-0.208-0.005
		c-0.015-0.001-0.028-0.014-0.029-0.029c-0.09-1.284,0.298-2.615,1.154-3.952c0.267-0.416,0.572-0.82,0.908-1.202
		c0.007-0.009,0.021-0.013,0.032-0.009c0.011,0.004,0.02,0.014,0.021,0.026c0.105,1.14-0.123,2.277-0.125,2.289
		c-0.035,0.173,0.036,0.348,0.181,0.448c0.145,0.099,0.334,0.101,0.482,0.008c1.315-0.838,2.554-1.078,3.361-1.133
		c0.011-0.001,0.023,0.007,0.029,0.016C59.068,326.465,59.067,326.477,59.061,326.487 M60.06,324.191
		c-0.633,0.616-1.324,1.091-2.051,1.412c-0.854,0.378-1.58,0.451-1.852,0.466h-0.001c-0.015,0-0.028-0.011-0.03-0.025
		c-0.226-1.27,0.02-2.632,0.73-4.051c0.221-0.439,0.482-0.873,0.777-1.288c0.007-0.011,0.019-0.015,0.031-0.013
		s0.021,0.011,0.024,0.023c0.223,1.108,0.119,2.28,0.119,2.291c-0.017,0.176,0.072,0.342,0.227,0.426
		c0.154,0.084,0.343,0.067,0.48-0.042c1.22-0.969,2.427-1.334,3.226-1.472c0.011-0.004,0.023,0.003,0.03,0.013
		c0.006,0.01,0.007,0.022,0.001,0.032C61.26,322.836,60.684,323.586,60.06,324.191 M62.48,319.489
		c-0.556,0.684-1.186,1.234-1.87,1.638c-0.772,0.456-1.447,0.618-1.781,0.675c-0.002,0-0.003,0-0.005,0
		c-0.013,0-0.025-0.009-0.029-0.021c-0.379-1.296-0.298-2.697,0.242-4.167c0.163-0.443,0.365-0.883,0.602-1.305
		c0.006-0.013,0.018-0.018,0.03-0.017c0.012,0.001,0.022,0.01,0.026,0.021c0.35,1.1,0.407,2.258,0.407,2.269
		c0.008,0.178,0.121,0.331,0.287,0.392c0.167,0.061,0.352,0.017,0.472-0.114c0.969-1.055,1.939-1.538,2.584-1.759
		c0.155-0.053,0.312-0.098,0.468-0.135c0.01-0.002,0.022,0.002,0.03,0.012c0.007,0.009,0.009,0.02,0.004,0.031
		C63.538,317.962,63.045,318.798,62.48,319.489 M64.331,314.572c-0.486,0.736-1.056,1.345-1.697,1.814
		c-0.752,0.549-1.445,0.773-1.708,0.845c-0.003,0.002-0.005,0.002-0.008,0.002c-0.012,0-0.024-0.007-0.028-0.018
		c-0.62-1.499-0.439-3.105-0.18-4.188c0.119-0.489,0.276-0.981,0.47-1.463c0.004-0.011,0.015-0.018,0.028-0.019
		c0.012,0,0.023,0.008,0.028,0.018c0.463,1.07,0.628,2.281,0.635,2.333c0.022,0.174,0.146,0.317,0.313,0.365
		c0.169,0.047,0.349-0.011,0.458-0.146c0.983-1.205,2.083-1.818,2.834-2.121c0.011-0.005,0.023-0.003,0.032,0.005
		c0.009,0.009,0.012,0.021,0.008,0.033C65.209,312.992,64.811,313.846,64.331,314.572 M65.689,309.443
		c-0.39,0.79-0.88,1.464-1.458,2.006c-0.652,0.613-1.273,0.919-1.586,1.046c-0.004,0.002-0.008,0.003-0.012,0.003
		c-0.01,0-0.021-0.005-0.026-0.017c-0.669-1.191-0.91-2.609-0.717-4.212c0.059-0.493,0.159-0.99,0.298-1.479
		c0.003-0.013,0.014-0.021,0.026-0.023c0.013-0.001,0.024,0.005,0.03,0.015c0.598,1.018,0.915,2.273,0.919,2.286
		c0.042,0.171,0.181,0.3,0.354,0.327s0.347-0.051,0.44-0.2c0.824-1.316,1.841-2.06,2.548-2.451c0.01-0.005,0.023-0.005,0.032,0.002
		c0.01,0.007,0.015,0.02,0.013,0.03C66.364,307.769,66.073,308.665,65.689,309.443"/>
	<path fill="#FFC20E" d="M42.872,257.704c0.96,0.011,1.92,0.222,2.858,0.63l0.138,0.022c0.51,0.091,1.532,0.254,2.652,0.32
		c0.091,0.007,0.183,0.01,0.275,0.013c-0.584-0.187-1.024-0.426-1.481-0.675c-0.287-0.156-0.575-0.314-0.912-0.467
		c-1.115-0.505-2.17-0.684-2.288-0.702c-0.146-0.021-0.255-0.149-0.254-0.296c0-0.147,0.11-0.273,0.255-0.297l5.174-0.773
		l-5.169-0.74c-0.124-0.019-0.225-0.113-0.25-0.234c-0.026-0.122,0.028-0.249,0.134-0.316c0.034-0.021,0.849-0.531,2.024-0.792
		c0.504-0.111,1.508-0.353,2.572-0.722c0.086-0.029,0.172-0.061,0.258-0.094c-0.612,0.051-1.111-0.002-1.63-0.057
		c-0.316-0.033-0.642-0.067-1.017-0.08c-1.214-0.04-2.265,0.2-2.381,0.228c-0.145,0.037-0.292-0.039-0.35-0.176
		c-0.056-0.137-0.003-0.295,0.123-0.371l4.485-2.69l-5.063,1.29c-0.118,0.03-0.25-0.018-0.32-0.121
		c-0.071-0.102-0.069-0.24,0.002-0.343c0.024-0.032,0.59-0.823,1.566-1.508c0.424-0.297,1.261-0.908,2.099-1.652
		c0.068-0.061,0.136-0.122,0.202-0.186c-0.545,0.282-1.027,0.425-1.526,0.572c-0.313,0.092-0.626,0.186-0.971,0.316
		c-1.191,0.451-2.104,1.117-2.112,1.123c-0.119,0.089-0.287,0.075-0.39-0.028c-0.105-0.106-0.117-0.27-0.029-0.39l3.117-4.198
		l-4.187,3.126c-0.099,0.075-0.236,0.078-0.341,0.012c-0.105-0.068-0.156-0.195-0.129-0.316c0.009-0.041,0.231-0.991,0.868-1.995
		c0.278-0.437,0.817-1.322,1.305-2.33c0.04-0.082,0.079-0.166,0.116-0.249c-0.396,0.47-0.786,0.785-1.19,1.114
		c-0.257,0.208-0.509,0.412-0.775,0.664c-0.891,0.839-1.459,1.747-1.521,1.847c-0.076,0.128-0.236,0.18-0.371,0.122
		c-0.135-0.056-0.211-0.207-0.175-0.349l1.277-5.069l-2.677,4.491c-0.063,0.106-0.19,0.162-0.312,0.142
		c-0.123-0.023-0.22-0.122-0.241-0.245c-0.006-0.039-0.167-0.996,0.038-2.173c0.089-0.511,0.248-1.536,0.311-2.653
		c0.006-0.092,0.01-0.184,0.012-0.275c-0.186,0.587-0.425,1.027-0.673,1.487c-0.152,0.281-0.309,0.57-0.46,0.909
		c-0.52,1.155-0.689,2.244-0.696,2.29c-0.022,0.146-0.149,0.255-0.296,0.255c-0.147,0-0.274-0.109-0.296-0.256l-0.75-5.134
		l-0.725,5.132c-0.018,0.124-0.111,0.225-0.234,0.252c-0.123,0.022-0.249-0.028-0.316-0.135c-0.055-0.088-0.541-0.891-0.791-2.026
		c-0.112-0.505-0.354-1.513-0.72-2.57c-0.03-0.087-0.061-0.174-0.094-0.26c0.051,0.613-0.002,1.112-0.058,1.63
		c-0.034,0.318-0.069,0.646-0.081,1.017c-0.041,1.259,0.215,2.339,0.227,2.385c0.036,0.144-0.039,0.289-0.176,0.348
		c-0.136,0.057-0.295,0.004-0.37-0.122l-2.703-4.486l1.3,5.061c0.032,0.121-0.016,0.249-0.119,0.32
		c-0.104,0.071-0.241,0.07-0.343-0.002c-0.085-0.062-0.842-0.617-1.507-1.566c-0.297-0.425-0.906-1.262-1.651-2.102
		c-0.062-0.068-0.123-0.136-0.186-0.203c0.281,0.547,0.423,1.027,0.57,1.525c0.091,0.309,0.185,0.625,0.315,0.973
		c0.432,1.146,1.053,2.019,1.122,2.114c0.088,0.118,0.076,0.285-0.029,0.389c-0.103,0.104-0.27,0.117-0.388,0.03l-4.21-3.115
		l3.137,4.183c0.075,0.101,0.079,0.237,0.011,0.343c-0.067,0.104-0.194,0.157-0.317,0.129c-0.04-0.009-0.98-0.225-1.994-0.87
		c-0.436-0.277-1.318-0.816-2.328-1.306c-0.083-0.041-0.166-0.078-0.25-0.116c0.471,0.396,0.786,0.786,1.114,1.191
		c0.204,0.252,0.41,0.507,0.663,0.776c0.875,0.931,1.837,1.515,1.847,1.521c0.128,0.076,0.18,0.232,0.122,0.37
		c-0.057,0.136-0.205,0.213-0.349,0.175l-5.079-1.271l4.499,2.67c0.107,0.064,0.164,0.19,0.142,0.313
		c-0.023,0.122-0.121,0.221-0.245,0.239c-0.039,0.009-0.993,0.169-2.173-0.038c-0.508-0.089-1.529-0.249-2.652-0.313
		c-0.092-0.005-0.183-0.01-0.274-0.011c0.584,0.185,1.025,0.424,1.484,0.672c0.266,0.144,0.567,0.308,0.911,0.463
		c1.162,0.522,2.277,0.696,2.288,0.697c0.146,0.021,0.256,0.149,0.256,0.297c0,0.146-0.11,0.274-0.256,0.294l-5.18,0.763
		l5.181,0.753c0.124,0.018,0.224,0.112,0.249,0.234c0.026,0.122-0.027,0.248-0.133,0.314c-0.034,0.021-0.854,0.536-2.023,0.797
		c-0.506,0.114-1.513,0.36-2.57,0.728c-0.086,0.03-0.172,0.062-0.258,0.095c0.614-0.053,1.111-0.001,1.63,0.053
		c0.076,0.008,0.799,0.072,1.017,0.078c0.258,0.008,0.529,0.004,0.805-0.014l0.06-0.043c1.007-0.698,2.251-1.253,3.701-1.65
		c0.186-0.052,0.384-0.009,0.533,0.113c0.121,0.1,0.197,0.242,0.214,0.396c0.263-0.152,0.544-0.294,0.837-0.422
		c1.094-0.475,2.401-0.778,3.888-0.9c0.186-0.017,0.358,0.053,0.483,0.187c0.089,0.097,0.142,0.217,0.155,0.344
		c0.413-0.16,0.856-0.288,1.323-0.379c1.171-0.233,2.516-0.252,3.995-0.056c0.196,0.025,0.366,0.146,0.453,0.324
		c0.025,0.049,0.042,0.103,0.052,0.157c0.403-0.062,0.821-0.09,1.262-0.089c1.197,0.01,2.517,0.262,3.922,0.749
		c0.195,0.067,0.338,0.228,0.384,0.428C42.869,257.688,42.871,257.695,42.872,257.704"/>
	<path d="M35.336,251.16c5.033-0.801,5.588,0.653,5.588,0.653s0.134,0.327,0.541,0.227c0,0,0.343-0.035,0.171-0.442
		c0,0-0.553-1.647-3.23-1.934c0,0-1.377-0.183-2.892,0.083c-0.446,0.078-0.571,1.064-0.571,1.064
		C34.879,251.255,35.336,251.16,35.336,251.16"/>
	<path d="M31.043,252.137c-0.617-0.278-2.016-0.219-2.016-0.219c-2.276,0.075-2.874,1.486-2.874,1.486
		c-0.2,0.475,0.2,0.516,0.2,0.516c0.475,0.118,0.63-0.265,0.63-0.265s0.129-0.402,1.066-0.633c-0.054,0.133-0.083,0.277-0.083,0.43
		c0,0.644,0.521,1.165,1.165,1.165c0.644,0,1.166-0.521,1.166-1.165c0-0.162-0.034-0.317-0.094-0.457
		c0.322,0.123,0.636,0.349,0.834,0.752c0.081,0.166,0.256,0.238,0.689,0.238c0.466,0,0.352-0.306,0.352-0.306
		C31.797,252.488,31.043,252.137,31.043,252.137"/>
	<path d="M35.231,253.986c0.433,0,0.608-0.072,0.69-0.238c0.198-0.404,0.511-0.63,0.834-0.753c-0.06,0.141-0.094,0.296-0.094,0.458
		c0,0.644,0.521,1.165,1.165,1.165s1.165-0.521,1.165-1.165c0-0.152-0.03-0.297-0.083-0.431c0.937,0.23,1.065,0.634,1.065,0.634
		s0.157,0.382,0.631,0.265c0,0,0.4-0.042,0.2-0.516c0,0-0.597-1.411-2.873-1.487c0,0-1.4-0.06-2.016,0.22
		c0,0-0.755,0.351-1.036,1.543C34.879,253.68,34.766,253.986,35.231,253.986"/>
	<path d="M25.492,252.04c0.407,0.101,0.541-0.227,0.541-0.227s0.555-1.453,5.588-0.653c0,0,0.457,0.095,0.393-0.348
		c0,0-0.126-0.987-0.572-1.065c-1.515-0.265-2.892-0.082-2.892-0.082c-2.678,0.285-3.23,1.933-3.23,1.933
		C25.149,252.005,25.492,252.04,25.492,252.04"/>
	<path fill="#2DA44A" d="M55.739,330.827c-0.804-0.102-2.067-0.104-3.521,0.47c-0.164,0.064-0.349,0.025-0.472-0.101
		c-0.124-0.126-0.159-0.313-0.092-0.475c0.005-0.011,0.44-1.075,0.561-2.188c0.001-0.012-0.005-0.023-0.016-0.029
		c-0.012-0.007-0.025-0.004-0.035,0.003c-0.412,0.338-0.789,0.704-1.119,1.089c-1.065,1.235-1.574,2.538-1.512,3.871
		c0,0.014,0.011,0.026,0.025,0.028c0.149,0.025,0.381,0.055,0.683,0.055c0.289,0,0.639-0.025,1.041-0.106
		c1.01-0.202,2.605-0.813,4.474-2.563c0.009-0.009,0.012-0.021,0.008-0.033C55.761,330.836,55.751,330.828,55.739,330.827"/>
	<path fill="#2DA44A" d="M14.879,328.476c-0.009-0.008-0.022-0.01-0.033-0.004c-0.012,0.007-0.018,0.017-0.017,0.03
		c0.097,1.155,0.532,2.207,0.537,2.217c0.067,0.163,0.032,0.35-0.091,0.476c-0.124,0.124-0.309,0.165-0.472,0.101
		c-1.466-0.577-2.725-0.576-3.524-0.473c-0.012,0.003-0.021,0.011-0.025,0.021c-0.004,0.012,0,0.024,0.008,0.031
		c1.504,1.41,3.01,2.271,4.477,2.566c0.401,0.08,0.753,0.105,1.04,0.105c0.321,0,0.559-0.032,0.683-0.054
		c0.014-0.003,0.025-0.014,0.025-0.029C17.593,331.114,15.898,329.331,14.879,328.476"/>
	<path fill="#2DA44A" d="M59.034,326.438c-0.808,0.055-2.047,0.295-3.361,1.133c-0.148,0.094-0.338,0.092-0.482-0.009
		c-0.145-0.1-0.216-0.274-0.182-0.447c0.002-0.012,0.23-1.15,0.125-2.289c-0.001-0.013-0.01-0.022-0.021-0.026
		c-0.012-0.004-0.025,0-0.032,0.009c-0.337,0.383-0.642,0.787-0.908,1.202c-0.856,1.337-1.245,2.666-1.154,3.952
		c0.001,0.016,0.014,0.028,0.029,0.029c0.059,0.002,0.128,0.005,0.208,0.005c0.376,0,0.974-0.048,1.682-0.277
		c0.757-0.245,1.494-0.646,2.189-1.192c0.685-0.539,1.336-1.226,1.934-2.04c0.007-0.011,0.008-0.022,0.002-0.033
		C59.057,326.443,59.045,326.437,59.034,326.438"/>
	<path fill="#2DA44A" d="M61.738,321.918c-0.798,0.137-2.005,0.502-3.225,1.473c-0.139,0.109-0.327,0.126-0.48,0.041
		c-0.155-0.084-0.244-0.251-0.228-0.426c0.001-0.011,0.104-1.182-0.118-2.291c-0.002-0.013-0.012-0.021-0.024-0.022
		c-0.012-0.004-0.024,0.001-0.031,0.011c-0.294,0.417-0.556,0.85-0.776,1.289c-0.71,1.418-0.957,2.782-0.73,4.051
		c0.002,0.016,0.015,0.025,0.03,0.025h0.002c0.272-0.014,0.998-0.087,1.852-0.465c0.728-0.322,1.417-0.798,2.051-1.412
		c0.625-0.605,1.2-1.356,1.709-2.229c0.005-0.01,0.005-0.022-0.001-0.032C61.761,321.92,61.75,321.915,61.738,321.918"/>
	<path fill="#2DA44A" d="M63.912,316.966c-0.155,0.037-0.313,0.082-0.468,0.135c-0.645,0.221-1.615,0.704-2.584,1.759
		c-0.12,0.13-0.305,0.175-0.472,0.114c-0.166-0.061-0.279-0.214-0.287-0.392c0-0.01-0.058-1.169-0.407-2.269
		c-0.004-0.012-0.015-0.021-0.026-0.021c-0.013-0.001-0.024,0.005-0.031,0.016c-0.236,0.423-0.439,0.862-0.602,1.306
		c-0.54,1.47-0.621,2.872-0.241,4.167c0.004,0.014,0.016,0.021,0.029,0.021c0.002,0,0.003,0,0.005,0
		c0.333-0.057,1.008-0.219,1.781-0.674c0.685-0.404,1.314-0.955,1.87-1.639c0.563-0.691,1.058-1.525,1.466-2.481
		c0.004-0.012,0.003-0.022-0.004-0.031C63.934,316.968,63.923,316.964,63.912,316.966"/>
	<path fill="#2DA44A" d="M65.477,311.994c-0.75,0.303-1.851,0.916-2.833,2.121c-0.11,0.136-0.289,0.193-0.458,0.146
		c-0.168-0.048-0.292-0.19-0.313-0.364c-0.007-0.051-0.171-1.263-0.635-2.333c-0.005-0.012-0.016-0.018-0.028-0.018
		s-0.024,0.008-0.028,0.019c-0.193,0.481-0.351,0.974-0.469,1.461c-0.26,1.085-0.44,2.689,0.179,4.19
		c0.004,0.011,0.016,0.018,0.028,0.018c0.002,0,0.005,0,0.007-0.002c0.263-0.07,0.957-0.296,1.709-0.846
		c0.641-0.469,1.211-1.079,1.697-1.813c0.479-0.726,0.878-1.58,1.187-2.54c0.004-0.012,0-0.024-0.008-0.033
		C65.502,311.991,65.489,311.99,65.477,311.994"/>
	<path fill="#2DA44A" d="M66.504,306.745c-0.707,0.391-1.723,1.134-2.547,2.45c-0.093,0.149-0.267,0.228-0.44,0.2
		c-0.174-0.027-0.313-0.156-0.355-0.327c-0.004-0.012-0.321-1.268-0.919-2.285c-0.006-0.011-0.017-0.016-0.03-0.016
		c-0.012,0.003-0.022,0.012-0.025,0.023c-0.139,0.488-0.239,0.985-0.298,1.479c-0.192,1.604,0.049,3.021,0.717,4.214
		c0.006,0.01,0.017,0.016,0.027,0.016c0.004,0,0.008-0.001,0.012-0.002c0.312-0.129,0.935-0.435,1.586-1.047
		c0.577-0.543,1.067-1.219,1.458-2.006c0.385-0.778,0.674-1.675,0.861-2.668c0.002-0.011-0.002-0.022-0.013-0.03
		C66.528,306.739,66.514,306.739,66.504,306.745"/>
	<path fill="#2DA44A" d="M64.711,304.177c-0.078,0.161-0.243,0.26-0.42,0.25c-0.179-0.013-0.331-0.129-0.388-0.298
		c-0.004-0.013-0.406-1.183-1.129-2.074c-0.008-0.009-0.02-0.013-0.032-0.01c-0.011,0.003-0.02,0.014-0.022,0.023
		c-0.097,0.501-0.15,1.009-0.161,1.508c-0.029,1.567,0.369,2.92,1.181,4.02c0.006,0.008,0.015,0.013,0.025,0.013
		c0.005,0,0.01-0.001,0.015-0.004c0.238-0.13,0.859-0.506,1.461-1.213c0.512-0.603,0.922-1.324,1.22-2.149
		c0.295-0.815,0.482-1.74,0.554-2.747c0-0.014-0.005-0.023-0.016-0.029c-0.01-0.007-0.023-0.006-0.033,0.002
		C66.308,301.933,65.382,302.781,64.711,304.177"/>
	<path fill="#2DA44A" d="M64.527,299.411c-0.178,0.012-0.338-0.084-0.416-0.241c-0.005-0.012-0.517-1.034-1.291-1.875
		c-0.008-0.009-0.021-0.013-0.033-0.007c-0.012,0.004-0.02,0.014-0.021,0.027c-0.046,1.286,0.089,3.688,1.519,5.307
		c0.006,0.007,0.015,0.011,0.023,0.011c0.006,0,0.012-0.002,0.017-0.007c0.225-0.149,0.805-0.584,1.333-1.347
		c0.449-0.647,0.786-1.407,1.001-2.256c0.213-0.842,0.306-1.781,0.278-2.791c0-0.012-0.007-0.021-0.018-0.026
		c-0.011-0.006-0.023-0.004-0.033,0.005c-0.609,0.525-1.447,1.458-1.975,2.913C64.855,299.288,64.702,299.401,64.527,299.411"/>
	<path fill="#2DA44A" d="M64.283,294.292c-0.174,0.026-0.346-0.053-0.438-0.201c-0.005-0.01-0.599-0.95-1.426-1.7
		c-0.009-0.009-0.023-0.011-0.034-0.004c-0.011,0.005-0.018,0.016-0.017,0.03c0.13,1.405,0.558,3.938,1.97,5.11
		c0.006,0.005,0.013,0.007,0.02,0.007c0.006,0,0.014-0.002,0.02-0.007c0.212-0.173,0.755-0.665,1.215-1.489
		c0.384-0.69,0.645-1.479,0.776-2.347c0.13-0.857,0.131-1.802,0.004-2.804c-0.001-0.013-0.009-0.022-0.021-0.025
		c-0.011-0.004-0.024-0.001-0.032,0.008c-0.556,0.584-1.297,1.596-1.68,3.098C64.596,294.137,64.457,294.264,64.283,294.292"/>
	<path fill="#2DA44A" d="M63.607,289.309c-0.171,0.035-0.347-0.036-0.447-0.181c-0.007-0.009-0.669-0.957-1.554-1.673
		c-0.01-0.008-0.023-0.009-0.034-0.002c-0.011,0.005-0.017,0.016-0.016,0.028c0.052,0.511,0.139,1.011,0.257,1.489
		c0.265,1.064,0.831,2.544,2.02,3.55c0.005,0.005,0.012,0.007,0.02,0.007s0.015-0.003,0.021-0.009
		c0.2-0.183,0.711-0.696,1.124-1.525c0.351-0.705,0.574-1.506,0.665-2.378c0.089-0.864,0.045-1.807-0.128-2.803
		c-0.001-0.012-0.011-0.021-0.022-0.023c-0.011-0.004-0.023,0-0.031,0.009c-0.527,0.609-1.22,1.653-1.532,3.17
		C63.913,289.141,63.78,289.275,63.607,289.309"/>
	<path fill="#2DA44A" d="M62.497,284.392c-0.166,0.058-0.349,0.013-0.468-0.117c-0.007-0.009-0.809-0.873-1.793-1.461
		c-0.011-0.007-0.024-0.005-0.034,0.002c-0.009,0.008-0.014,0.02-0.011,0.032c0.11,0.491,0.257,0.971,0.435,1.425
		c0.58,1.479,1.434,2.578,2.538,3.27c0.005,0.004,0.011,0.005,0.016,0.005c0.01,0,0.019-0.005,0.024-0.013
		c0.174-0.206,0.608-0.786,0.903-1.664c0.25-0.746,0.362-1.569,0.331-2.444c-0.031-0.868-0.203-1.797-0.513-2.76
		c-0.003-0.012-0.012-0.02-0.025-0.021c-0.01-0.003-0.023,0.004-0.03,0.013c-0.438,0.675-0.981,1.803-1.081,3.35
		C62.776,284.183,62.662,284.335,62.497,284.392"/>
	<path fill="#2DA44A" d="M60.318,279.51c-0.01-0.008-0.9-0.788-1.936-1.271c-0.011-0.005-0.024-0.004-0.033,0.005
		c-0.01,0.008-0.013,0.021-0.01,0.033c0.162,0.478,0.356,0.938,0.582,1.372c0.73,1.41,1.694,2.418,2.864,2.994
		c0.005,0.001,0.009,0.002,0.014,0.002c0.01,0,0.021-0.005,0.026-0.013c0.151-0.225,0.523-0.844,0.725-1.745
		c0.171-0.769,0.196-1.599,0.075-2.467c-0.121-0.86-0.389-1.766-0.796-2.693c-0.004-0.011-0.016-0.018-0.027-0.019
		c-0.016-0.001-0.023,0.006-0.028,0.018c-0.366,0.714-0.789,1.892-0.728,3.438c0.007,0.176-0.091,0.337-0.25,0.412
		C60.637,279.654,60.449,279.627,60.318,279.51"/>
	<path fill="#2DA44A" d="M55.969,273.933c-0.008,0.009-0.009,0.021-0.005,0.031c0.2,0.473,0.441,0.927,0.718,1.349
		c0.86,1.314,1.966,2.214,3.285,2.674c0.003,0.001,0.006,0.001,0.009,0.001c0.012,0,0.022-0.006,0.028-0.016
		c0.124-0.239,0.42-0.896,0.514-1.814c0.08-0.782,0.008-1.609-0.215-2.459c-0.222-0.841-0.595-1.712-1.109-2.588
		c-0.006-0.011-0.017-0.016-0.029-0.016c-0.012,0.001-0.022,0.009-0.026,0.021c-0.279,0.751-0.56,1.966-0.318,3.494
		c0.028,0.178-0.057,0.356-0.212,0.447c-0.156,0.089-0.354,0.074-0.493-0.038c-0.01-0.008-0.985-0.773-2.115-1.095
		C55.989,273.921,55.976,273.925,55.969,273.933"/>
	<path fill="#2DA44A" d="M53.082,270.11c-0.006,0.011-0.005,0.023,0.001,0.032c0.303,0.449,0.64,0.873,1.002,1.257
		c1.095,1.161,2.302,1.872,3.587,2.111c0.002,0.001,0.004,0.001,0.004,0.001c0.015,0,0.027-0.009,0.031-0.021
		c0.102-0.317,0.266-0.983,0.213-1.869c-0.048-0.785-0.253-1.59-0.611-2.392c-0.348-0.781-0.847-1.567-1.479-2.337
		c-0.007-0.009-0.02-0.014-0.031-0.011c-0.012,0.004-0.02,0.013-0.022,0.025c-0.134,0.825-0.204,2.098,0.22,3.463
		c0.055,0.179-0.009,0.373-0.16,0.482c-0.151,0.111-0.355,0.113-0.509,0.005c-0.009-0.006-0.984-0.675-2.217-0.763
		C53.099,270.094,53.088,270.099,53.082,270.11"/>
	<path fill="#2DA44A" d="M52.54,267.001c-0.121,0.135-0.315,0.181-0.485,0.114c-0.01-0.004-1.031-0.395-2.13-0.395
		c-0.055,0-0.109,0-0.164,0.003c-0.013,0-0.023,0.008-0.027,0.019c-0.004,0.012-0.002,0.024,0.006,0.033
		c0.402,0.417,0.826,0.799,1.26,1.134c0.876,0.672,2.219,1.469,3.677,1.467c0.024,0,0.049,0,0.074,0c0.015,0,0.028-0.011,0.03-0.026
		c0.035-0.273,0.092-1.005-0.122-1.922c-0.182-0.776-0.515-1.542-0.992-2.277c-0.468-0.721-1.081-1.42-1.821-2.075
		c-0.008-0.007-0.021-0.009-0.032-0.005c-0.011,0.005-0.018,0.016-0.018,0.028c-0.025,0.797,0.096,2.036,0.809,3.408
		C52.686,266.668,52.661,266.866,52.54,267.001"/>
	<path fill="#2DA44A" d="M13.814,329.997c0.08,0,0.148-0.003,0.207-0.005c0.016-0.001,0.028-0.014,0.029-0.029
		c0.129-2.12-1.25-4.125-2.085-5.13c-0.007-0.011-0.02-0.013-0.032-0.011c-0.011,0.004-0.02,0.014-0.021,0.026
		c-0.127,1.156,0.14,2.235,0.143,2.245c0.044,0.175-0.021,0.356-0.167,0.462c-0.147,0.106-0.34,0.112-0.492,0.016
		c-1.324-0.846-2.56-1.085-3.364-1.137c-0.015-0.002-0.023,0.007-0.028,0.016c-0.006,0.011-0.005,0.023,0.002,0.032
		c0.599,0.817,1.25,1.503,1.937,2.043c0.695,0.547,1.432,0.947,2.19,1.194C12.84,329.948,13.438,329.997,13.814,329.997"/>
	<path fill="#2DA44A" d="M10.911,326.069h0.002c0.015,0,0.027-0.011,0.029-0.026c0.265-1.546-0.256-3.038-0.74-4.017
		c-0.219-0.443-0.478-0.882-0.77-1.306c-0.007-0.01-0.02-0.014-0.031-0.013c-0.011,0.003-0.021,0.013-0.024,0.023
		c-0.239,1.145-0.12,2.221-0.115,2.266c0.021,0.177-0.066,0.347-0.221,0.434s-0.346,0.071-0.485-0.04
		c-1.229-0.977-2.433-1.342-3.227-1.476c-0.013-0.002-0.024,0.004-0.031,0.013c-0.006,0.01-0.007,0.022-0.001,0.033
		c0.51,0.874,1.085,1.625,1.711,2.231c0.634,0.615,1.324,1.09,2.051,1.412C9.883,325.968,10.573,326.051,10.911,326.069"/>
	<path fill="#2DA44A" d="M8.211,321.871c0.002,0,0.003,0,0.003,0c0.015,0,0.027-0.009,0.031-0.021
		c0.394-1.286,0.316-2.686-0.229-4.158c-0.169-0.457-0.381-0.91-0.629-1.344c-0.006-0.012-0.018-0.017-0.03-0.016
		c-0.013,0.002-0.023,0.009-0.026,0.021c-0.364,1.092-0.396,2.277-0.397,2.29c-0.004,0.175-0.112,0.33-0.274,0.395
		c-0.163,0.065-0.349,0.026-0.473-0.098c-0.949-0.954-1.936-1.445-2.595-1.691c-0.146-0.054-0.292-0.102-0.436-0.145
		c-0.011-0.004-0.024,0-0.032,0.01c-0.007,0.009-0.009,0.021-0.005,0.033c0.403,0.926,0.887,1.736,1.437,2.412
		c0.557,0.684,1.187,1.234,1.871,1.638C7.229,321.67,7.942,321.826,8.211,321.871"/>
	<path fill="#2DA44A" d="M6.018,317.331c0.002,0,0.005,0.002,0.008,0.002c0.012,0,0.022-0.008,0.027-0.02
		c1.017-2.248,0.309-4.469-0.204-5.593c-0.005-0.011-0.016-0.018-0.027-0.018c-0.013,0-0.023,0.008-0.028,0.018
		c-0.497,1.046-0.672,2.246-0.674,2.259c-0.025,0.174-0.15,0.314-0.319,0.361c-0.169,0.044-0.349-0.014-0.457-0.151
		c-0.832-1.056-1.755-1.657-2.383-1.977c-0.138-0.068-0.278-0.135-0.417-0.193c-0.011-0.005-0.024-0.003-0.033,0.006
		c-0.009,0.008-0.012,0.021-0.009,0.032C2.699,315.997,5.059,317.057,6.018,317.331"/>
	<path fill="#2DA44A" d="M2.743,311.587c0.706,0.62,1.38,0.905,1.637,0.999c0.003,0,0.007,0.002,0.011,0.002
		c0.011,0,0.02-0.006,0.026-0.016c0.8-1.364,1.045-2.808,0.73-4.29c-0.101-0.479-0.261-0.949-0.473-1.394
		c-0.005-0.01-0.015-0.017-0.027-0.017c-0.009-0.001-0.022,0.006-0.027,0.015c-0.599,1.01-0.879,2.235-0.89,2.287l0.03,0.008
		l-0.03-0.007c-0.037,0.172-0.173,0.304-0.345,0.337c-0.172,0.032-0.347-0.041-0.444-0.185c-0.875-1.299-1.914-2.004-2.63-2.366
		c-0.011-0.007-0.024-0.005-0.033,0.002c-0.01,0.008-0.014,0.02-0.011,0.032c0.219,0.984,0.54,1.874,0.952,2.64
		C1.635,310.407,2.148,311.064,2.743,311.587"/>
	<path fill="#2DA44A" d="M3.031,307.762c0.005,0.004,0.01,0.005,0.016,0.005c0.01,0,0.019-0.005,0.024-0.012
		c1.637-2.214,1.479-4.396,1.24-5.503c-0.003-0.013-0.012-0.02-0.022-0.022c-0.012-0.004-0.023,0.001-0.031,0.01
		c-0.768,0.91-1.243,2.057-1.248,2.067c-0.067,0.161-0.223,0.269-0.398,0.271c-0.003,0-0.005,0-0.008,0
		c-0.171,0-0.328-0.102-0.398-0.26c-0.544-1.224-1.29-2.029-1.818-2.49c-0.117-0.102-0.238-0.199-0.36-0.29
		c-0.009-0.008-0.022-0.009-0.032-0.003c-0.01,0.006-0.017,0.017-0.017,0.028C0.158,305.662,2.173,307.264,3.031,307.762"/>
	<path fill="#2DA44A" d="M2.607,302.79c0.005,0.004,0.012,0.006,0.018,0.006c0.007,0,0.015-0.002,0.021-0.009
		c0.795-0.765,1.301-1.761,1.504-2.964c0.169-1.005,0.09-1.941-0.007-2.551c-0.002-0.01-0.009-0.02-0.02-0.023
		c-0.011-0.004-0.022-0.002-0.031,0.006c-0.921,0.842-1.116,1.934-1.117,1.945c-0.034,0.199-0.198,0.349-0.399,0.362
		s-0.386-0.108-0.448-0.302c-0.412-1.272-1.066-2.152-1.544-2.663c-0.106-0.115-0.216-0.225-0.328-0.328
		c-0.009-0.007-0.021-0.01-0.032-0.006c-0.012,0.005-0.019,0.015-0.02,0.026C-0.052,300.412,1.799,302.209,2.607,302.79"/>
	<path fill="#2DA44A" d="M1.414,296.038c0.451,0.81,0.985,1.3,1.194,1.473c0.005,0.004,0.013,0.008,0.02,0.008
		c0.008,0,0.015-0.004,0.021-0.009c0.951-0.878,1.564-2.122,1.824-3.691c0.082-0.5,0.124-1.019,0.126-1.543
		c0-0.013-0.007-0.022-0.018-0.027c-0.011-0.007-0.024-0.004-0.033,0.005c-0.875,0.781-1.358,1.783-1.362,1.793
		c-0.079,0.167-0.254,0.267-0.438,0.248c-0.183-0.018-0.335-0.149-0.381-0.326c-0.383-1.502-1.125-2.514-1.679-3.098
		c-0.009-0.009-0.021-0.012-0.032-0.008c-0.011,0.004-0.02,0.013-0.021,0.025c-0.126,1.002-0.125,1.946,0.004,2.804
		C0.769,294.56,1.03,295.349,1.414,296.038"/>
	<path fill="#2DA44A" d="M1.943,290.925c0.394,0.793,0.867,1.29,1.113,1.517c0.006,0.006,0.013,0.008,0.021,0.008
		c0.007,0,0.014-0.002,0.02-0.008c1.095-0.975,1.822-2.224,2.162-3.714c0.102-0.449,0.165-0.907,0.188-1.364
		c0-0.013-0.006-0.024-0.017-0.029c-0.011-0.006-0.023-0.005-0.033,0.004c-0.91,0.713-1.588,1.682-1.617,1.723
		c-0.101,0.146-0.276,0.216-0.447,0.181c-0.172-0.035-0.306-0.169-0.341-0.34c-0.313-1.519-1.006-2.562-1.533-3.171
		c-0.007-0.009-0.02-0.013-0.031-0.009c-0.011,0.003-0.019,0.012-0.022,0.023c-0.173,0.997-0.216,1.939-0.126,2.803
		C1.368,289.42,1.592,290.219,1.943,290.925"/>
	<path fill="#2DA44A" d="M3.733,287.48c0.005,0.006,0.015,0.01,0.023,0.01c0.005,0,0.01-0.001,0.016-0.005
		c1.318-0.823,2.229-1.98,2.709-3.442c0.147-0.447,0.249-0.91,0.3-1.372c0.001-0.012-0.004-0.022-0.014-0.029
		c-0.01-0.006-0.021-0.006-0.032-0.001c-1.079,0.614-1.859,1.539-1.867,1.548c-0.114,0.138-0.299,0.191-0.468,0.138
		c-0.17-0.055-0.29-0.206-0.303-0.383c-0.124-1.555-0.681-2.672-1.127-3.335c-0.007-0.01-0.018-0.015-0.03-0.014
		c-0.012,0.003-0.021,0.01-0.025,0.021c-0.296,0.97-0.457,1.902-0.476,2.771c-0.019,0.877,0.104,1.698,0.365,2.441
		C3.113,286.703,3.557,287.273,3.733,287.48"/>
	<path fill="#2DA44A" d="M5.008,282.615c0.005,0.009,0.015,0.014,0.025,0.014c0.005,0,0.01-0.001,0.014-0.004
		c1.407-0.7,2.457-1.739,3.119-3.091c0.202-0.412,0.361-0.843,0.473-1.281c0.003-0.011-0.001-0.023-0.01-0.031
		c-0.008-0.008-0.02-0.009-0.031-0.005c-1.082,0.466-2.011,1.264-2.05,1.297c-0.132,0.116-0.32,0.142-0.478,0.064
		c-0.158-0.077-0.254-0.239-0.246-0.414c0.076-1.559-0.337-2.736-0.696-3.45c-0.005-0.01-0.016-0.017-0.027-0.017h0
		c-0.011,0-0.022,0.007-0.027,0.018c-0.417,0.925-0.694,1.829-0.822,2.688c-0.129,0.867-0.111,1.696,0.053,2.466
		C4.489,281.736,4.824,282.336,5.008,282.615"/>
	<path fill="#2DA44A" d="M6.838,277.97c0.005,0.012,0.016,0.018,0.028,0.018c0.002,0,0.005,0,0.008-0.001
		c1.27-0.37,2.389-1.209,3.327-2.495c0.402-0.552,0.688-1.082,0.858-1.43c0.004-0.012,0.004-0.022-0.003-0.031
		c-0.007-0.011-0.018-0.015-0.029-0.013c-1.231,0.17-2.125,1.032-2.133,1.041c-0.138,0.137-0.346,0.167-0.515,0.074
		c-0.17-0.092-0.26-0.281-0.222-0.471c0.308-1.528,0.078-2.752-0.171-3.511c-0.003-0.011-0.012-0.019-0.024-0.02
		c-0.011-0.003-0.022,0.002-0.03,0.012c-0.551,0.854-0.96,1.708-1.217,2.54c-0.258,0.838-0.365,1.66-0.317,2.446
		C6.451,277.055,6.722,277.725,6.838,277.97"/>
	<path fill="#2DA44A" d="M9.396,273.52c0.001,0,0.003,0,0.005,0c2.119-0.356,3.761-2.265,4.55-3.371
		c0.007-0.01,0.008-0.022,0.002-0.032c-0.006-0.01-0.017-0.017-0.029-0.017c-1.217,0.103-2.176,0.753-2.185,0.76
		c-0.155,0.107-0.36,0.102-0.51-0.012c-0.15-0.112-0.212-0.307-0.153-0.486c0.49-1.481,0.409-2.722,0.255-3.501
		c-0.002-0.013-0.011-0.021-0.022-0.024s-0.024,0.001-0.032,0.01c-2.649,3.188-2.219,5.716-1.91,6.652
		C9.371,273.511,9.383,273.52,9.396,273.52"/>
	<path fill="#2DA44A" d="M12.375,269.391c0.05,0.002,0.099,0.004,0.15,0.004c1.259,0,2.568-0.799,3.459-1.482
		c0.435-0.337,0.87-0.719,1.292-1.137c0.009-0.009,0.012-0.021,0.007-0.034c-0.005-0.011-0.019-0.017-0.03-0.018
		c-1.123,0.038-2.182,0.395-2.192,0.397c-0.171,0.059-0.356,0.007-0.472-0.129c-0.117-0.136-0.139-0.327-0.056-0.486
		c0.72-1.385,0.838-2.622,0.811-3.416c0-0.012-0.007-0.021-0.018-0.027c-0.011-0.004-0.024-0.003-0.033,0.006
		c-0.769,0.673-1.401,1.383-1.879,2.115c-0.481,0.735-0.813,1.499-0.985,2.266c-0.208,0.924-0.128,1.647-0.084,1.916
		C12.348,269.38,12.361,269.391,12.375,269.391"/>
	<path fill="#2DA44A" d="M21.166,263.785c-1.129-0.087-2.244,0.133-2.254,0.136c-0.172,0.035-0.349-0.036-0.448-0.182
		s-0.102-0.336-0.005-0.483c0.851-1.312,1.089-2.53,1.14-3.323c0-0.013-0.006-0.023-0.016-0.029
		c-0.011-0.006-0.023-0.005-0.033,0.002c-3.361,2.42-3.599,4.967-3.545,5.948c0,0.016,0.013,0.028,0.029,0.028
		c0.074,0.004,0.146,0.007,0.219,0.007c2.046,0,3.955-1.272,4.93-2.05c0.01-0.008,0.014-0.021,0.011-0.032
		C21.189,263.795,21.177,263.786,21.166,263.785"/>
	<path fill="#2DA44A" d="M25.469,261.718c-0.352-0.105-0.747-0.188-1.175-0.244c-0.634-0.083-1.113-0.08-1.117-0.08h-0.002
		c-0.183,0-0.348-0.113-0.411-0.283c-0.064-0.171-0.015-0.366,0.124-0.486c1.169-1.004,1.719-1.921,1.974-2.514
		c0.006-0.012,0.002-0.024-0.005-0.033c-0.008-0.009-0.021-0.013-0.032-0.008c-3.913,1.324-4.767,3.609-4.953,4.53
		c-0.003,0.017,0.006,0.031,0.021,0.035c0.396,0.114,0.917,0.208,1.553,0.208c0.728,0,1.61-0.122,2.636-0.478
		c0.469-0.161,0.938-0.36,1.393-0.59c0.012-0.006,0.018-0.018,0.017-0.031C25.49,261.732,25.481,261.722,25.469,261.718"/>
	<path fill="#2DA44A" d="M30.153,260.452c-1.022-0.513-2.166-0.729-2.177-0.731c-0.186-0.035-0.328-0.184-0.354-0.37
		c-0.026-0.188,0.071-0.369,0.24-0.452c1.281-0.631,1.932-1.282,2.251-1.718c0.007-0.011,0.007-0.022,0.001-0.034
		c-0.006-0.01-0.019-0.016-0.03-0.014c-2.001,0.279-3.593,0.957-4.605,1.961c-0.52,0.516-0.788,1.014-0.92,1.343
		c-0.006,0.014,0,0.031,0.016,0.039c0.869,0.403,1.788,0.534,2.616,0.534c0.558,0,1.076-0.06,1.51-0.136
		c0.481-0.085,0.968-0.208,1.447-0.365c0.013-0.004,0.021-0.016,0.021-0.028C30.17,260.469,30.164,260.457,30.153,260.452"/>
	<path fill="#2DA44A" d="M33.208,259.128c-0.176-0.065-0.29-0.235-0.285-0.424c0.006-0.188,0.13-0.35,0.31-0.404
		c1.276-0.388,2.06-0.872,2.493-1.211c0.01-0.008,0.014-0.021,0.011-0.033c-0.004-0.013-0.015-0.021-0.028-0.021
		c-1.966-0.131-3.633,0.196-4.819,0.946c-0.624,0.395-0.994,0.825-1.196,1.117c-0.009,0.014-0.006,0.032,0.007,0.042
		c1.333,1.013,3.059,1.248,4.374,1.248c0.411,0,0.781-0.022,1.088-0.053c0.012-0.002,0.022-0.009,0.026-0.021
		c0.004-0.012,0-0.024-0.01-0.032C34.302,259.542,33.218,259.132,33.208,259.128"/>
	<path fill="#2DA44A" d="M38.34,259.478c-0.149-0.104-0.22-0.29-0.178-0.465c0.043-0.177,0.192-0.31,0.372-0.33
		c1.292-0.158,2.157-0.468,2.656-0.701c0.011-0.005,0.019-0.016,0.018-0.03c-0.001-0.012-0.011-0.023-0.023-0.026
		c-1.878-0.51-3.56-0.519-4.863-0.027c-0.693,0.262-1.147,0.611-1.404,0.857c-0.012,0.012-0.013,0.029-0.003,0.042
		c1.635,1.952,3.921,2.308,5.14,2.346h0c0.012,0,0.023-0.008,0.028-0.018c0.005-0.011,0.004-0.024-0.003-0.033
		C39.352,260.176,38.348,259.483,38.34,259.478"/>
	<path fill="#2DA44A" d="M51.108,265.873c0.016-0.001,0.028-0.014,0.028-0.03c0.007-0.417-0.033-1.248-0.379-2.132
		c-0.587-1.503-1.781-2.565-3.549-3.154c-0.012-0.003-0.023,0-0.032,0.007c-0.009,0.009-0.011,0.021-0.007,0.033
		c0.244,0.703,0.682,1.729,1.392,2.616c0.117,0.146,0.128,0.351,0.028,0.508c-0.1,0.157-0.289,0.234-0.47,0.19
		c-0.012-0.003-1.096-0.252-2.233-0.033c-0.013,0.003-0.022,0.012-0.025,0.024c-0.002,0.012,0.002,0.024,0.013,0.031
		c1.114,0.74,3.204,1.947,5.003,1.947C50.953,265.881,51.031,265.878,51.108,265.873"/>
	<path fill="#2DA44A" d="M47.045,262.699c0.002-0.012-0.001-0.021-0.008-0.029c-0.976-1.031-2.223-1.511-3.715-1.42
		c-0.524,0.033-1.059,0.134-1.59,0.302c-0.01,0.004-0.019,0.014-0.021,0.023c-0.002,0.013,0.002,0.022,0.012,0.03
		c1.182,0.917,2.421,1.382,3.687,1.382c0.07,0,0.14-0.001,0.21-0.004c0.604-0.023,1.098-0.156,1.405-0.263
		C47.034,262.718,47.042,262.709,47.045,262.699"/>
	<path fill="#2DA44A" d="M39.852,259.546c0,0.01,0.004,0.021,0.014,0.026c0.749,0.526,1.664,0.791,2.732,0.791
		c0.449,0,0.925-0.046,1.426-0.14c0.792-0.147,1.494-0.389,1.944-0.566c0.011-0.004,0.018-0.016,0.019-0.026
		c0.002-0.012-0.005-0.023-0.015-0.029c-0.717-0.396-1.449-0.661-2.175-0.786c-0.776-0.132-1.557-0.108-2.32,0.072
		c-0.71,0.167-1.267,0.436-1.608,0.633C39.859,259.526,39.853,259.535,39.852,259.546"/>
	<path fill="#EF4123" d="M25.23,288.097c0.242,0.294,0.642,0.438,1.223,0.438h5.673c-3.405-2.113-4.656-1.731-7.032-0.651
		C25.135,287.965,25.18,288.035,25.23,288.097"/>
	<path fill="#EF4123" d="M39.088,285.499c-0.533-0.142-1.038-0.275-1.485-0.454c-1.785-0.714-3.254-1.866-3.315-1.916
		c-0.359-0.284-0.42-0.809-0.135-1.167c0.285-0.36,0.809-0.421,1.169-0.137c0.012,0.011,1.338,1.05,2.899,1.676
		c0.351,0.14,0.806,0.261,1.29,0.389c0.704,0.187,1.565,0.415,2.295,0.788c-0.149-0.938-0.295-1.738-0.457-2.502
		c-2.288-0.51-4.17-2.052-4.25-2.117c-0.172-0.142-0.278-0.342-0.298-0.563c-0.021-0.221,0.045-0.438,0.187-0.608
		c0.291-0.353,0.817-0.403,1.17-0.11c0.013,0.01,1.223,0.992,2.745,1.539c-0.604-2.254-1.422-4.37-2.498-6.464
		c-0.768-1.496-1.899-2.497-3.362-2.979c-1.065-0.351-1.917-0.282-1.925-0.281c-0.026,0.003-0.052,0.004-0.078,0.004
		c-0.027,0-2.758,0.043-4.473,2.065c-0.013,0.015-0.027,0.03-0.041,0.045c-0.317,0.323-1.168,1.328-1.297,2.083
		c-0.071,0.417,0.036,0.751,0.287,0.894c0.118,0.066,0.562,0.243,1.336-0.3c0.192-0.16,0.318-0.249,0.352-0.272
		c0.365-0.253,0.862-0.177,1.132,0.175c0.271,0.351,0.219,0.852-0.117,1.141c-0.108,0.092-0.219,0.18-0.329,0.259
		c-0.344,0.291-1.043,0.938-1.813,1.977c-1.026,1.385-2.395,3.767-3.09,7.258c-0.014,0.071-0.026,0.139-0.037,0.207
		c2.361-1.021,4.273-1.446,8.478,1.268c1.642,1.059,3.542,1.137,3.907,1.143h1.859c0.02,0,0.038,0,0.057,0.001
		c0.479,0.031,1.868-0.04,2.498-0.725c0.108-0.119,0.192-0.256,0.248-0.408C41.957,286.423,41.064,286.022,39.088,285.499"/>
	<path fill="#FCBC80" d="M30.915,317.994c0.224-0.176,0.471-0.468,0.481-0.66c0.006-0.097-0.071-0.216-0.222-0.347
		c-0.179-0.156-0.366-0.23-0.576-0.23c-0.417,0-0.926,0.294-1.667,0.815c-0.475,0.333-1.263,0.982-1.2,1.591
		c0.029,0.254,0.127,0.352,0.218,0.414c0.384,0.262,1.156,0.175,1.443,0.13C29.682,319.063,30.18,318.504,30.915,317.994"/>
	<path fill="#FCBC80" d="M33.796,319.019c0.004-0.044,0.018-0.179-0.224-0.415c-0.01-0.007-0.367-0.283-1.189,0.193
		c-0.628,0.363-1.322,0.806-1.639,1.462c0.166,0.176,0.329,0.226,0.441,0.248c0.681,0.135,1.637-0.458,1.918-0.678
		c0.021-0.016,0.038-0.027,0.055-0.04C33.349,319.669,33.766,319.311,33.796,319.019"/>
	<path fill="#FCBC80" d="M24.998,314.992c-0.053-0.008-0.109-0.013-0.167-0.013c-0.617,0-1.481,0.423-1.878,0.942
		c-0.275,0.36-0.183,0.573-0.152,0.643c0.05,0.115,0.311,0.265,0.78,0.34c0.095,0.015,0.197,0.027,0.304,0.035
		c0.189-0.67,0.65-1.179,1.079-1.591c0.121-0.116,0.231-0.217,0.34-0.31c-0.101-0.024-0.189-0.037-0.244-0.041
		C25.038,314.997,25.022,314.995,24.998,314.992"/>
	<path fill="#FCBC80" d="M25.258,317.625c0.013,0.134,0.047,0.495,0.762,0.731c0.106,0.034,0.222,0.064,0.344,0.089
		c0.215-0.717,0.796-1.412,1.729-2.067c0.126-0.088,0.26-0.183,0.402-0.277c0.007-0.051,0.004-0.095-0.009-0.136
		c-0.038-0.12-0.184-0.25-0.41-0.363c-0.15-0.074-0.305-0.113-0.47-0.113c-0.464,0-0.995,0.3-1.633,0.912
		C25.431,316.922,25.237,317.255,25.258,317.625"/>
	<path fill="#FCBC80" d="M43.106,316.264c0.43-0.012,0.755-0.119,0.969-0.321c0.21-0.199,0.295-0.468,0.33-0.669
		c-0.419-0.524-1.834-2.198-3.741-3.438c-0.804-0.523-1.669-1.054-2.554-1.395c-0.979-0.38-1.813-0.464-2.548-0.261
		c-0.014,0.003-0.029,0.007-0.042,0.01c-0.223,0.048-0.539,0.257-0.905,0.499c-0.237,0.157-0.506,0.334-0.811,0.51
		c-0.85,0.49-2.014,0.84-2.965,0.894c-0.85,0.049-1.91,0.106-2.564-0.808c-0.428-0.601-0.517-1.149-0.288-1.772
		c0.217-0.579,0.89-0.909,1.741-1.326c0.361-0.177,0.734-0.359,1.007-0.537c0.398-0.259,0.646-0.461,0.961-0.717
		c0.312-0.253,0.665-0.541,1.24-0.945c0.24-0.169,0.487-0.307,0.748-0.417c-0.274-0.038-0.569-0.069-0.89-0.096
		c-1.367-0.116-2.346,0.375-3.779,1.384c-1.241,0.834-3.669,1.602-7.432,2.352c-3.587,0.717-8.508,1.437-14.625,2.137
		c0.184,0.683,0.384,1.361,0.597,2.023c0.778,2.426,1.751,4.742,2.892,6.888c2.176-0.963,7.526-3.372,11.689-5.6
		c0.829-0.784,2.081-1.243,3.046-1.112c0.224,0.017,1,0.113,1.598,0.616c0.672-0.214,1.346-0.166,1.95,0.138
		c0.675,0.338,0.975,0.78,1.107,1.115h0c0.857-0.263,1.629-0.104,2.292,0.471c0.408,0.354,0.646,0.759,0.708,1.206
		c0.822-0.131,1.443,0.155,1.757,0.474c0.614,0.601,0.692,1.207,0.649,1.611c-0.032,0.299-0.141,0.595-0.324,0.879
		c0.414,0.05,0.809,0,1.176-0.145c0.133-0.053,0.261-0.118,0.38-0.192c-0.181-0.362-0.496-0.891-1.002-1.462
		c-0.13-0.146-0.195-0.333-0.183-0.527c0.011-0.194,0.098-0.373,0.244-0.502c0.3-0.268,0.762-0.24,1.029,0.061
		c0.737,0.829,1.146,1.605,1.33,2.016c0.392,0.047,0.708-0.054,0.97-0.307c0.157-0.151,0.265-0.328,0.331-0.458
		c-0.077-0.169-0.272-0.511-0.76-1.074c-0.413-0.479-1.337-1.17-1.659-1.396c-0.16-0.112-0.266-0.281-0.299-0.472
		c-0.033-0.192,0.01-0.387,0.122-0.545c0.112-0.16,0.28-0.265,0.471-0.299c0.192-0.032,0.385,0.011,0.544,0.122
		c0.053,0.037,1.306,0.919,1.926,1.636c0.461,0.533,0.788,1.006,0.973,1.404c0.514,0.002,0.921-0.15,1.194-0.464
		c0.084-0.096,0.158-0.208,0.217-0.331c-0.553-0.738-1.962-2.453-3.663-3.284c-0.175-0.086-0.306-0.234-0.37-0.418
		c-0.063-0.186-0.051-0.383,0.035-0.557c0.086-0.176,0.234-0.307,0.417-0.369c0.186-0.064,0.383-0.052,0.558,0.034
		C40.914,313.51,42.496,315.444,43.106,316.264"/>
	<path fill="#FCBC80" d="M33.809,309.47c0.484-0.318,0.902-0.596,1.386-0.704c2.42-0.653,4.919,0.972,6.263,1.846
		c1.829,1.189,3.202,2.684,3.856,3.469c0.013,0.017,0.049,0.061,0.106,0.129l0.023,0.027c0.003,0.003,0.005,0.005,0.009,0.008
		c0.203,0.234,0.64,0.691,1.268,1.134c3.082,2.284,7.763,4.318,9.699,5.113c1.195-2.211,2.211-4.606,3.019-7.124
		c0.192-0.6,0.378-1.222,0.55-1.849c-3.876-0.259-8.011-1.103-10.806-1.768c-3.22-0.767-5.589-1.513-5.688-1.544
		c-0.655-0.224-1.234-0.433-1.745-0.616c-1.758-0.634-2.922-1.052-4.209-0.994c-0.156,0.009-0.305,0.014-0.451,0.018
		c-0.197,0.005-0.384,0.009-0.567,0.013l-0.022,0.001c-1.204,0.024-1.999,0.039-2.725,0.551c-0.535,0.377-0.866,0.646-1.158,0.885
		c-0.322,0.261-0.625,0.507-1.086,0.809c-0.348,0.224-0.762,0.427-1.162,0.622c-0.309,0.152-0.878,0.431-1.033,0.575
		c-0.022,0.069-0.03,0.147,0.126,0.367c0.173,0.243,0.605,0.236,1.294,0.2c0.607-0.035,1.561-0.265,2.318-0.702
		C33.343,309.781,33.58,309.623,33.809,309.47"/>
</g>
</svg>
